<svg id="_6" data-name="6" xmlns="http://www.w3.org/2000/svg" viewBox="0 0 1000 1000"><defs><style>.cls-1{fill:#28b8d4;opacity:0.05;}.cls-2{fill:#006981;}.cls-3{fill:#e6eaed;}.cls-4{fill:#005065;}.cls-5{fill:#0081a0;}.cls-6{fill:#b9b9b9;}.cls-7{fill:#fff;}.cls-10,.cls-8{fill:none;}.cls-10,.cls-8,.cls-9{stroke:#003340;stroke-miterlimit:10;}.cls-8{stroke-width:2px;}.cls-9{fill:#003340;}</style></defs><title>1</title><path class="cls-1" d="M650.52,766.35c27.16,3.16,53.71,12.64,81,10.77,24.2-1.65,46.48-12.15,65.86-24.84C915.2,675.16,940.76,500,834.45,404.14a163.53,163.53,0,0,0-24.86-18.52c-26.15-15.83-56.86-26.07-80.05-45.07-42.09-34.5-50.73-90-84.75-130.72-27.62-33-72.3-54.78-119-57.94s-94.54,12.33-127.42,41.25c-60.19,52.94-41.34,147-113.32,117.49C191.49,272.32,55.63,353.46,117,456.37c32.1,53.88,91.11,49.4,110.62,105.94,14.28,41.39-65.8,109.76-94.22,171.24-20.21,43.72,6.06,86.13,19.41,103.08,37.16,47.14,233.57-78,265.81-65.27C490,799.54,572.83,757.31,650.52,766.35Z"/><path class="cls-2" d="M319.57,394.07h456a14,14,0,0,1,14,14V680.72a0,0,0,0,1,0,0H304.55a0,0,0,0,1,0,0V409.09A15,15,0,0,1,319.57,394.07Z"/><path class="cls-3" d="M746.14,724.2H348a43.48,43.48,0,0,1-43.48-43.48H789.62A43.48,43.48,0,0,1,746.14,724.2Z"/><rect class="cls-2" x="502.76" y="724.2" width="88.02" height="73.25"/><rect class="cls-4" x="502.76" y="724.2" width="88.02" height="23.22"/><path class="cls-5" d="M453.24,797.45H640.3a8.22,8.22,0,0,1,8.22,8.22v19.65a0,0,0,0,1,0,0H445a0,0,0,0,1,0,0V805.66A8.22,8.22,0,0,1,453.24,797.45Z"/><path class="cls-3" d="M761.05,415H332.49a7.62,7.62,0,0,0-7.6,7.6V645.47a7.62,7.62,0,0,0,7.6,7.6H761.05a7.62,7.62,0,0,0,7.6-7.6V422.56A7.62,7.62,0,0,0,761.05,415Z"/><path class="cls-6" d="M558.77,701a13.72,13.72,0,1,1-13.72-13.72A13.72,13.72,0,0,1,558.77,701Z"/><path class="cls-5" d="M723.68,380.25h.56L688.3,318l-35.94,62.24h.56a42.05,42.05,0,1,0,70.76,0Z"/><path class="cls-7" d="M657.6,401.62a19.9,19.9,0,0,0,6.65,19.18,1.55,1.55,0,0,0,2.12,0,1.51,1.51,0,0,0,0-2.12,17,17,0,0,1-5.88-16.26c.39-1.89-2.5-2.69-2.89-.8Z"/><circle class="cls-8" cx="467.31" cy="543.96" r="28.4"/><circle class="cls-9" cx="467.23" cy="543.86" r="17.15"/><ellipse class="cls-7" cx="466.27" cy="531.37" rx="6.98" ry="6.59"/><path class="cls-8" d="M581.49,484c28.52-19,63.41-12.15,90.71,0"/><path class="cls-8" d="M502.63,484c-28.51-19-63.41-12.15-90.71,0"/><circle class="cls-8" cx="624.84" cy="543.96" r="28.4"/><circle class="cls-9" cx="624.23" cy="543.84" r="17.15"/><ellipse class="cls-7" cx="624.23" cy="530.58" rx="6.98" ry="6.59"/><rect class="cls-10" x="416.85" y="499.28" width="95.17" height="89.21" rx="6"/><rect class="cls-10" x="576.52" y="499.28" width="95.17" height="89.21" rx="6"/><line class="cls-10" x1="512.02" y1="542.43" x2="575.24" y2="542.43"/><path class="cls-8" d="M545.24,624.62c19.77-4.63,43.44-4.85,71.58,0"/></svg>