<svg xmlns="http://www.w3.org/2000/svg" viewBox="0 0 1000 1000"><defs><style>.cls-1{fill:#28b8d4;opacity:0.1;}.cls-2{fill:#006981;}.cls-3{fill:#e6eaed;}.cls-4{fill:#005065;}.cls-5{fill:#0081a0;}.cls-6{fill:#b9b9b9;}.cls-7{fill:none;}.cls-7,.cls-8{stroke:#003340;stroke-miterlimit:10;stroke-width:2px;}.cls-8{fill:#003340;}.cls-9{fill:#fff;}</style></defs><title>5</title><g id="_4" data-name="4"><path class="cls-1" d="M708.52,729.35c27.16,3.16,53.71,12.64,81,10.77,24.2-1.65,46.48-12.15,65.86-24.84C973.2,638.16,998.76,463,892.45,367.14a163.53,163.53,0,0,0-24.86-18.52c-26.15-15.83-56.86-26.07-80.05-45.07-42.09-34.5-50.73-90-84.75-130.72-27.62-33-72.3-54.78-119-57.94s-94.54,12.33-127.42,41.25c-60.19,52.94-41.33,147-113.32,117.49C249.49,235.32,113.63,316.46,175,419.37c32.1,53.88,91.11,49.4,110.62,105.94,14.28,41.39-65.8,109.76-94.22,171.24-20.21,43.72,6.06,86.13,19.41,103.08,37.16,47.14,233.57-78,265.81-65.27C548,762.54,630.83,720.31,708.52,729.35Z"/><path class="cls-2" d="M377.57,357.07h456a14,14,0,0,1,14,14V643.72a0,0,0,0,1,0,0H362.55a0,0,0,0,1,0,0V372.09A15,15,0,0,1,377.57,357.07Z"/><path class="cls-3" d="M804.14,687.2H406a43.48,43.48,0,0,1-43.48-43.48H847.62A43.48,43.48,0,0,1,804.14,687.2Z"/><rect class="cls-2" x="560.76" y="687.2" width="88.02" height="73.25"/><rect class="cls-4" x="560.76" y="687.2" width="88.02" height="23.22"/><path class="cls-5" d="M706.51,788.31H503a27.94,27.94,0,0,1,27.87-27.86H678.65a27.94,27.94,0,0,1,27.86,27.86Z"/><path class="cls-3" d="M819.05,378H390.49a7.62,7.62,0,0,0-7.6,7.6V608.47a7.62,7.62,0,0,0,7.6,7.6H819.05a7.62,7.62,0,0,0,7.6-7.6V385.56A7.62,7.62,0,0,0,819.05,378Z"/><path class="cls-6" d="M616.77,664a13.72,13.72,0,1,1-13.72-13.72A13.72,13.72,0,0,1,616.77,664Z"/><line class="cls-7" x1="646.28" y1="446.95" x2="736.99" y2="446.91"/><line class="cls-7" x1="486.88" y1="446.72" x2="577.59" y2="447.14"/><circle class="cls-7" cx="689.17" cy="506.52" r="36.75"/><circle class="cls-7" cx="529.15" cy="506.52" r="36.75"/><path class="cls-8" d="M540.17,514.29A22.19,22.19,0,1,1,518,492.1,22.18,22.18,0,0,1,540.17,514.29Z"/><path class="cls-9" d="M535.78,498.27a9.05,9.05,0,1,1-9-8.52A8.79,8.79,0,0,1,535.78,498.27Z"/><path class="cls-8" d="M718.47,493.48a22.19,22.19,0,1,1-22.19-22.18A22.18,22.18,0,0,1,718.47,493.48Z"/><ellipse class="cls-9" cx="680.73" cy="500.44" rx="9.03" ry="8.52"/><line class="cls-7" x1="478.18" y1="583.79" x2="746.11" y2="583.79"/></g></svg>