<svg xmlns="http://www.w3.org/2000/svg" viewBox="0 0 1000 1000"><defs><style>.cls-1{fill:#6cb6d1;opacity:0.1;}.cls-2{fill:#3b697f;}.cls-3{fill:#e5e8eb;}.cls-4{fill:#2e5164;}.cls-5{fill:#48809c;}.cls-6{fill:#b7b7b7;}.cls-7{fill:none;stroke:#1f3642;stroke-miterlimit:10;stroke-width:2px;}</style></defs><g id="_1" data-name="1"><path class="cls-1" d="M653.92,755.2c27.17,3.16,53.71,12.64,81,10.78,24.2-1.66,46.48-12.16,65.86-24.84C918.61,664,944.17,488.82,837.86,393A165,165,0,0,0,813,374.47c-26.14-15.82-56.85-26.06-80-45.07-42.09-34.5-50.73-90-84.76-130.71-27.61-33-72.29-54.78-119-57.95S434.68,153.07,401.79,182c-60.18,52.94-41.33,147-113.32,117.49C194.9,261.18,59,342.32,120.36,445.23c32.11,53.88,91.12,49.39,110.63,105.94,14.28,41.39-65.81,109.75-94.22,171.23-20.21,43.72,6,86.14,19.41,103.08,37.15,47.15,233.56-78,265.81-65.27C493.45,788.4,576.24,746.17,653.92,755.2Z"/><path class="cls-2" d="M323,382.92H779a14,14,0,0,1,14,14V669.57a0,0,0,0,1,0,0H308a0,0,0,0,1,0,0V397.95A15,15,0,0,1,323,382.92Z"/><path class="cls-3" d="M749.54,713.06H351.44A43.48,43.48,0,0,1,308,669.57H793A43.48,43.48,0,0,1,749.54,713.06Z"/><rect class="cls-2" x="506.16" y="713.06" width="88.02" height="73.25"/><rect class="cls-4" x="506.16" y="713.06" width="88.02" height="23.22"/><path class="cls-5" d="M651.92,814.17H448.43a28,28,0,0,1,27.86-27.87H624.06a28,28,0,0,1,27.86,27.87Z"/><path class="cls-3" d="M764.46,403.82H335.89a7.62,7.62,0,0,0-7.6,7.6v222.9a7.62,7.62,0,0,0,7.6,7.6H764.46a7.62,7.62,0,0,0,7.59-7.6V411.42A7.62,7.62,0,0,0,764.46,403.82Z"/><path class="cls-6" d="M562.18,689.86a13.72,13.72,0,1,1-13.72-13.72A13.71,13.71,0,0,1,562.18,689.86Z"/><path class="cls-7" d="M592.07,444c29.41-.66,59.17,5.86,89.15,16.78"/><path class="cls-7" d="M433.44,460.42c28.48-12.17,58.33-17,89.28-16"/><path class="cls-7" d="M581.51,506.7c29-27.27,53.35-23.43,74.94,0"/><path class="cls-7" d="M459.45,506.7c25.82-23.45,50.26-21.09,73.72,0"/><path class="cls-7" d="M422.1,551.34c1.94-11.29,11.43-15.93,26.41-15.77"/><path class="cls-7" d="M685.82,551.34c-1.94-11.29-11.43-15.93-26.42-15.77"/><path class="cls-7" d="M430.81,539.83C489.27,588,605,592.46,677,539.83"/><path class="cls-7" d="M432.2,542.48c58.6,114.63,186.72,113.63,244.59-1.5"/></g></svg>