<svg xmlns="http://www.w3.org/2000/svg" viewBox="0 0 1000 1000"><defs><style>.cls-1{fill:#6db8d3;opacity:0.1;}.cls-2{fill:#276980;}.cls-3{fill:#e7eaed;}.cls-4{fill:#1e5164;}.cls-5{fill:#30819e;}.cls-6{fill:#b9b9b9;}.cls-7{fill:#143642;stroke-linecap:round;stroke-linejoin:round;stroke-width:0.78px;}.cls-7,.cls-8{stroke:#143642;}.cls-8{fill:none;stroke-miterlimit:10;stroke-width:2px;}</style></defs><g id="_2" data-name="2"><path class="cls-1" d="M580.88,759c27.17,3.16,53.71,12.64,81,10.77,24.2-1.65,46.48-12.15,65.86-24.84,117.81-77.12,143.38-252.32,37.07-348.14A163.62,163.62,0,0,0,740,378.23c-26.14-15.83-56.85-26.06-80-45.07-42.1-34.5-50.73-90-84.76-130.72-27.61-33-72.29-54.78-119-57.94s-94.54,12.33-127.42,41.25c-60.18,52.94-41.33,147-113.32,117.49C121.86,264.93-14,346.07,47.32,449c32.11,53.88,91.12,49.4,110.63,105.94,14.28,41.39-65.81,109.76-94.22,171.24-20.21,43.72,6.05,86.14,19.4,103.08C120.29,876.38,316.7,751.25,349,764,420.41,792.15,503.2,749.92,580.88,759Z"/><path class="cls-2" d="M249.94,386.68H706a14,14,0,0,1,14,14V673.33a0,0,0,0,1,0,0H234.91a0,0,0,0,1,0,0V401.7A15,15,0,0,1,249.94,386.68Z"/><path class="cls-3" d="M676.5,716.81H278.4a43.49,43.49,0,0,1-43.49-43.48H720A43.48,43.48,0,0,1,676.5,716.81Z"/><rect class="cls-2" x="433.12" y="716.81" width="88.02" height="73.25"/><rect class="cls-4" x="433.12" y="716.81" width="88.02" height="23.22"/><path class="cls-5" d="M578.88,817.92H375.39a28,28,0,0,1,27.86-27.86H551a28,28,0,0,1,27.87,27.86Z"/><path class="cls-3" d="M691.41,407.58H262.85a7.61,7.61,0,0,0-7.6,7.59V638.08a7.62,7.62,0,0,0,7.6,7.6H691.41a7.62,7.62,0,0,0,7.6-7.6V415.17A7.61,7.61,0,0,0,691.41,407.58Z"/><path class="cls-6" d="M489.13,693.61a13.72,13.72,0,1,1-13.71-13.72A13.71,13.71,0,0,1,489.13,693.61Z"/><path class="cls-7" d="M564.44,535.49,589,510.93a1.66,1.66,0,0,0,0-2.35,1.68,1.68,0,0,0-2.35,0l-24.55,24.56L537,508.08a1.66,1.66,0,0,0-2.35,2.35l25.06,25.06-25.06,25.06a1.66,1.66,0,0,0,0,2.35,1.68,1.68,0,0,0,1.18.48,1.66,1.66,0,0,0,1.17-.48l25.06-25.06,24.55,24.55a1.65,1.65,0,0,0,1.18.49,1.63,1.63,0,0,0,1.17-.49,1.66,1.66,0,0,0,0-2.35Z"/><path class="cls-7" d="M401.15,535.49l24.56-24.56a1.66,1.66,0,0,0,0-2.35,1.68,1.68,0,0,0-2.35,0L398.8,533.14l-25.05-25.06a1.66,1.66,0,0,0-2.35,2.35l25.05,25.06L371.4,560.55a1.66,1.66,0,0,0,1.17,2.83,1.68,1.68,0,0,0,1.18-.48l25.05-25.06,24.56,24.55a1.63,1.63,0,0,0,1.17.49,1.67,1.67,0,0,0,1.18-2.84Z"/><line class="cls-8" x1="518.64" y1="449.41" x2="609.35" y2="449.41"/><line class="cls-8" x1="359.24" y1="476.54" x2="449.95" y2="476.54"/><line class="cls-8" x1="344.95" y1="596.67" x2="612.17" y2="596.67"/></g></svg>