<svg xmlns="http://www.w3.org/2000/svg" viewBox="0 0 1000 1000"><defs><style>.cls-1{fill:#6db8d3;opacity:0.1;}.cls-2{fill:#276980;}.cls-3{fill:#e7eaed;}.cls-4{fill:#1e5164;}.cls-5{fill:#30819e;}.cls-6{fill:#b9b9b9;}.cls-7{fill:#143642;stroke-linecap:round;stroke-linejoin:round;stroke-width:0.78px;}.cls-7,.cls-8{stroke:#143642;}.cls-8{fill:none;stroke-miterlimit:10;stroke-width:2px;}</style></defs><g id="_3" data-name="3"><path class="cls-1" d="M664.74,746.87c27.17,3.16,53.71,12.64,81,10.77,24.2-1.65,46.48-12.15,65.86-24.84C929.42,655.68,955,480.48,848.68,384.66a164.12,164.12,0,0,0-24.87-18.52c-26.14-15.83-56.85-26.07-80-45.07-42.1-34.5-50.74-90-84.76-130.72-27.61-33-72.29-54.78-119-57.94s-94.54,12.33-127.42,41.25c-60.18,52.94-41.33,147-113.32,117.49C205.71,252.84,69.86,334,131.18,436.89c32.1,53.88,91.11,49.4,110.62,105.94,14.29,41.39-65.8,109.76-94.22,171.24-20.2,43.72,6.06,86.13,19.41,103.08,37.16,47.14,233.57-78,265.82-65.27C504.27,780.06,587.06,737.83,664.74,746.87Z"/><path class="cls-2" d="M333.8,374.59h456a14,14,0,0,1,14,14V661.24a0,0,0,0,1,0,0H318.77a0,0,0,0,1,0,0V389.61A15,15,0,0,1,333.8,374.59Z"/><path class="cls-3" d="M760.36,704.72H362.26a43.49,43.49,0,0,1-43.49-43.48H803.84A43.48,43.48,0,0,1,760.36,704.72Z"/><rect class="cls-2" x="516.98" y="704.72" width="88.02" height="73.25"/><rect class="cls-4" x="516.98" y="704.72" width="88.02" height="23.22"/><path class="cls-5" d="M662.73,805.83H459.25A27.93,27.93,0,0,1,487.11,778H634.87a27.93,27.93,0,0,1,27.86,27.86Z"/><path class="cls-3" d="M775.27,395.48H346.71a7.62,7.62,0,0,0-7.6,7.6V626a7.62,7.62,0,0,0,7.6,7.6H775.27a7.62,7.62,0,0,0,7.6-7.6V403.08A7.62,7.62,0,0,0,775.27,395.48Z"/><path class="cls-6" d="M573,681.52a13.72,13.72,0,1,1-13.71-13.72A13.71,13.71,0,0,1,573,681.52Z"/><path class="cls-7" d="M648.3,523.4l24.55-24.56a1.66,1.66,0,0,0-2.35-2.35L646,521.05,620.89,496a1.66,1.66,0,1,0-2.35,2.35L643.6,523.4l-25.06,25.06a1.66,1.66,0,0,0,1.17,2.83,1.68,1.68,0,0,0,1.18-.48L646,525.75,670.5,550.3a1.65,1.65,0,0,0,1.18.49,1.63,1.63,0,0,0,1.17-.49,1.66,1.66,0,0,0,0-2.35Z"/><path class="cls-7" d="M485,523.4l24.56-24.56a1.66,1.66,0,0,0-2.35-2.35l-24.56,24.56L457.6,496a1.66,1.66,0,1,0-2.34,2.35l25.05,25.06-25.05,25.06a1.66,1.66,0,0,0,1.17,2.83,1.64,1.64,0,0,0,1.17-.48l25.06-25.06,24.56,24.55a1.63,1.63,0,0,0,1.17.49,1.67,1.67,0,0,0,1.18-2.84Z"/><line class="cls-8" x1="604.78" y1="426.52" x2="690.93" y2="454.9"/><line class="cls-8" x1="444.27" y1="474.7" x2="532.64" y2="454.2"/><polyline class="cls-8" points="464.2 583.63 482.4 606.56 492.57 578.9 523.48 605.7 532.36 581.82 560.35 600.97 574.08 574.17 588.25 608.61 616.12 588.77 632.81 608.81 664.85 579.56"/></g></svg>