<svg xmlns="http://www.w3.org/2000/svg" viewBox="0 0 1000 1000"><defs><style>.cls-1{fill:#28b8d4;opacity:0.05;}.cls-2{fill:#006981;}.cls-3{fill:#e6eaed;}.cls-4{fill:#005065;}.cls-5{fill:#0081a0;}.cls-6{fill:#b9b9b9;}.cls-7{fill:none;}.cls-7,.cls-8{stroke:#003340;stroke-miterlimit:10;stroke-width:2px;}.cls-8{fill:#003340;}.cls-9{fill:#fff;}</style></defs><g id="_5" data-name="5"><path class="cls-1" d="M696.52,669.35c27.16,3.16,53.71,12.64,81,10.77,24.2-1.65,46.48-12.15,65.86-24.84C961.2,578.16,986.76,403,880.45,307.14a163.53,163.53,0,0,0-24.86-18.52c-26.15-15.83-56.86-26.07-80.05-45.07-42.09-34.5-50.73-90-84.75-130.72-27.62-33-72.3-54.78-119-57.94S477.27,67.22,444.39,96.14c-60.19,52.94-41.34,147-113.32,117.49C237.49,175.32,101.63,256.46,163,359.37c32.1,53.88,91.11,49.4,110.62,105.94,14.28,41.39-65.8,109.76-94.22,171.24-20.21,43.72,6.06,86.13,19.41,103.08,37.16,47.14,233.57-78,265.81-65.27C536,702.54,618.83,660.31,696.52,669.35Z"/><path class="cls-2" d="M365.57,297.07h456a14,14,0,0,1,14,14V583.72a0,0,0,0,1,0,0H350.55a0,0,0,0,1,0,0V312.09A15,15,0,0,1,365.57,297.07Z"/><path class="cls-3" d="M792.14,627.2H394a43.48,43.48,0,0,1-43.48-43.48H835.62A43.48,43.48,0,0,1,792.14,627.2Z"/><rect class="cls-2" x="548.76" y="627.2" width="88.02" height="73.25"/><rect class="cls-4" x="548.76" y="627.2" width="88.02" height="23.22"/><path class="cls-5" d="M499.24,700.45H686.3a8.22,8.22,0,0,1,8.22,8.22v19.65a0,0,0,0,1,0,0H491a0,0,0,0,1,0,0V708.66a8.22,8.22,0,0,1,8.22-8.22Z"/><path class="cls-3" d="M807.05,318H378.49a7.62,7.62,0,0,0-7.6,7.6V548.47a7.62,7.62,0,0,0,7.6,7.6H807.05a7.62,7.62,0,0,0,7.6-7.6V325.56A7.62,7.62,0,0,0,807.05,318Z"/><path class="cls-6" d="M604.77,604a13.72,13.72,0,1,1-13.72-13.72A13.72,13.72,0,0,1,604.77,604Z"/><path class="cls-7" d="M634.28,376.77c34.19-10.33,64.67-11,90.7,0"/><line class="cls-7" x1="474.88" y1="386.72" x2="565.59" y2="387.14"/><circle class="cls-7" cx="680.73" cy="450.17" r="36.75"/><circle class="cls-7" cx="511.57" cy="450.4" r="36.75"/><circle class="cls-8" cx="511.57" cy="450.4" r="22.19"/><ellipse class="cls-9" cx="501.24" cy="435.89" rx="9.03" ry="8.52"/><circle class="cls-8" cx="680.73" cy="450.17" r="22.19"/><ellipse class="cls-9" cx="687.7" cy="434.02" rx="9.03" ry="8.52"/><line class="cls-7" x1="466.18" y1="523.79" x2="734.11" y2="523.79"/></g></svg>