<?xml version="1.0" encoding="UTF-8" standalone="no"?>
<!-- Created with Inkscape (http://www.inkscape.org/) -->

<svg
   xmlns:dc="http://purl.org/dc/elements/1.1/"
   xmlns:cc="http://creativecommons.org/ns#"
   xmlns:rdf="http://www.w3.org/1999/02/22-rdf-syntax-ns#"
   xmlns:svg="http://www.w3.org/2000/svg"
   xmlns="http://www.w3.org/2000/svg"
   xmlns:sodipodi="http://sodipodi.sourceforge.net/DTD/sodipodi-0.dtd"
   xmlns:inkscape="http://www.inkscape.org/namespaces/inkscape"
   width="235.89777"
   height="205.20619"
   viewBox="0 0 62.414616 54.29414"
   version="1.1"
   id="svg33024"
   inkscape:version="0.92.4 (5da689c313, 2019-01-14)"
   sodipodi:docname="face_desktop_404.svg">
  <defs
     id="defs33018" />
  <sodipodi:namedview
     id="base"
     pagecolor="#ffffff"
     bordercolor="#666666"
     borderopacity="1.0"
     inkscape:pageopacity="0.0"
     inkscape:pageshadow="2"
     inkscape:zoom="0.35"
     inkscape:cx="240.80602"
     inkscape:cy="285.46026"
     inkscape:document-units="px"
     inkscape:current-layer="layer1"
     showgrid="false"
     units="px"
     fit-margin-top="0"
     fit-margin-left="0"
     fit-margin-right="0"
     fit-margin-bottom="0"
     inkscape:window-width="1366"
     inkscape:window-height="705"
     inkscape:window-x="1912"
     inkscape:window-y="296"
     inkscape:window-maximized="1" />
  <metadata
     id="metadata33021">
    <rdf:RDF>
      <cc:Work
         rdf:about="">
        <dc:format>image/svg+xml</dc:format>
        <dc:type
           rdf:resource="http://purl.org/dc/dcmitype/StillImage" />
        <dc:title></dc:title>
      </cc:Work>
    </rdf:RDF>
  </metadata>
  <g
     inkscape:label="Capa 1"
     inkscape:groupmode="layer"
     id="layer1"
     transform="translate(-42.120074,-170.06721)">
    <path
       style="opacity:0.05;fill:#28b8d4;stroke-width:0.26458332"
       inkscape:connector-curvature="0"
       id="path29806"
       d="m 84.947914,218.03645 c 2.116666,0.24606 4.188354,0.9869 6.320895,0.84138 1.88648,-0.12965 3.624792,-0.94721 5.135563,-1.93675 9.191628,-6.01663 11.186588,-19.685 2.891896,-27.16213 a 12.565062,12.565062 0 0 0 -1.939396,-1.44462 c -2.039938,-1.23561 -4.434417,-2.032 -6.244167,-3.51632 -3.283479,-2.69081 -3.96875,-7.02204 -6.614583,-10.19704 -2.153708,-2.57704 -5.640917,-4.27302 -9.281583,-4.52173 -3.640667,-0.24871 -7.376584,0.96309 -9.940397,3.21998 -4.696354,4.13015 -3.22527,11.4644 -8.842375,9.16517 -7.299853,-2.98979 -17.899062,3.34169 -13.115395,11.37708 2.505604,4.20423 7.109354,3.85498 8.630708,8.26559 1.113896,3.22791 -5.132916,8.56191 -7.350125,13.35881 -1.5875,3.41048 0.473605,6.72041 1.513417,8.04333 2.910417,3.67771 18.221854,-6.08542 20.738041,-5.09323 5.577417,2.19604 12.035896,-1.10331 18.097501,-0.39952 z"
       class="cls-185" />
    <path
       style="fill:#006981;stroke-width:0.26458332"
       inkscape:connector-curvature="0"
       id="path29808"
       d="m 61.931809,188.99314 h 30.1625 a 3.7041667,3.7041667 0 0 1 3.704167,3.70417 v 18.65312 H 57.963059 v -18.38854 a 3.96875,3.96875 0 0 1 3.96875,-3.96875 z"
       class="cls-29" />
    <path
       style="fill:#e6eaed;stroke-width:0.26458332"
       inkscape:connector-curvature="0"
       id="path29810"
       d="M 92.406518,214.75033 H 61.349726 a 3.3946042,3.3946042 0 0 1 -3.391959,-3.39461 h 37.835417 a 3.3946042,3.3946042 0 0 1 -3.386666,3.39461 z"
       class="cls-186" />
    <rect
       style="fill:#006981;stroke-width:0.26458332"
       id="rect29812"
       height="5.7150002"
       width="6.8659377"
       y="214.75034"
       x="73.419991"
       class="cls-29" />
    <rect
       style="fill:#005065;stroke-width:0.26458332"
       id="rect29814"
       height="1.8123958"
       width="6.8659377"
       y="214.75034"
       x="73.419991"
       class="cls-31" />
    <path
       style="fill:#0081a0;stroke-width:0.26458332"
       inkscape:connector-curvature="0"
       id="path29816"
       d="m 84.791809,222.63756 h -15.875 a 2.1801667,2.1801667 0 0 1 2.17223,-2.17488 h 11.527895 a 2.1828125,2.1828125 0 0 1 2.174875,2.17488 z"
       class="cls-187" />
    <path
       style="fill:#e6eaed;stroke-width:0.26458332"
       inkscape:connector-curvature="0"
       id="path29818"
       d="M 93.570684,190.62297 H 60.135288 a 0.5953125,0.5953125 0 0 0 -0.592666,0.59267 v 17.39106 a 0.5953125,0.5953125 0 0 0 0.592666,0.59267 h 33.435396 a 0.5953125,0.5953125 0 0 0 0.592667,-0.59267 v -17.39106 a 0.5953125,0.5953125 0 0 0 -0.592667,-0.59267 z"
       class="cls-186" />
    <path
       style="fill:#b9b9b9;stroke-width:0.26458332"
       inkscape:connector-curvature="0"
       id="path29820"
       d="m 77.790934,212.93793 a 1.0583333,1.0583333 0 1 1 -1.071562,-1.05833 1.0583333,1.0583333 0 0 1 1.071562,1.05833 z"
       class="cls-188" />
    <path
       style="fill:#003340;stroke:#003340;stroke-width:0.20637499px;stroke-linecap:round;stroke-linejoin:round"
       inkscape:connector-curvature="0"
       id="path29822"
       d="m 83.664684,200.60306 1.915584,-1.91559 a 0.12964583,0.12964583 0 1 0 -0.182563,-0.18256 l -1.915583,1.91558 -1.955271,-1.95527 a 0.12964583,0.12964583 0 0 0 -0.182562,0 0.12435417,0.12435417 0 0 0 0,0.18256 l 1.952625,1.95528 -1.952625,1.95527 a 0.12435417,0.12435417 0 0 0 0,0.18256 0.1190625,0.1190625 0 0 0 0.08996,0.037 0.12435417,0.12435417 0 0 0 0.0926,-0.037 l 1.955271,-1.95527 1.915583,1.91558 a 0.12170833,0.12170833 0 0 0 0.08996,0.0397 0.13229167,0.13229167 0 0 0 0.0926,-0.22225 z"
       class="cls-189" />
    <path
       style="fill:#003340;stroke:#003340;stroke-width:0.20637499px;stroke-linecap:round;stroke-linejoin:round"
       inkscape:connector-curvature="0"
       id="path29824"
       d="m 70.924997,200.60306 1.915583,-1.91559 a 0.12435417,0.12435417 0 0 0 0,-0.18256 0.12964583,0.12964583 0 0 0 -0.182562,0 l -1.915584,1.91558 -1.95527,-1.95527 a 0.12964583,0.12964583 0 0 0 -0.182563,0.18256 l 1.955271,1.95528 -1.955271,1.95527 a 0.12964583,0.12964583 0 0 0 0,0.18256 0.12435417,0.12435417 0 0 0 0.0926,0.037 0.1190625,0.1190625 0 0 0 0.08996,-0.037 l 1.95527,-1.95527 1.915584,1.91558 a 0.12964583,0.12964583 0 0 0 0.0926,0.0397 0.12170833,0.12170833 0 0 0 0.08996,-0.0397 0.12435417,0.12435417 0 0 0 0,-0.18256 z"
       class="cls-189" />
    <line
       style="fill:none;stroke:#003340;stroke-width:0.52916664px;stroke-miterlimit:10"
       id="line29826"
       y2="193.88794"
       x2="87.167793"
       y1="193.88794"
       x1="80.092842"
       class="cls-190" />
    <line
       style="fill:none;stroke:#003340;stroke-width:0.52916664px;stroke-miterlimit:10"
       id="line29828"
       y2="196.00461"
       x2="74.732376"
       y1="196.00461"
       x1="67.657425"
       class="cls-190" />
    <line
       style="fill:none;stroke:#003340;stroke-width:0.52916664px;stroke-miterlimit:10"
       id="line29830"
       y2="205.37616"
       x2="87.38736"
       y1="205.37616"
       x1="66.540825"
       class="cls-190" />
  </g>
</svg>
