<svg xmlns="http://www.w3.org/2000/svg" width="235.894" height="205.184" viewBox="0 0 62.414 54.288"><path d="M42.825 47.966c2.117.249 4.191.987 6.321.841 1.887-.13 3.625-.947 5.139-1.936 9.191-6.017 11.183-19.685 2.891-27.162a13.004 13.004 0 00-1.939-1.445c-2.04-1.233-4.437-2.032-6.247-3.516-3.283-2.691-3.969-7.022-6.614-10.197C40.222 1.974 36.737.278 33.094.03c-3.643-.246-7.374.96-9.94 3.218-4.697 4.13-3.226 11.464-8.84 9.165-7.303-2.987-17.9 3.342-13.116 11.377 2.503 4.202 7.107 3.852 8.631 8.263 1.114 3.23-5.135 8.565-7.353 13.359-1.574 3.41.474 6.72 1.516 8.043 2.91 3.678 18.222-6.085 20.736-5.093 5.58 2.193 12.038-1.087 18.097-.397z" class="cls-197" opacity=".1" fill="#6cb6d1"/><path d="M19.812 18.923h30.162a3.704 3.704 0 013.705 3.704V41.28H15.843V22.892a3.969 3.969 0 013.969-3.97z" class="cls-198" fill="#3b697f"/><path d="M50.287 44.68H19.235a3.392 3.392 0 01-3.392-3.392H53.68a3.392 3.392 0 01-3.392 3.392z" class="cls-199" fill="#e5e8eb"/><path class="cls-198" fill="#3b697f" d="M31.3 44.68h6.866v5.715H31.3z"/><path class="cls-200" fill="#2e5164" d="M31.3 44.68h6.866v1.812H31.3z"/><path d="M42.67 52.567H26.793a2.183 2.183 0 012.175-2.175h11.528a2.18 2.18 0 012.172 2.175z" class="cls-201" fill="#48809c"/><path d="M51.448 20.553H18.015a.593.593 0 00-.592.592v17.4a.595.595 0 00.592.592h33.433a.593.593 0 00.595-.593V21.156a.593.593 0 00-.595-.603z" class="cls-199" fill="#e5e8eb"/><path d="M35.668 42.87a1.058 1.058 0 11-1.058-1.058 1.058 1.058 0 011.058 1.058z" class="cls-202" fill="#b7b7b7"/><path d="M38.002 23.69c2.294-.052 4.614.456 6.953 1.308M25.625 24.968a16.222 16.222 0 016.966-1.251M37.177 28.58c2.267-2.117 4.161-1.828 5.847 0M27.654 28.58c2.014-1.828 3.921-1.646 5.752 0M24.741 32.062c.15-.878.892-1.24 2.059-1.23M45.315 32.062c-.15-.878-.892-1.24-2.061-1.23M25.421 31.165c4.559 3.754 13.59 4.106 19.204 0M25.53 31.371c4.569 8.943 14.565 8.864 19.079-.116" class="cls-203" fill="none" stroke="#1f3642" stroke-width=".529" stroke-miterlimit="10"/></svg>