<svg xmlns="http://www.w3.org/2000/svg" width="185.534" height="202.805" viewBox="0 0 49.089 53.659"><path d="M33.683 37.728c1.667.194 3.297.776 4.972.662 1.484-.1 2.852-.746 4.04-1.524 7.229-4.734 8.798-15.484 2.276-21.363a10.025 10.025 0 00-1.527-1.135c-1.603-.97-3.487-1.587-4.91-2.765-2.583-2.116-3.115-5.524-5.202-8.022-1.694-2.026-4.435-3.36-7.3-3.556-2.866-.196-5.8.757-7.819 2.532-3.704 3.25-2.537 9.017-6.953 7.21C5.519 7.415-2.818 12.395.941 18.71c1.971 3.305 5.59 3.03 6.79 6.498.875 2.54-4.038 6.737-5.782 10.507-1.24 2.683.37 5.292 1.19 6.326 2.282 2.892 14.333-4.786 16.31-4.006 4.39 1.741 9.47-.836 14.234-.307z" class="cls-68" opacity=".1" fill="#28b8d4"/><path d="M15.12 10.968h22.077a3.704 3.704 0 013.704 3.705v34.432a4.553 4.553 0 01-4.553 4.554H15.7a4.553 4.553 0 01-4.554-4.554v-34.16a3.969 3.969 0 013.974-3.977z" class="cls-34" fill="#006981"/><path d="M37.718 14.08h-23.6c-.23 0-.419.481-.419 1.058V46.46c0 .587.188 1.058.419 1.058h23.6c.23 0 .418-.482.418-1.058V15.149c0-.588-.187-1.07-.418-1.07z" class="cls-69" fill="#e6eaed"/><path d="M27.228 50.516a1.085 1.085 0 11-1.083-1.082 1.082 1.082 0 011.083 1.082z" class="cls-70" fill="#b9b9b9"/><path d="M32.323 30.444l1.916-1.915a.13.13 0 000-.183.124.124 0 00-.182 0l-1.916 1.916-1.955-1.955a.13.13 0 00-.183 0 .124.124 0 000 .182l1.953 1.955-1.953 1.956a.124.124 0 000 .182.12.12 0 00.09.037.124.124 0 00.093-.037l1.955-1.955 1.916 1.916a.122.122 0 00.09.04.132.132 0 00.092-.223zM19.59 30.444l1.915-1.915a.13.13 0 00-.183-.183l-1.915 1.916-1.956-1.955a.13.13 0 00-.182.182l1.955 1.955-1.955 1.956a.13.13 0 000 .182.124.124 0 00.092.037.12.12 0 00.09-.037l1.956-1.955 1.915 1.916a.13.13 0 00.093.04.122.122 0 00.09-.04.124.124 0 000-.183z" class="cls-72" fill="#143642" stroke="#143642" stroke-width=".206" stroke-linecap="round" stroke-linejoin="round"/><path class="cls-73" fill="none" stroke="#143642" stroke-width=".529" stroke-miterlimit="10" d="M28.93 22.885l6.72 2.215M16.406 26.645l6.895-1.598"/><path class="cls-73" fill="none" stroke="#143642" stroke-width=".52916" stroke-miterlimit="10" d="M17.962 35.143l1.418 1.789.794-2.156 2.41 2.09L23.28 35l2.183 1.494 1.071-2.09 1.104 2.688 2.175-1.547 1.301 1.56 2.5-2.28"/></svg>