<?xml version="1.0" encoding="UTF-8" standalone="no"?>
<!-- Created with Inkscape (http://www.inkscape.org/) -->

<svg
   xmlns:dc="http://purl.org/dc/elements/1.1/"
   xmlns:cc="http://creativecommons.org/ns#"
   xmlns:rdf="http://www.w3.org/1999/02/22-rdf-syntax-ns#"
   xmlns:svg="http://www.w3.org/2000/svg"
   xmlns="http://www.w3.org/2000/svg"
   xmlns:sodipodi="http://sodipodi.sourceforge.net/DTD/sodipodi-0.dtd"
   xmlns:inkscape="http://www.inkscape.org/namespaces/inkscape"
   width="200.10184"
   height="218.65125"
   viewBox="0 0 52.94361 57.851477"
   version="1.1"
   id="svg36688"
   inkscape:version="0.92.4 (5da689c313, 2019-01-14)"
   sodipodi:docname="face_mobile_404.svg">
  <defs
     id="defs36682" />
  <sodipodi:namedview
     id="base"
     pagecolor="#ffffff"
     bordercolor="#666666"
     borderopacity="1.0"
     inkscape:pageopacity="0.0"
     inkscape:pageshadow="2"
     inkscape:zoom="0.35"
     inkscape:cx="188.62235"
     inkscape:cy="-93.531503"
     inkscape:document-units="px"
     inkscape:current-layer="layer1"
     showgrid="false"
     units="px"
     fit-margin-top="0"
     fit-margin-left="0"
     fit-margin-right="0"
     fit-margin-bottom="0"
     inkscape:window-width="1366"
     inkscape:window-height="705"
     inkscape:window-x="1912"
     inkscape:window-y="296"
     inkscape:window-maximized="1" />
  <metadata
     id="metadata36685">
    <rdf:RDF>
      <cc:Work
         rdf:about="">
        <dc:format>image/svg+xml</dc:format>
        <dc:type
           rdf:resource="http://purl.org/dc/dcmitype/StillImage" />
        <dc:title></dc:title>
      </cc:Work>
    </rdf:RDF>
  </metadata>
  <g
     inkscape:label="Capa 1"
     inkscape:groupmode="layer"
     id="layer1"
     transform="translate(-55.927004,-66.234976)">
    <path
       style="opacity:0.1;fill:#28b8d4;stroke-width:0.26458332"
       inkscape:connector-curvature="0"
       id="path35522"
       d="m 92.252536,106.92822 c 1.799167,0.21167 3.556,0.83873 5.363104,0.71438 1.60073,-0.10848 3.07446,-0.79375 4.35769,-1.64306 7.79727,-5.10646 9.4906,-16.700505 2.45269,-23.042568 a 10.691812,10.691812 0 0 0 -1.64571,-1.227667 c -1.73038,-1.058333 -3.762378,-1.725083 -5.29167,-2.981854 -2.786062,-2.283354 -3.357562,-5.958417 -5.609166,-8.651875 -1.828271,-2.185458 -4.786313,-3.624792 -7.876646,-3.833812 -3.090334,-0.209021 -6.254751,0.814916 -8.432272,2.730499 -3.96875,3.503084 -2.735791,9.726084 -7.500937,7.776105 -6.193896,-2.537355 -15.184438,2.833687 -11.125729,9.644062 2.116666,3.566584 6.029854,3.27025 7.32102,7.01146 0.947209,2.741083 -4.355041,7.26546 -6.236229,11.33475 -1.322916,2.89454 0.402167,5.70177 1.285875,6.8236 2.457979,3.11944 15.459604,-5.16202 17.592146,-4.32064 4.728104,1.86531 10.207626,-0.93134 15.345834,-0.33338 z"
       class="cls-171" />
    <path
       style="fill:#003340;stroke:#003340;stroke-width:0.20637499px;stroke-linecap:round;stroke-linejoin:round"
       inkscape:connector-curvature="0"
       id="path35524"
       d="m 90.246995,99.548994 1.915583,-1.915583 a 0.12435417,0.12435417 0 0 0 0,-0.182563 0.12964583,0.12964583 0 0 0 -0.182563,0 l -1.915583,1.915584 -1.955271,-1.955271 a 0.12964583,0.12964583 0 0 0 -0.182562,0.182562 l 1.955271,1.955271 -1.955271,1.955266 a 0.13229167,0.13229167 0 0 0 0.0926,0.22225 0.12170833,0.12170833 0 0 0 0.08996,-0.0397 l 1.955271,-1.95262 1.915583,1.91558 a 0.13758333,0.13758333 0 0 0 0.0926,0.037 0.12964583,0.12964583 0 0 0 0.08996,-0.037 0.127,0.127 0 0 0 0,-0.18521 z"
       class="cls-175" />
    <path
       style="fill:#003340;stroke:#003340;stroke-width:0.20637499px;stroke-linecap:round;stroke-linejoin:round"
       inkscape:connector-curvature="0"
       id="path35526"
       d="m 77.509952,99.548994 1.915583,-1.915583 a 0.12964583,0.12964583 0 0 0 -0.182562,-0.182563 l -1.915583,1.915584 -1.955271,-1.955271 a 0.13229167,0.13229167 0 0 0 -0.185209,0 0.12964583,0.12964583 0 0 0 0,0.182562 l 1.955271,1.955271 -1.955271,1.960566 a 0.12964583,0.12964583 0 0 0 0,0.18256 0.13229167,0.13229167 0 0 0 0.0926,0.0397 0.12964583,0.12964583 0 0 0 0.0926,-0.0397 l 1.955271,-1.952626 1.915583,1.915586 a 0.12964583,0.12964583 0 0 0 0.08996,0.037 0.13758333,0.13758333 0 0 0 0.0926,-0.037 0.13229167,0.13229167 0 0 0 0,-0.18521 z"
       class="cls-175" />
    <path
       style="fill:#006981;stroke-width:0.26458332"
       inkscape:connector-curvature="0"
       id="path35528"
       d="m 71.919306,78.054243 h 24.418397 a 3.7041667,3.7041667 0 0 1 3.704167,3.704167 v 37.77456 a 4.5534792,4.5534792 0 0 1 -4.55348,4.55348 H 72.498744 a 4.5534792,4.5534792 0 0 1 -4.553479,-4.55348 V 82.028285 a 3.96875,3.96875 0 0 1 3.974041,-3.974042 z"
       class="cls-32" />
    <path
       style="fill:#e6eaed;stroke-width:0.26458332"
       inkscape:connector-curvature="0"
       id="path35530"
       d="M 96.607578,81.401222 H 71.149369 c -0.246063,0 -0.449792,0.529167 -0.449792,1.150938 v 33.77406 c 0,0.63236 0.203729,1.15094 0.449792,1.15094 h 25.458209 c 0.248708,0 0.452437,-0.52917 0.452437,-1.15094 V 82.560097 c 0,-0.629708 -0.203729,-1.158875 -0.452437,-1.158875 z"
       class="cls-172" />
    <path
       style="fill:#b9b9b9;stroke-width:0.26458332"
       inkscape:connector-curvature="0"
       id="path35532"
       d="m 85.291349,120.71037 a 1.1694583,1.1694583 0 1 1 -1.166813,-1.16681 1.1694583,1.1694583 0 0 1 1.166813,1.16681 z"
       class="cls-173" />
    <path
       style="fill:#003340;stroke:#003340;stroke-width:0.20637499px;stroke-linecap:round;stroke-linejoin:round"
       inkscape:connector-curvature="0"
       id="path35534"
       d="m 90.172911,99.464328 1.915584,-1.915584 a 0.12964583,0.12964583 0 1 0 -0.182563,-0.182562 l -1.915583,1.915583 -1.955271,-1.955271 a 0.12964583,0.12964583 0 0 0 -0.182563,0.182563 l 1.955271,1.955271 -1.955271,1.955272 a 0.12964583,0.12964583 0 0 0 0,0.18256 0.12435417,0.12435417 0 0 0 0.0926,0.0397 0.12170833,0.12170833 0 0 0 0.08996,-0.0397 l 1.955271,-1.952624 1.915583,1.915584 a 0.13758333,0.13758333 0 0 0 0.0926,0.037 0.12964583,0.12964583 0 0 0 0.08996,-0.037 0.13229167,0.13229167 0 0 0 0,-0.18521 z"
       class="cls-175" />
    <path
       style="fill:#003340;stroke:#003340;stroke-width:0.20637499px;stroke-linecap:round;stroke-linejoin:round"
       inkscape:connector-curvature="0"
       id="path35536"
       d="m 77.435869,99.464328 1.915583,-1.915584 a 0.12964583,0.12964583 0 0 0 0,-0.182562 0.13229167,0.13229167 0 0 0 -0.185208,0 l -1.915584,1.915583 -1.952625,-1.955271 a 0.13229167,0.13229167 0 0 0 -0.185208,0 0.12964583,0.12964583 0 0 0 0,0.182563 l 1.955271,1.955271 -1.955271,1.955272 a 0.13229167,0.13229167 0 0 0 0.0926,0.22225 0.13229167,0.13229167 0 0 0 0.0926,-0.0397 l 1.952625,-1.952627 1.915584,1.915587 a 0.142875,0.142875 0 0 0 0.0926,0.037 0.13758333,0.13758333 0 0 0 0.0926,-0.037 0.13229167,0.13229167 0 0 0 0,-0.18521 z"
       class="cls-175" />
    <line
       style="fill:none;stroke:#003340;stroke-width:0.52916664px;stroke-miterlimit:10"
       id="line35538"
       y2="92.220039"
       x2="93.678642"
       y1="92.220039"
       x1="86.601036"
       class="cls-174" />
    <line
       style="fill:none;stroke:#003340;stroke-width:0.52916664px;stroke-miterlimit:10"
       id="line35540"
       y2="94.3367"
       x2="81.243225"
       y1="94.3367"
       x1="74.165619"
       class="cls-174" />
    <line
       style="fill:none;stroke:#003340;stroke-width:0.52916664px;stroke-miterlimit:10"
       id="line35542"
       y2="106.88326"
       x2="93.898247"
       y1="106.88326"
       x1="73.04908"
       class="cls-174" />
  </g>
</svg>
