<svg xmlns="http://www.w3.org/2000/svg" width="235.898" height="205.184" viewBox="0 0 62.415 54.288"><g transform="translate(-26.11 -88.838)"><path d="M68.938 136.807c2.116.246 4.188.984 6.318.839 1.889-.127 3.627-.947 5.138-1.937 9.192-6.017 11.187-19.685 2.892-27.16a12.885 12.885 0 00-1.94-1.447c-2.04-1.233-4.434-2.032-6.244-3.513-3.283-2.694-3.968-7.025-6.614-10.2-2.154-2.574-5.641-4.273-9.282-4.52-3.64-.245-7.376.961-9.943 3.218-4.694 4.13-3.222 11.465-8.84 9.165-7.3-2.987-17.899 3.342-13.115 11.377 2.506 4.202 7.11 3.853 8.63 8.263 1.115 3.231-5.132 8.565-7.35 13.36-1.587 3.412.472 6.72 1.514 8.043 2.91 3.677 18.222-6.086 20.738-5.094 5.577 2.194 12.036-1.1 18.098-.394z" class="cls-204" opacity=".1" fill="#28b8d4"/><path d="M45.921 107.761h30.163a3.704 3.704 0 013.704 3.704v18.653H41.953V111.73a3.969 3.969 0 013.968-3.969z" class="cls-50" fill="#006981"/><path d="M76.396 133.518H45.34a3.392 3.392 0 01-3.392-3.392h37.836a3.392 3.392 0 01-3.387 3.392z" class="cls-131" fill="#e6eaed"/><path class="cls-50" fill="#006981" d="M57.41 133.518h6.866v5.715H57.41z"/><path class="cls-52" fill="#005065" d="M57.41 133.518h6.866v1.812H57.41z"/><path d="M55.079 139.23h11.528a2.175 2.175 0 012.174 2.176H52.906a2.175 2.175 0 012.173-2.175z" class="cls-167" fill="#0081a0"/><path d="M77.56 109.394H44.125a.595.595 0 00-.593.592v17.389a.593.593 0 00.593.592H77.56a.593.593 0 00.593-.592v-17.389a.595.595 0 00-.593-.592z" class="cls-131" fill="#e6eaed"/><path d="M61.78 131.709a1.058 1.058 0 11-1.071-1.072 1.072 1.072 0 011.072 1.072z" class="cls-205" fill="#b9b9b9"/><path d="M64.082 113.981c2.667-.806 5.046-.857 7.075 0M51.647 114.757l7.075.031" class="cls-206" fill="none" stroke="#003340" stroke-width=".529" stroke-miterlimit="10"/><circle r="2.865" cy="119.707" cx="67.705" class="cls-206" fill="none" stroke="#003340" stroke-width=".529" stroke-miterlimit="10"/><circle r="2.865" cy="119.726" cx="54.507" class="cls-206" fill="none" stroke="#003340" stroke-width=".529" stroke-miterlimit="10"/><circle r="1.73" cy="119.726" cx="54.507" class="cls-207" fill="#003340" stroke="#003340" stroke-width=".529" stroke-miterlimit="10"/><ellipse ry=".664" rx=".704" cy="118.593" cx="53.703" class="cls-3" fill="#fff"/><circle r="1.73" cy="119.707" cx="67.705" class="cls-207" fill="#003340" stroke="#003340" stroke-width=".529" stroke-miterlimit="10"/><ellipse ry=".664" rx=".704" cy="118.445" cx="68.25" class="cls-3" fill="#fff"/><path class="cls-206" fill="none" stroke="#003340" stroke-width=".529" stroke-miterlimit="10" d="M50.967 125.451h20.902"/></g></svg>