<svg xmlns="http://www.w3.org/2000/svg" viewBox="0 0 1000 1000"><defs><style>.cls-1{fill:#143642;}</style></defs><title>22</title><g id="_1" data-name="1"><path class="cls-1" d="M860.66,122.54H181.77a60.62,60.62,0,0,0-60.56,60.55V862a60.62,60.62,0,0,0,60.56,60.55H860.66A60.62,60.62,0,0,0,921.21,862V183.09A60.62,60.62,0,0,0,860.66,122.54Zm-678.89,34.6H860.66a26,26,0,0,1,26,26V563.57L706.46,383.43a17.3,17.3,0,0,0-24.47,0l-271.8,271.8L297,542a15.57,15.57,0,0,0-2.18-1.45,16.73,16.73,0,0,0-2.88-1.91,16.51,16.51,0,0,0-3.15-.93,17,17,0,0,0-3.21-.62,16.43,16.43,0,0,0-3.28.32,16.81,16.81,0,0,0-3.22.62,17.08,17.08,0,0,0-3,1.63,16.16,16.16,0,0,0-2.32,1.24l-117.9,97.65V183.09A26,26,0,0,1,181.77,157.14Zm678.89,730.8H181.77a26,26,0,0,1-26-26V683.51L283.66,577.63,398,691.93a17.3,17.3,0,0,0,24.47,0l271.8-271.8L886.61,612.51V862A26,26,0,0,1,860.66,887.94Z"/><path class="cls-1" d="M326.89,409.76a87.31,87.31,0,1,0-87.31-87.31A87.4,87.4,0,0,0,326.89,409.76Zm0-140a52.71,52.71,0,1,1-52.71,52.71A52.77,52.77,0,0,1,326.89,269.74Z"/></g></svg>