<svg xmlns="http://www.w3.org/2000/svg" viewBox="0 0 1000 1000"><defs><style>.cls-1{fill:#143642}</style></defs><g id="_1" data-name="1"><path class="cls-1" d="M538.49 278.59A19.55 19.55 0 00519 298.13v213.94a19.75 19.75 0 005.72 13.82l185.9 185.9a19.54 19.54 0 1027.64-27.64L558 504V298.13a19.56 19.56 0 00-19.51-19.54z"/><path class="cls-1" d="M539.9 100.81a399.27 399.27 0 00-274.72 108.93 16.26 16.26 0 00-1.1 1.26l-73.28-31a28.92 28.92 0 00-39.67 32.29l34.48 174.2a28.93 28.93 0 0044.16 18.66l149-96.65a29 29 0 00-4.5-50.94L301.89 227a362 362 0 01238-88.8c200.43 0 363.51 163.06 363.51 363.5S740.33 865.18 539.9 865.18c-188.42 0-344-141.23-361.84-328.52a18.68 18.68 0 10-37.2 3.55c19.7 206.57 191.25 362.34 399 362.34 221 0 400.87-179.83 400.87-400.87S760.94 100.81 539.9 100.81zM205.55 382.57l8.66-1.7-34.76-174 183.43 77.21-148.67 96.8z"/></g></svg>