<svg xmlns="http://www.w3.org/2000/svg" height="100" width="100" id="svg20" version="1.1"><defs id="defs7"><clipPath id="clip-path"><circle id="circle4" r="140.55" cy="-219.9" cx="176.03" fill="none"/></clipPath><style id="style2"></style></defs><path d="M50 5C25.186 5 5 25.186 5 50s20.186 45 45 45 45-20.189 45-45S74.824 5 50 5zm0 3.536A41.503 41.503 0 0191.464 50C91.454 72.857 72.857 91.455 50 91.455v.009A41.506 41.506 0 018.536 50C8.536 27.143 27.134 8.536 50 8.536zm-.456 12.844c-1.64 0-2.967 1.025-2.967 2.311v37.405c0 1.276 1.327 2.311 2.967 2.311 1.639 0 2.967-1.035 2.967-2.311V23.69c0-1.276-1.328-2.31-2.967-2.31zm.406 50.406a3.14 3.14 0 00-3.09 3.24v.44A3.137 3.137 0 0050 78.618a3.137 3.137 0 003.137-3.15v-.44a3.14 3.14 0 00-3.187-3.24z" id="path13" stroke-width=".321"/></svg>