<svg xmlns="http://www.w3.org/2000/svg" viewBox="0 0 1000 1000"><defs><style>.cls-1{fill:#143642}</style></defs><g id="_1" data-name="1"><path class="cls-1" d="M841.68 233.46H686.94v-53.34a16.29 16.29 0 10-32.57 0v53.34H315.86v-53.34a16.29 16.29 0 10-32.57 0v53.34H128.55a43.48 43.48 0 00-43.44 43.42V863a43.49 43.49 0 0043.44 43.44h713.13A43.48 43.48 0 00885.11 863V276.88a43.47 43.47 0 00-43.43-43.42zM128.55 266h154.74v57.46a16.29 16.29 0 1032.57 0V266h338.51v57.46a16.29 16.29 0 1032.57 0V266h154.74a10.87 10.87 0 0110.86 10.85v86.55H117.69v-86.52A10.87 10.87 0 01128.55 266zm713.13 607.8H128.55a10.86 10.86 0 01-10.86-10.8V396h734.85v467a10.86 10.86 0 01-10.86 10.83z"/><path class="cls-1" d="M519.5 631.77q18.74-7.21 29.74-21.92t11-34.3q0-33-20.89-51t-53.89-18q-33.52 0-53.9 18t-20.38 51q0 19.61 10.66 34.3t29.4 21.92q-21.66 7.58-34.38 23.72a58.59 58.59 0 00-12.73 37.31q0 34.73 22.44 53t59.23 18.31q36.1 0 58.71-18.31t22.61-53a57.91 57.91 0 00-13-37.31q-12.97-16.15-34.62-23.72zm-74.45-55.53q0-19.43 11.18-31.21t29.23-11.78q17.7 0 29.31 12.21t11.6 30.78q0 19.08-11.34 30.6t-29.23 11.52q-18.23 0-29.49-11.52t-11.26-30.6zm75.13 149.08q-13.18 12.2-34.38 12.19-21.66 0-34.73-12.1T438 692q0-20.58 13.15-33.8t34.31-13.2q20.79 0 34.38 13.21T533.42 692q0 21.14-13.24 33.32z"/></g></svg>