<svg xmlns="http://www.w3.org/2000/svg" height="69.105" width="100" id="svg56" version="1.1"><defs id="defs43"><style id="style41"></style></defs><path d="M14.241 5A9.253 9.253 0 005 14.241v40.623a9.253 9.253 0 009.241 9.241h71.518A9.253 9.253 0 0095 54.865V14.24A9.253 9.253 0 0085.759 5zm-.001 2.31a6.94 6.94 0 01.001 0h71.518a6.938 6.938 0 016.931 6.931v4.19H7.31v-4.19a6.94 6.94 0 016.93-6.931zM7.31 20.74h85.38v34.124a6.938 6.938 0 01-6.931 6.932H14.241a6.938 6.938 0 01-6.931-6.932zm69.302 13.805v2.041a3.769 3.769 0 00-2.406 1.155 3.565 3.565 0 00-.875 2.49 3.373 3.373 0 00.954 2.513c.633.628 1.573 1.13 2.818 1.505a5.146 5.146 0 011.94 1.055 1.932 1.932 0 01.591 1.416 1.956 1.956 0 01-.67 1.575 2.79 2.79 0 01-1.861.567 2.642 2.642 0 01-1.761-.61c-.478-.405-.716-1.082-.716-2.028h-1.758l-.019.045c-.024 1.282.303 2.254.982 2.916a4.22 4.22 0 002.607 1.16v1.765h1.451v-1.773a4.238 4.238 0 002.617-1.115 3.391 3.391 0 00.95-2.53 3.333 3.333 0 00-.913-2.47c-.612-.595-1.55-1.097-2.813-1.505-.97-.335-1.644-.687-2.02-1.055a1.962 1.962 0 01-.557-1.453 1.935 1.935 0 012.172-2.133 1.916 1.916 0 011.618.774 3.318 3.318 0 01.582 2.036h1.813c0-1.241-.285-2.229-.856-2.962a3.546 3.546 0 00-2.407-1.328v-2.05zm-64.37 4.375v.883h41.412v-.883zm0 9.153v.883h17.739v-.883z" id="path45" fill="#000" stroke-width=".305"/></svg>