<svg xmlns="http://www.w3.org/2000/svg" viewBox="0 0 1000 1000" class="cls-1"><g data-name="1"><path d="M919.55 185.26H726.38V147.1a41.88 41.88 0 00-41.83-41.83h-305.3a41.87 41.87 0 00-41.83 41.83v38.16H150.93a15.69 15.69 0 100 31.37H245v564.71a68 68 0 0068 68h437.78a68.05 68.05 0 0068-68V216.63h100.77a15.69 15.69 0 100-31.37zM368.79 147.1a10.47 10.47 0 0110.46-10.46h305.3A10.47 10.47 0 01695 147.1v38.16H368.79zm418.59 634.24a36.63 36.63 0 01-36.6 36.59H313a36.63 36.63 0 01-36.6-36.59V216.63h511z"/><path d="M395.67 323.07A15.69 15.69 0 00380 338.76V705a15.69 15.69 0 0031.37 0V338.76a15.69 15.69 0 00-15.7-15.69zM532.63 323.07a15.69 15.69 0 00-15.69 15.69V705a15.69 15.69 0 0031.37 0V338.76a15.69 15.69 0 00-15.68-15.69zM668.57 323.07a15.69 15.69 0 00-15.68 15.69V705a15.69 15.69 0 0031.37 0V338.76a15.69 15.69 0 00-15.69-15.69z"/></g></svg>