<svg xmlns="http://www.w3.org/2000/svg" viewBox="0 0 1000 1000"><defs><style>.cls-1{fill:#143642}</style></defs><g id="_1" data-name="1"><path class="cls-1" d="M851.82 714.35a18.08 18.08 0 00-18.08 18.08v162.69l-727.66.09V732.52a18.09 18.09 0 00-36.17 0v180.77A18.08 18.08 0 0088 931.37l763.81-.09a18.07 18.07 0 0018.08-18.08V732.43a18.09 18.09 0 00-18.07-18.08z"/><path class="cls-1" d="M442.47 798.63a33.16 33.16 0 0054.9 0L729 456.62a33.16 33.16 0 00-27.45-51.74H487.99V123.69a18.08 18.08 0 00-36.16 0v281.19H238.28a33.16 33.16 0 00-27.44 51.75zm253.36-357.58L469.91 774.66l-226-333.56z"/></g></svg>