<svg xmlns="http://www.w3.org/2000/svg" viewBox="0 0 1000 1000"><path d="M880.07 121.24a106.47 106.47 0 00-150.22 0l-41.52 41.52-525.18 525.17c-.2.2-.27.47-.45.68a16.89 16.89 0 00-2.61 3.91 13.94 13.94 0 00-.75 1.29c-.5 1-1.37 1.78-1.67 2.89l-46 171.69a17.35 17.35 0 0021.25 21.25l171.69-46c1.08-.29 1.83-1.15 2.82-1.63.4-.16.73-.46 1.12-.65a17.06 17.06 0 004.15-2.76c.21-.19.47-.25.67-.45L838.55 313l41.52-41.53a106.46 106.46 0 000-150.21zM153 848.33l30.45-113.62 83.18 83.18zm148.14-47L200 700.2l500.6-500.64 101.14 101.15zm554.39-554.41l-29.25 29.24L725.14 175l29.25-29.25a71.52 71.52 0 11101.14 101.17z" fill="#143642" data-name="1"/></svg>