<svg xmlns="http://www.w3.org/2000/svg" height="97.038" width="100"><path d="M86.617 5a8.425 8.425 0 00-5.949 2.453l-3.283 3.283-41.56 41.56a.613.613 0 00-.036.054 1.325 1.325 0 00-.205.308 1.125 1.125 0 00-.06.104c-.052.07-.095.147-.131.226l-3.641 13.586a1.373 1.373 0 001.678 1.684l13.586-3.643a1.2 1.2 0 00.222-.129c.032-.011.058-.034.088-.049.12-.056.231-.13.33-.218.017-.015.038-.021.053-.037l41.555-41.557 3.283-3.281a8.424 8.424 0 000-11.887l.008-.004A8.425 8.425 0 0086.617 5zm-.049 2.738c5.062-.038 7.624 6.08 4.045 9.66L88.3 19.713l-8.004-8.002 2.314-2.316a5.66 5.66 0 013.96-1.657zm-8.214 5.914l8.003 8.002L46.742 61.27l-8.006-8.002zM5 26.31v65.728h65.727V58.256c-.057-2.052-3.108-2.052-3.165 0v30.617H8.166V29.475h36.928c2.11 0 2.11-3.166 0-3.166zm32.43 29.689l6.582 6.582-8.992 2.408z"/></svg>