<svg xmlns="http://www.w3.org/2000/svg" viewBox="0 0 1000 1000"><path d="M130.41 594.78L380.16 764a38.7 38.7 0 0049-4.72A38.23 38.23 0 00440.39 732V585.39h454.49a18.57 18.57 0 0018.58-18.58s-.06-176.64-.11-236.43a21.09 21.09 0 00-1.68-7.41 17.34 17.34 0 00-16.79-11.13 19 19 0 00-17.13 11.35c-.94 2.22-1.46 7.23-1.46 7.23v217.8h-435.9V393.68a38.6 38.6 0 00-60.23-32L130.41 530.89a39.09 39.09 0 00-5.7 4.71 38.59 38.59 0 005.7 59.18zM151.26 564a1.24 1.24 0 01-.61-1 1.41 1.41 0 01.35-1.12 2 2 0 01.26-.21L401 392.51a1.4 1.4 0 012.2 1.16V732a1.17 1.17 0 01-.34.93 1.39 1.39 0 01-1.87.23z" fill="#143642" data-name="1"/></svg>