<svg xmlns="http://www.w3.org/2000/svg" viewBox="0 0 1000 1000"><defs><style>.cls-1{fill:#143642}</style></defs><g id="_1" data-name="1"><path class="cls-1" d="M820.34 323.38a14.08 14.08 0 00-.49-2.25 14.36 14.36 0 00-.77-3.52 13.55 13.55 0 00-1.7-2.56 13.2 13.2 0 00-1.34-2l-.68-.69-180-181.66a14.2 14.2 0 00-4.25-2.86c-.45-.21-.9-.33-1.37-.5a14.36 14.36 0 00-3.72-.74 9.37 9.37 0 00-.92-.19H259a38.94 38.94 0 00-38.7 39.09v661.03a38.94 38.94 0 0038.7 39.09h522.59a39 39 0 0038.71-39.09V323.62c0-.08.04-.16.04-.24zm-49.62-14.65H649.27a9.74 9.74 0 01-9.67-9.73V176.4zm10.87 527.57H259a9.73 9.73 0 01-9.67-9.77V165.47a9.74 9.74 0 019.67-9.78h351.57V299a38.93 38.93 0 0038.7 39h142v488.53a9.73 9.73 0 01-9.68 9.77z"/><path class="cls-1" d="M322.92 291.8h197.4a14.66 14.66 0 000-29.31h-197.4a14.66 14.66 0 000 29.31zM625.08 411.93H322.92a14.66 14.66 0 000 29.32h302.16a14.66 14.66 0 000-29.32z"/></g></svg>