<svg xmlns="http://www.w3.org/2000/svg" viewBox="0 0 1000 1000"><path d="M907.08 236.51c-10.23-25.86-33.87-41.93-61.69-41.93h-667c-27.59 0-51.15 15.88-61.49 41.44s-4.46 53.37 15.37 72.56a16 16 0 001.24 1.08l251.2 195.21V699.4a32.29 32.29 0 0013.46 26.2c.25.18.51.36.78.53l192.5 120.52a31.89 31.89 0 0018.27 5.76A32.32 32.32 0 00642 820.14V504.82l247.76-194.67c.34-.27.68-.56 1-.86 20.29-19.03 26.55-46.91 16.32-72.78zm-36.65 50.2l-253 198.79a15.17 15.17 0 00-5.81 11.94v322.7a1.93 1.93 0 01-1.92 1.89 1.69 1.69 0 01-1-.37c-.26-.19-.52-.37-.78-.53L415.67 700.76a1.88 1.88 0 01-.59-1.36v-202a15.19 15.19 0 00-5.87-12L152.89 286.22c-12.31-12.36-12.13-28.1-7.8-38.81S160.55 225 178.43 225h667c18 0 29.1 11.74 33.44 22.73s4.27 26.71-8.44 38.98z" fill="#143642" data-name="1"/></svg>