<svg xmlns="http://www.w3.org/2000/svg" width="100" height="100"><path d="M50 5C25.187 5 5 25.187 5 50s20.187 45 45 45 45-20.187 45-45S74.813 5 50 5zm0 3.545C72.859 8.545 91.455 27.14 91.455 50c0 22.859-18.596 41.455-41.455 41.455C27.141 91.455 8.545 72.86 8.545 50 8.545 27.141 27.14 8.545 50 8.545zm-.611 14.428a18.134 18.134 0 00-3.903.466 17.812 17.812 0 00-3.601 1.262 19.07 19.07 0 00-3.03 1.809 21.574 21.574 0 00-2.48 2.115l1.018 1.625a.96.96 0 00.894.488c.19 0 .541-.237 1.057-.71a15.998 15.998 0 015.43-3.173c1.313-.474 2.867-.712 4.658-.712a12.664 12.664 0 013.984.63 10.443 10.443 0 013.375 1.83 8.747 8.747 0 012.318 2.926c.57 1.152.856 2.46.856 3.924 0 1.844-.333 3.43-.998 4.76a14.287 14.287 0 01-2.483 3.537 22.674 22.674 0 01-3.193 2.768 68.608 68.608 0 00-3.172 2.398 12.866 12.866 0 00-2.398 2.48 4.625 4.625 0 00-.856 3.01l.244 6.955h2.645l.45-6.67c.053-.921.427-1.761 1.118-2.521a17.76 17.76 0 012.543-2.258c1.002-.745 2.073-1.546 3.213-2.4a20.437 20.437 0 003.17-2.969 14.841 14.841 0 002.422-3.922c.637-1.492.955-3.269.955-5.33 0-1.897-.374-3.612-1.12-5.145a11.687 11.687 0 00-3.007-3.884 13.565 13.565 0 00-4.435-2.442 16.681 16.681 0 00-5.348-.847 18.134 18.134 0 00-.326 0zM48.23 69.508a3.542 3.542 0 00-1.38.306 3.962 3.962 0 00-1.184.819 3.6 3.6 0 00-.793 1.199 3.786 3.786 0 00-.285 1.463l.002-.008a3.683 3.683 0 003.744 3.736 3.825 3.825 0 001.463-.285 3.634 3.634 0 001.2-.787 3.971 3.971 0 00.814-1.18 3.554 3.554 0 00.304-1.484 3.6 3.6 0 00-.304-1.463 3.855 3.855 0 00-2.014-2.01 3.585 3.585 0 00-1.461-.306 3.542 3.542 0 00-.106 0z"/></svg>