<svg xmlns="http://www.w3.org/2000/svg" height="100" width="100"><path d="M50 5C25.187 5 5 25.187 5 50s20.187 45 45 45 45-20.187 45-45S74.813 5 50 5zm-.611 17.973h.326c1.817-.01 3.623.275 5.347.847a13.565 13.565 0 014.436 2.442 11.686 11.686 0 013.008 3.884c.745 1.533 1.118 3.248 1.119 5.145 0 2.061-.318 3.838-.955 5.33a14.84 14.84 0 01-2.422 3.922 20.437 20.437 0 01-3.17 2.969c-1.14.854-2.21 1.655-3.213 2.4a17.76 17.76 0 00-2.543 2.258c-.691.76-1.065 1.6-1.119 2.521l-.45 6.67H47.11l-.244-6.955a4.625 4.625 0 01.856-3.01 12.866 12.866 0 012.398-2.48 68.608 68.608 0 013.172-2.398 22.675 22.675 0 003.193-2.768 14.288 14.288 0 002.483-3.537c.665-1.33.999-2.916.998-4.76 0-1.465-.286-2.772-.856-3.924a8.747 8.747 0 00-2.318-2.925 10.443 10.443 0 00-3.375-1.83 12.663 12.663 0 00-3.984-.631c-1.79 0-3.345.238-4.659.712a15.998 15.998 0 00-5.43 3.172c-.515.474-.866.71-1.056.711a.96.96 0 01-.894-.488l-1.018-1.625a21.573 21.573 0 012.48-2.115 19.07 19.07 0 013.03-1.809 17.812 17.812 0 017.504-1.728zM48.23 69.508h.106c.503-.002 1 .103 1.46.306a3.855 3.855 0 012.015 2.01c.202.461.306.96.304 1.463a3.554 3.554 0 01-.304 1.484c-.198.44-.474.84-.815 1.18-.343.34-.751.607-1.2.787-.463.19-.96.287-1.462.285a3.683 3.683 0 01-3.744-3.736l-.002.008a3.786 3.786 0 01.285-1.463 3.6 3.6 0 01.793-1.2c.341-.342.742-.62 1.184-.818a3.541 3.541 0 011.38-.306z"/></svg>