<svg xmlns="http://www.w3.org/2000/svg" viewBox="0 0 1000 1000"><path d="M877 455.76L504.2 108.38a28.77 28.77 0 00-39.2 0L92.16 455.76a23.67 23.67 0 0016.13 41h23v400.8a28.79 28.79 0 0028.75 28.76h208.51a28.8 28.8 0 0028.76-28.76V628.27h174.58v269.29a28.8 28.8 0 0028.76 28.76h208.46a28.8 28.8 0 0028.76-28.76V496.75h23a23.67 23.67 0 0016.13-41zm-55.22 8.9a16 16 0 00-16 16v413.56H604V624.93a28.79 28.79 0 00-28.76-28.75H394a28.79 28.79 0 00-28.75 28.75v269.29H163.43V480.71a16.06 16.06 0 00-16.05-16h-17.7L484.6 134l354.92 330.66z" fill="#143642" data-name="1"/></svg>