<svg xmlns="http://www.w3.org/2000/svg" viewBox="0 0 1000 1000"><defs><style>.cls-1{fill:#143642}</style></defs><g id="_1" data-name="1"><path class="cls-1" d="M860.66 122.54H181.77a60.62 60.62 0 00-60.56 60.55V862a60.62 60.62 0 0060.56 60.55h678.89A60.62 60.62 0 00921.21 862V183.09a60.62 60.62 0 00-60.55-60.55zm-678.89 34.6h678.89a26 26 0 0126 26v380.43l-180.2-180.14a17.3 17.3 0 00-24.47 0l-271.8 271.8L297 542a15.57 15.57 0 00-2.18-1.45 16.73 16.73 0 00-2.88-1.91 16.51 16.51 0 00-3.15-.93 17 17 0 00-3.21-.62 16.43 16.43 0 00-3.28.32 16.81 16.81 0 00-3.22.62 17.08 17.08 0 00-3 1.63 16.16 16.16 0 00-2.32 1.24l-117.9 97.65V183.09a26 26 0 0125.91-25.95zm678.89 730.8H181.77a26 26 0 01-26-26V683.51l127.89-105.88L398 691.93a17.3 17.3 0 0024.47 0l271.8-271.8 192.34 192.38V862a26 26 0 01-25.95 25.94z"/><path class="cls-1" d="M326.89 409.76a87.31 87.31 0 10-87.31-87.31 87.4 87.4 0 0087.31 87.31zm0-140a52.71 52.71 0 11-52.71 52.71 52.77 52.77 0 0152.71-52.73z"/></g></svg>