<svg xmlns="http://www.w3.org/2000/svg" height="82.345" width="100" id="svg118" version="1.1"><defs id="defs107"><style id="style105"></style></defs><path d="M84.514 5a1.659 1.659 0 00-1.182.498L70.48 18.35c-6.146-3.346-13.102-5.713-20.48-5.713-21.293 0-39.066 19.714-44.004 25.757a4.413 4.413 0 000 5.586c2.944 3.595 10.452 12.058 20.548 18.306L14.32 74.51a1.676 1.676 0 001.179 2.834 1.645 1.645 0 001.173-.488l12.841-12.843C35.66 67.362 42.617 69.732 50 69.732c21.298 0 39.068-19.714 44.006-25.758a4.413 4.413 0 000-5.58c-2.945-3.604-10.459-12.07-20.56-18.318L85.678 7.844A1.659 1.659 0 0084.514 5zM50 15.934c6.433 0 12.555 1.977 18.054 4.841l-8.336 8.337A15.52 15.52 0 0050 25.679a15.503 15.503 0 00-12.075 25.225l-8.983 8.983c-9.975-5.997-17.491-14.47-20.387-18.013a1.117 1.117 0 010-1.396C13.26 34.722 30.157 15.934 50 15.934zm21.058 6.531c9.976 5.997 17.494 14.47 20.39 18.013a1.117 1.117 0 010 1.396C86.742 47.63 69.845 66.418 50 66.418c-6.433 0-12.555-1.976-18.053-4.84l8.326-8.325a15.503 15.503 0 0025.23-12.072 15.52 15.52 0 00-3.437-9.723zm-21.036 6.523a12.193 12.193 0 017.343 2.476L40.283 48.547a12.193 12.193 0 019.739-19.559zm9.69 4.823a12.193 12.193 0 012.481 7.37A12.207 12.207 0 0150 53.375a12.193 12.193 0 01-7.37-2.48z" id="path109" stroke-width=".279"/></svg>