<svg xmlns="http://www.w3.org/2000/svg" height="100" width="86.843"><path d="M77.104 39.851h-8.837V29.845A24.908 24.908 0 0043.42 5C29.718 5 18.576 16.142 18.576 29.845v10.006H9.739A4.739 4.739 0 005 44.59v45.67a4.739 4.739 0 004.739 4.738h67.365a4.739 4.739 0 004.738-4.738V44.589a4.739 4.739 0 00-4.738-4.738zm-54.98-10.006c0-11.743 9.553-21.295 21.296-21.295a21.354 21.354 0 0121.294 21.295v10.006h-42.59zm56.16 60.413a1.185 1.185 0 01-1.184 1.185H9.735a1.185 1.185 0 01-1.185-1.185v-45.67a1.187 1.187 0 011.185-1.184H77.1a1.186 1.186 0 011.183 1.185z"/><path d="M44.012 53.875a11.102 11.102 0 1011.102 11.104 11.115 11.115 0 00-11.102-11.104zm0 18.652a7.55 7.55 0 117.556-7.548 7.556 7.556 0 01-7.556 7.548z"/></svg>