<svg xmlns="http://www.w3.org/2000/svg" height="100" width="86.607" id="svg17" version="1.1"><defs id="defs4"><style id="style2">.cls-1{fill:none}</style></defs><path class="cls-1" d="M202.83 88.227a70.55 70.55 0 10-141.09 0v33.15h141.09z" id="path6"/><rect class="cls-1" x="16.77" y="133.157" width="231.04" height="159.15" rx="3.92" id="rect8"/><path d="M43.228 5a24.772 24.772 0 00-24.696 25.045v9.976h-8.81A4.73 4.73 0 005 44.745v45.53A4.728 4.728 0 009.721 95h67.164a4.728 4.728 0 004.722-4.724v-45.53a4.73 4.73 0 00-4.722-4.725h-8.811v-9.976A24.772 24.772 0 0043.228 5zm-.076 4.068a21.23 21.23 0 0121.38 20.977v9.976H22.075v-9.976A21.23 21.23 0 0143.152 9.068zM9.722 43.566h67.163a1.183 1.183 0 011.18 1.18v45.53a1.183 1.183 0 01-1.18 1.182H9.721a1.183 1.183 0 01-1.18-1.182v-45.53a1.183 1.183 0 011.18-1.18zm33.583 5.386a18.64 18.64 0 1018.64 18.64 18.657 18.657 0 00-18.64-18.64zm-.097 1.463a17.174 17.174 0 01.045 0 17.174 17.174 0 0117.223 17.177 17.192 17.192 0 01-17.171 17.17 17.174 17.174 0 01-.097-34.347zm9.796 10.117a.734.734 0 00-.485.205l.006.003-12.16 12.148-3.84-3.84a.734.734 0 00-1.039 1.039l4.36 4.36a.737.737 0 001.04 0l12.671-12.672a.734.734 0 00-.553-1.243z" id="path10" fill="#000" stroke-width=".301"/></svg>