<svg xmlns="http://www.w3.org/2000/svg" height="100" width="89.098"><path d="M80.26 77.27L58.286 64.327a4.294 4.294 0 01-2.105-3.684v-.855a4.31 4.31 0 011.823-3.503 23.267 23.267 0 009.775-18.925V24.265c0-9.048-5.818-15.73-15.963-18.335a28.716 28.716 0 00-14.498 0c-10.15 2.611-15.97 9.294-15.97 18.336v13.099a23.267 23.267 0 009.776 18.92 4.309 4.309 0 011.824 3.503v.813a4.294 4.294 0 01-2.147 3.706L8.907 76.909A7.815 7.815 0 005 83.665v8.067A3.277 3.277 0 008.269 95h72.496a3.277 3.277 0 003.267-3.234l.066-7.709a7.815 7.815 0 00-3.839-6.787zm.256 14.211H8.52v-7.816a4.284 4.284 0 012.147-3.705l21.893-12.6a7.816 7.816 0 003.906-6.756v-.815a7.835 7.835 0 00-3.303-6.368 19.743 19.743 0 01-8.294-16.055V24.27c0-10.006 8.35-13.647 13.334-14.929a25.198 25.198 0 0112.745 0c4.972 1.278 13.32 4.916 13.32 14.927v13.096a19.74 19.74 0 01-8.296 16.057 7.835 7.835 0 00-3.305 6.366v.854a7.826 7.826 0 003.842 6.716L78.474 80.3a4.294 4.294 0 012.103 3.72z"/></svg>