<svg xmlns="http://www.w3.org/2000/svg" viewBox="0 0 1000 1000"><defs><style>.cls-1{fill:#143642}</style></defs><g id="_1" data-name="1"><path class="cls-1" d="M848.48 277.22h-65.84a11.12 11.12 0 01-10.93-9.08c-.06-.35-.14-.7-.23-1.05l-19.22-75.87a44.45 44.45 0 00-43.58-35.73H277.16a44.45 44.45 0 00-43.58 35.73l-19.23 75.87c-.08.35-.16.7-.23 1.05a11.11 11.11 0 01-10.92 9.08h-65.84a44.5 44.5 0 00-44.44 44.44v469.4a44.5 44.5 0 0044.44 44.44h711.12a44.5 44.5 0 0044.44-44.44v-469.4a44.5 44.5 0 00-44.44-44.44zm11.11 513.84a11.12 11.12 0 01-11.11 11.1H137.36a11.12 11.12 0 01-11.11-11.1v-469.4a11.12 11.12 0 0111.11-11.11h65.84a44.45 44.45 0 0043.58-35.73L266 199c.09-.35.17-.7.23-1a11.12 11.12 0 0110.93-9.08h431.52A11.11 11.11 0 01719.6 198c.07.35.15.7.23 1l19.23 75.87a44.45 44.45 0 0043.58 35.73h65.84a11.12 11.12 0 0111.11 11.11z"/><path class="cls-1" d="M492.92 370.92c-96.48 0-175 78.5-175 175s78.5 175 175 175 175-78.49 175-175-78.52-175-175-175zm0 316.62c-78.11 0-141.65-63.54-141.65-141.64s63.54-141.65 141.65-141.65 141.64 63.54 141.64 141.65S571 687.54 492.92 687.54z"/></g></svg>