<svg xmlns="http://www.w3.org/2000/svg" height="94.503" width="100"><path d="M8.584 5A3.619 3.619 0 005 8.615v77.273a3.619 3.619 0 003.616 3.615h37.318a3.619 3.619 0 003.613-3.628V8.615A3.619 3.619 0 0045.934 5H8.616a3.619 3.619 0 00-.032 0zm.032 1.446h37.318A2.17 2.17 0 0148.1 8.615v77.26a2.17 2.17 0 01-2.166 2.169H8.616a2.173 2.173 0 01-2.17-2.17V8.616a2.173 2.173 0 012.17-2.169zm5.366 5.624a1.808 1.808 0 00-1.808 1.808v8.66a1.808 1.808 0 001.808 1.807h8.646a1.808 1.808 0 001.808-1.794v-8.673a1.808 1.808 0 00-1.808-1.808zm17.923 0a1.808 1.808 0 00-1.808 1.808v8.66a1.808 1.808 0 001.808 1.807h8.66a1.808 1.808 0 001.808-1.794v-8.673a1.808 1.808 0 00-1.808-1.808zm-17.923.723h8.646a1.085 1.085 0 011.098 1.085v8.673a1.085 1.085 0 01-1.098 1.085h-8.646a1.085 1.085 0 01-1.085-1.085v-8.673a1.085 1.085 0 011.085-1.085zm17.923 0h8.66a1.085 1.085 0 011.085 1.085v8.673a1.085 1.085 0 01-1.085 1.085h-8.66a1.085 1.085 0 01-1.085-1.085v-8.673a1.085 1.085 0 011.085-1.085zm27.045 2.286a3.19 3.19 0 00-3.184 3.184V86.32a3.19 3.19 0 003.184 3.183h32.867A3.19 3.19 0 0095 86.306V18.263a3.19 3.19 0 00-3.183-3.184zm0 1.276h32.867a1.911 1.911 0 011.911 1.908v68.043a1.911 1.911 0 01-1.911 1.909H58.95a1.911 1.911 0 01-1.908-1.909V18.263a1.911 1.911 0 011.908-1.908zm4.726 4.938a1.593 1.593 0 00-1.59 1.593v7.64a1.593 1.593 0 001.59 1.593h7.63a1.593 1.593 0 001.59-1.607v-7.626a1.593 1.593 0 00-1.59-1.593zm15.784 0a1.593 1.593 0 00-1.59 1.593v7.64a1.593 1.593 0 001.59 1.593h7.63a1.593 1.593 0 001.59-1.607v-7.626a1.593 1.593 0 00-1.59-1.593zm-8.154.636a.957.957 0 01.954.957v7.64a.957.957 0 01-.954.957h-7.63a.957.957 0 01-.954-.958V22.9a.957.957 0 01.954-.957zm15.784 0a.957.957 0 01.954.957v7.64a.957.957 0 01-.954.957h-7.63a.957.957 0 01-.953-.958V22.9a.957.957 0 01.953-.957zm-73.135 5.885a1.808 1.808 0 00-1.781 1.807v8.66a1.808 1.808 0 001.808 1.809h8.646a1.808 1.808 0 001.808-1.805v-8.664a1.808 1.808 0 00-1.808-1.807h-8.646a1.808 1.808 0 00-.027 0zm17.923 0a1.808 1.808 0 00-1.78 1.807v8.66a1.808 1.808 0 001.807 1.809h8.66a1.808 1.808 0 001.808-1.805v-8.664a1.808 1.808 0 00-1.808-1.807h-8.66a1.808 1.808 0 00-.027 0zm-17.896.723h8.646a1.085 1.085 0 011.098 1.084v8.664a1.085 1.085 0 01-1.098 1.085h-8.646a1.085 1.085 0 01-1.085-1.085v-8.664a1.085 1.085 0 011.085-1.084zm17.923 0h8.66a1.085 1.085 0 011.085 1.084v8.664a1.085 1.085 0 01-1.085 1.085h-8.66a1.085 1.085 0 01-1.085-1.085v-8.664a1.085 1.085 0 011.085-1.084zm31.771 6.635a1.59 1.59 0 00-1.59 1.59v7.632a1.59 1.59 0 001.59 1.59h7.63a1.59 1.59 0 001.59-1.593v-7.63a1.59 1.59 0 00-1.59-1.59zm15.784 0a1.59 1.59 0 00-1.59 1.59v7.632a1.59 1.59 0 001.59 1.59h7.63a1.59 1.59 0 001.59-1.593v-7.63a1.59 1.59 0 00-1.59-1.59zm-15.784.636h7.63a.957.957 0 01.954.954v7.63a.957.957 0 01-.954.953h-7.63a.957.957 0 01-.954-.954v-7.63a.957.957 0 01.954-.953zm15.784 0h7.63a.957.957 0 01.954.954v7.63a.957.957 0 01-.954.953h-7.63a.957.957 0 01-.953-.954v-7.63a.957.957 0 01.953-.953zM13.982 43.4a1.808 1.808 0 00-1.808 1.808v8.677a1.808 1.808 0 001.808 1.808h8.646a1.808 1.808 0 001.808-1.825v-8.66a1.808 1.808 0 00-1.808-1.808zm17.923 0a1.808 1.808 0 00-1.808 1.808v8.677a1.808 1.808 0 001.808 1.808h8.66a1.808 1.808 0 001.808-1.825v-8.66a1.808 1.808 0 00-1.808-1.808zm-17.923.723h8.646a1.088 1.088 0 011.085 1.085v8.66a1.085 1.085 0 01-1.085 1.084h-8.646a1.085 1.085 0 01-1.085-1.084v-8.66a1.088 1.088 0 011.085-1.085zm26.583 0a1.088 1.088 0 011.085 1.085v8.677a1.085 1.085 0 01-1.085 1.084h-8.66a1.085 1.085 0 01-1.085-1.084v-8.66a1.088 1.088 0 011.085-1.085zm23.068 4.778a1.59 1.59 0 00-1.547 1.59v7.629a1.59 1.59 0 001.59 1.59h7.63a1.59 1.59 0 001.59-1.59v-7.63a1.59 1.59 0 00-1.59-1.59h-7.63a1.59 1.59 0 00-.043 0zm15.784 0a1.59 1.59 0 00-1.547 1.59v7.629a1.59 1.59 0 001.59 1.59h7.63a1.59 1.59 0 001.59-1.59v-7.63a1.59 1.59 0 00-1.59-1.59h-7.63a1.59 1.59 0 00-.043 0zm-15.74.635h7.629a.957.957 0 01.954.955v7.629a.957.957 0 01-.954.954h-7.63a.957.957 0 01-.954-.954v-7.63a.957.957 0 01.954-.954zm15.783 0h7.63a.957.957 0 01.954.955v7.629a.957.957 0 01-.954.954h-7.63a.957.957 0 01-.953-.954v-7.63a.957.957 0 01.953-.954zM22.27 62.588a1.811 1.811 0 00-1.784 1.808v18.8a1.808 1.808 0 001.808 1.808h9.965a1.808 1.808 0 001.815-1.81V64.395a1.811 1.811 0 00-1.808-1.808h-9.972a1.811 1.811 0 00-.023 0zm9.996.724a1.088 1.088 0 011.085 1.084v18.8a1.088 1.088 0 01-1.085 1.085h-9.972a1.088 1.088 0 01-1.092-1.088V64.396a1.088 1.088 0 011.092-1.081zm38.725 2.507a1.59 1.59 0 00-1.59 1.59v16.537a1.59 1.59 0 001.59 1.59h8.785a1.593 1.593 0 001.593-1.59V67.41a1.593 1.593 0 00-1.593-1.59zm0 .636h8.785a.954.954 0 01.954.954v16.537a.954.954 0 01-.954.954H70.99a.957.957 0 01-.954-.954V67.41a.957.957 0 01.954-.954z"/></svg>