<svg xmlns="http://www.w3.org/2000/svg" height="87.757" width="100" id="svg159" version="1.1"><defs id="defs152"><style id="style150"></style></defs><path d="M7.635 5a2.571 2.571 0 00-1.843 4.39l43.232 43.248a2.57 2.57 0 001.815.744 2.578 2.578 0 001.823-.752l41.563-41.565A2.57 2.57 0 1090.59 7.43L50.84 47.177 9.425 5.752A2.571 2.571 0 007.636 5zm-.091 29.333a2.57 2.57 0 00-1.752 4.426l43.232 43.254a2.556 2.556 0 001.815.744 2.563 2.563 0 001.823-.751l41.563-41.562a2.571 2.571 0 10-3.635-3.638L50.84 76.553 9.425 35.125a2.57 2.57 0 00-1.882-.792z" id="path154" fill="#000" stroke-width=".372"/></svg>