<svg xmlns="http://www.w3.org/2000/svg" width="612" height="792"><path fill="#FFF" d="M125.503 319.004c82.234-82.234 216.036-82.234 298.271 0a211.114 211.114 0 0151.169 83.232H421.21a13.715 13.715 0 00-11.977 7.148 14.285 14.285 0 00.44 14.517l66.096 104.333a13.62 13.62 0 001.935 2.448c5.296 5.307 13.891 5.314 19.196.019a13.622 13.622 0 001.936-2.436l66.041-104.346a14.317 14.317 0 00-1.934-17.682 13.463 13.463 0 00-9.597-3.983h-58.611a229.942 229.942 0 00-57.607-96.604c-89.597-89.591-235.375-89.591-324.972 0a231.17 231.17 0 00-33.281 42.063 9.443 9.443 0 001.359 11.628 9.037 9.037 0 001.726 1.365c4.432 2.739 10.245 1.37 12.987-3.06a212.042 212.042 0 0130.556-38.642zm418.798 102.131l-57.021 90.044-57.044-90.044h114.065z"/></svg>