<svg xmlns="http://www.w3.org/2000/svg" width="612" height="792"><path fill="#FFF" d="M549.576 357.622a9.442 9.442 0 0012.992 3.06 9.44 9.44 0 003.081-12.993 231.297 231.297 0 00-33.274-42.063c-89.598-89.591-235.382-89.591-324.972 0a229.83 229.83 0 00-57.608 96.604H91.188a13.461 13.461 0 00-9.602 3.982 14.335 14.335 0 00-1.934 17.682l66.096 104.34c3.961 6.364 12.332 8.313 18.697 4.354a13.543 13.543 0 002.436-1.936 14.07 14.07 0 001.934-2.448L234.91 423.87a14.268 14.268 0 00.44-14.518 13.698 13.698 0 00-11.971-7.146h-53.733a211.137 211.137 0 0151.163-83.232c82.234-82.234 216.036-82.234 298.271 0a211.514 211.514 0 0130.496 38.648zm-335.284 63.513l-57.008 90.044-57.039-90.044h114.047z"/></svg>