<svg xmlns="http://www.w3.org/2000/svg" width="561" height="382.5" viewBox="25.5 217.5 561 382.5"><g fill="#FFF"><path d="M195.585 285.075H574.26c6.885 0 12.24-5.1 12.24-11.22s-5.61-11.22-12.24-11.22H195.585c-6.885 0-12.24 5.1-12.24 11.22s5.355 11.22 12.24 11.22zM574.26 399.06H195.585c-6.885 0-12.24 5.101-12.24 11.221s5.355 11.22 12.24 11.22H574.26c6.885 0 12.24-5.1 12.24-11.22s-5.61-11.221-12.24-11.221zM574.26 532.425H195.585c-6.885 0-12.24 5.101-12.24 11.22 0 6.12 5.61 11.221 12.24 11.221H574.26c6.885 0 12.24-5.101 12.24-11.221s-5.61-11.22-12.24-11.22zM87.975 217.5c-34.425 0-62.475 25.245-62.475 56.355s28.05 56.355 62.475 56.355 62.475-25.245 62.475-56.355c-.255-31.11-28.05-56.355-62.475-56.355zm0 90.525c-20.91 0-37.74-15.3-37.74-34.17s16.83-34.17 37.74-34.17c20.91 0 37.74 15.3 37.74 34.17s-17.085 34.17-37.74 34.17zM87.975 353.925c-34.425 0-62.475 25.245-62.475 56.355 0 31.109 28.05 56.354 62.475 56.354s62.475-25.245 62.475-56.354c-.255-31.11-28.05-56.355-62.475-56.355zm0 90.525c-20.91 0-37.74-15.3-37.74-34.17s16.83-34.17 37.74-34.17c20.91 0 37.74 15.3 37.74 34.17s-17.085 34.17-37.74 34.17zM87.975 487.035c-34.425 0-62.475 25.5-62.475 56.609C25.5 574.755 53.55 600 87.975 600s62.475-25.245 62.475-56.355c-.255-31.11-28.05-56.61-62.475-56.61zm0 90.525c-20.91 0-37.74-15.3-37.74-34.17s16.83-34.17 37.74-34.17c20.91 0 37.74 15.3 37.74 34.17s-17.085 34.17-37.74 34.17z"/></g></svg>