<svg xmlns="http://www.w3.org/2000/svg" viewBox="0 0 1000 1000"><path d="M933.63 802.09L744.16 612.62c80.94-126 63.24-293.36-43.13-399.74a320.72 320.72 0 10-53.72 496.62L836.76 899a68.49 68.49 0 0096.87-96.86zM271.39 642.52A287 287 0 01677.2 236.71C773.44 333 788.73 485 713.58 598.14c-1.56 2.35-3.17 4.67-4.77 7a292.68 292.68 0 01-31.59 37.43q-8.65 8.65-18.07 16.59c-.61.52-1.28 1-1.9 1.47-5.69 4.72-11.52 9.3-17.55 13.57-2.26 1.61-4.56 3.2-6.86 4.73a287.13 287.13 0 01-361.45-36.36zM909.8 875.13a34.83 34.83 0 01-49.21 0L675.1 689.63c.82-.66 1.53-1.43 2.34-2.1 8.19-6.72 16.14-13.71 23.6-21.18s14.42-15.37 21.15-23.56c.67-.81 1.46-1.53 2.12-2.36L909.8 825.91a34.86 34.86 0 010 49.22z" fill="#143642" data-name="1"/></svg>