<svg xmlns="http://www.w3.org/2000/svg" height="100" width="100" id="svg35" version="1.1"><defs id="defs28"><style id="style26"></style></defs><path d="M50 5C25.186 5 5 25.186 5 50s20.186 45 45 45 45-20.189 45-45S74.824 5 50 5zm-.05 3.536A41.464 41.464 0 1150 91.464C27.14 91.464 8.536 72.866 8.536 50A41.464 41.464 0 0149.95 8.536zm-.547 15.027a1.774 1.774 0 00-1.736 1.623v24.457a1.765 1.765 0 00.138.678 1.784 1.784 0 00.383.576L69.437 72.15a1.774 1.774 0 102.507-2.507L51.202 48.91V25.186a1.774 1.774 0 00-1.799-1.623z" id="path30" stroke-width=".321"/></svg>