<svg xmlns="http://www.w3.org/2000/svg" width="511.378" height="470.475" viewBox="49.695 166.5 511.378 470.475"><path fill="#FFF" stroke="#FFF" stroke-miterlimit="10" d="M553.605 558.18l-212.67-369.495c-7.904-13.77-21.42-22.185-35.7-22.185s-27.54 8.415-35.7 22.185L57.12 558.18c-8.925 15.556-9.945 35.445-2.295 52.021 7.65 16.575 21.93 26.774 37.995 26.774h425.34c16.064 0 30.6-10.199 37.995-26.774 7.395-16.576 6.375-36.466-2.55-52.021zm-19.38 38.505c-3.314 7.141-9.435 11.476-16.319 11.476H92.565c-6.885 0-13.005-4.335-16.32-11.476-3.315-7.14-2.805-15.555 1.02-22.185l212.67-369.495c3.57-6.12 8.925-9.435 15.3-9.435s11.73 3.57 15.3 9.435L533.205 574.5c3.825 6.63 4.335 14.79 1.02 22.185z"/></svg>