<svg xmlns="http://www.w3.org/2000/svg" viewBox="0 0 1000 1000"><path d="M475.93 124.61c-220.56 0-400 179.44-400 400C75.93 635.15 120 738 200.06 814.25a400 400 0 00551.73 0C831.84 738 875.93 635.15 875.93 524.6c0-220.55-179.44-399.99-400-399.99zm0 31.51c203.18 0 368.49 165.3 368.49 368.48 0 89.54-31.45 173.58-89.16 240.32A57.9 57.9 0 00728.1 726L574 635.26a26.68 26.68 0 01-13.06-22.9v-6a26.84 26.84 0 0111.33-21.77 166.59 166.59 0 0070-135.5v-91.86c0-65.12-41.74-113.19-114.51-131.9a205.79 205.79 0 00-103.37 0c-72.82 18.72-114.58 66.8-114.58 131.9v91.83a166.49 166.49 0 0070 135.49 26.85 26.85 0 0111.34 21.78v5.69a26.61 26.61 0 01-13.32 23l-153.58 88.47c-15.24 8.78-25.11 24.12-27.88 41.19C138.8 698 107.44 614 107.44 524.6c0-203.18 165.3-368.48 368.49-368.48zM441 891.43c-3.89-.36-7.69-1.13-11.56-1.61-7.62-1-15.27-1.85-22.79-3.28-4.55-.86-9-2.15-13.5-3.19-6.7-1.54-13.43-2.94-20-4.85-4.75-1.38-9.36-3.17-14.05-4.74-6.18-2.06-12.41-4-18.47-6.38-4.75-1.88-9.33-4.15-14-6.22-5.8-2.58-11.66-5-17.33-7.91-4.65-2.36-9.11-5.09-13.66-7.66-5.46-3.07-11-6-16.29-9.4-4.48-2.83-8.76-6-13.13-9.06-5.12-3.55-10.29-7-15.24-10.84-4.28-3.31-8.33-6.94-12.47-10.44-4-3.35-7.93-6.66-11.77-10.19v-21.83a26.65 26.65 0 0113.33-23l153.54-88.38a58.18 58.18 0 0029.13-50.35v-5.69a58.42 58.42 0 00-24.59-47.46 135 135 0 01-56.85-109.84v-91.83c0-64.48 49.44-90.72 90.92-101.38a174.1 174.1 0 0187.68-.05c41.44 10.65 90.84 36.89 90.84 101.38v91.88A135 135 0 01554 558.93a58.4 58.4 0 00-24.57 47.45v6a58.32 58.32 0 0028.58 50l154.11 90.78a26.66 26.66 0 0113.09 23.22v19.25c-3.86 3.55-7.86 6.89-11.84 10.26S705.2 813 701 816.27c-5 3.85-10.18 7.34-15.33 10.91-4.34 3-8.59 6.19-13 9-5.33 3.37-10.87 6.34-16.35 9.43-4.53 2.55-9 5.28-13.6 7.63-5.65 2.87-11.49 5.31-17.28 7.88-4.69 2.09-9.3 4.37-14.07 6.25-6 2.37-12.16 4.27-18.27 6.32-4.76 1.59-9.43 3.41-14.25 4.81-6.49 1.88-13.13 3.25-19.73 4.77-4.61 1.07-9.14 2.38-13.8 3.27-7.45 1.42-15 2.28-22.6 3.24-3.93.5-7.78 1.27-11.73 1.64q-17.34 1.64-35 1.66T441 891.43z" fill="#143642" data-name="1"/></svg>