<svg id="_6" data-name="6" xmlns="http://www.w3.org/2000/svg" viewBox="0 0 1000 1000"><defs><style>.cls-1{fill:#28b8d4;opacity:0.1;}.cls-2,.cls-7{fill:#003340;}.cls-2,.cls-6,.cls-7{stroke:#003340;}.cls-2{stroke-linecap:round;stroke-linejoin:round;stroke-width:0.78px;}.cls-3{fill:#006981;}.cls-4{fill:#e6eaed;}.cls-5{fill:#b9b9b9;}.cls-6{fill:none;}.cls-6,.cls-7{stroke-miterlimit:10;stroke-width:2px;}.cls-8{fill:#fff;}</style></defs><title>1</title><path class="cls-1" d="M643.61,656.58c27.17,3.16,53.71,12.64,81,10.77,24.2-1.65,46.48-12.15,65.86-24.84,117.81-77.12,143.38-252.32,37.07-348.14a164.12,164.12,0,0,0-24.87-18.52c-26.14-15.83-56.85-26.06-80-45.07-42.1-34.5-50.74-90-84.76-130.72-27.61-33-72.29-54.78-119-57.94S424.36,54.45,391.48,83.37c-60.18,52.94-41.33,147-113.32,117.49C184.58,162.55,48.73,243.69,110.05,346.6c32.1,53.88,91.11,49.4,110.62,105.94,14.29,41.39-65.8,109.76-94.21,171.24-20.21,43.72,6,86.14,19.4,103.08,37.16,47.14,233.57-78,265.82-65.27C483.14,689.77,565.93,647.55,643.61,656.58Z"/><path class="cls-2" d="M613.28,545.08l28.94-28.94a2,2,0,0,0-2.77-2.77l-28.94,28.94L581,512.78a2,2,0,0,0-2.76,2.77l29.53,29.53-29.53,29.54a2,2,0,0,0,2.76,2.77l29.54-29.54,28.94,28.94a2,2,0,0,0,1.39.58,1.92,1.92,0,0,0,1.38-.58,2,2,0,0,0,0-2.77Z"/><path class="cls-2" d="M420.81,545.08l28.95-28.94a2,2,0,0,0-2.77-2.77L418,542.31l-29.53-29.53a2,2,0,0,0-2.77,2.77l29.53,29.53-29.53,29.54a2,2,0,0,0,2.77,2.77L418,547.85,447,576.79a1.92,1.92,0,0,0,1.38.58,2,2,0,0,0,1.39-3.35Z"/><path class="cls-3" d="M291.33,220.29h456a14,14,0,0,1,14,14V898.66a17.21,17.21,0,0,1-17.21,17.21H293.52a17.21,17.21,0,0,1-17.21-17.21V235.31A15,15,0,0,1,291.33,220.29Z"/><path class="cls-4" d="M709.37,271H324.74c-3.76,0-6.83,7.82-6.83,17.39V798.54c0,9.56,3.07,17.39,6.83,17.39H709.37c3.75,0,6.82-7.83,6.82-17.39V288.39C716.19,278.82,713.12,271,709.37,271Z"/><path class="cls-5" d="M538.39,864.81a17.65,17.65,0,1,1-17.65-17.65A17.65,17.65,0,0,1,538.39,864.81Z"/><line class="cls-6" x1="554.94" y1="435.55" x2="661.86" y2="435.51"/><line class="cls-6" x1="367.06" y1="435.28" x2="473.98" y2="435.78"/><circle class="cls-6" cx="605.51" cy="533.75" r="43.31" transform="translate(-172.25 317.83) rotate(-25.88)"/><circle class="cls-6" cx="416.89" cy="533.75" r="43.31" transform="translate(-255.32 451.11) rotate(-45)"/><path class="cls-7" d="M429.88,542.92a26.16,26.16,0,1,1-26.16-26.16A26.16,26.16,0,0,1,429.88,542.92Z"/><path class="cls-8" d="M424.7,524c0,5.55-4.77,10-10.65,10s-10.64-4.49-10.64-10,4.76-10,10.64-10S424.7,518.48,424.7,524Z"/><path class="cls-7" d="M640,518.39a26.16,26.16,0,1,1-26.15-26.16A26.15,26.15,0,0,1,640,518.39Z"/><path class="cls-8" d="M606.2,526.58c0,5.55-4.77,10-10.64,10s-10.65-4.5-10.65-10,4.77-10,10.65-10S606.2,521,606.2,526.58Z"/><line class="cls-6" x1="356.81" y1="648.82" x2="672.62" y2="648.82"/></svg>