<svg xmlns="http://www.w3.org/2000/svg" viewBox="0 0 1000 1000"><defs><style>.cls-1{fill:#28b8d4;opacity:0.1;}.cls-2,.cls-7{fill:#003340;}.cls-2,.cls-6,.cls-7,.cls-9{stroke:#003340;}.cls-2{stroke-linecap:round;stroke-linejoin:round;stroke-width:0.78px;}.cls-3{fill:#006981;}.cls-4{fill:#e6eaed;}.cls-5{fill:#b9b9b9;}.cls-6,.cls-9{fill:none;}.cls-6,.cls-7,.cls-9{stroke-miterlimit:10;}.cls-6{stroke-width:2px;}.cls-8{fill:#fff;}.cls-10{fill:#0081a0;}</style></defs><title>5</title><g id="_4" data-name="4"><path class="cls-1" d="M666,682c27.16,3.16,53.7,12.63,81,10.77,24.2-1.65,46.48-12.15,65.86-24.84,117.81-77.12,143.37-252.32,37.06-348.14a163.53,163.53,0,0,0-24.86-18.52c-26.15-15.83-56.86-26.07-80.05-45.07-42.09-34.5-50.73-90-84.75-130.72-27.62-33-72.3-54.78-119-57.94s-94.54,12.33-127.42,41.25c-60.19,52.94-41.34,147-113.33,117.49C207,188,71.12,269.15,132.45,372.06c32.1,53.88,91.11,49.4,110.62,105.94,14.28,41.39-65.8,109.76-94.22,171.24-20.21,43.72,6.06,86.13,19.41,103.08,37.16,47.14,233.57-78,265.81-65.27C505.53,715.23,588.32,673,666,682Z"/><path class="cls-2" d="M635.68,570.54l28.94-28.94a2,2,0,0,0-2.77-2.77l-28.94,28.94-29.54-29.54A2,2,0,0,0,600.6,541l29.54,29.54L600.6,600.07a2,2,0,0,0,0,2.77,1.94,1.94,0,0,0,1.39.58,1.92,1.92,0,0,0,1.38-.58l29.54-29.53,28.94,28.94a2,2,0,0,0,2.77-2.77Z"/><path class="cls-2" d="M443.21,570.54l28.94-28.94a2,2,0,0,0-2.77-2.77l-28.94,28.94-29.53-29.54a2,2,0,1,0-2.77,2.77l29.53,29.54-29.53,29.53a2,2,0,0,0,0,2.77,1.92,1.92,0,0,0,1.38.58,2,2,0,0,0,1.39-.58l29.53-29.53,28.94,28.94a2,2,0,0,0,1.39.58,2,2,0,0,0,1.38-3.35Z"/><path class="cls-3" d="M313.73,245.75h456a14,14,0,0,1,14,14V924.12a17.21,17.21,0,0,1-17.21,17.21H315.91a17.21,17.21,0,0,1-17.21-17.21V260.77A15,15,0,0,1,313.73,245.75Z"/><path class="cls-4" d="M731.77,296.46H347.13c-3.75,0-6.82,7.82-6.82,17.39V824c0,9.56,3.07,17.39,6.82,17.39H731.77c3.75,0,6.82-7.83,6.82-17.39V313.85C738.59,304.28,735.52,296.46,731.77,296.46Z"/><path class="cls-5" d="M560.79,890.27a17.65,17.65,0,1,1-17.65-17.65A17.65,17.65,0,0,1,560.79,890.27Z"/><circle class="cls-6" cx="449.44" cy="534.88" r="33.47"/><circle class="cls-7" cx="449.34" cy="534.76" r="20.21"/><ellipse class="cls-8" cx="448.27" cy="520.03" rx="7.76" ry="8.23" transform="translate(-73.45 966.34) rotate(-89.78)"/><path class="cls-6" d="M584.29,464.64c33.69-22.21,74.79-14,106.92.37"/><path class="cls-6" d="M491.33,464.29c-33.52-22.47-74.68-14.59-106.92-.43"/><circle class="cls-6" cx="635.12" cy="535.58" r="33.47"/><circle class="cls-7" cx="634.4" cy="535.43" r="20.21"/><ellipse class="cls-8" cx="634.46" cy="519.8" rx="7.76" ry="8.23" transform="translate(112.27 1152.3) rotate(-89.78)"/><rect class="cls-9" x="389.95" y="482.2" width="112.18" height="105.16" rx="6" transform="translate(2.02 -1.68) rotate(0.22)"/><rect class="cls-9" x="578.16" y="482.91" width="112.18" height="105.16" rx="6" transform="translate(2.02 -2.38) rotate(0.22)"/><line class="cls-9" x1="502.14" y1="533.28" x2="576.65" y2="533.56"/><path class="cls-6" d="M540.93,682.26c23.33-5.37,51.22-5.52,84.38.32"/><path class="cls-10" d="M703.87,272.65h.66l-42.36-73.37-42.36,73.37h.66a49.56,49.56,0,1,0,83.4,0Z"/><path class="cls-8" d="M626.23,297.91A23.22,23.22,0,0,0,634,320.26c1.48,1.22,3.61-.89,2.12-2.12a20.24,20.24,0,0,1-7-19.43c.38-1.88-2.51-2.69-2.9-.8Z"/></g></svg>