<svg xmlns="http://www.w3.org/2000/svg" viewBox="0 0 1000 1000"><defs><style>.cls-1{fill:#28b8d4;opacity:0.05;}.cls-2{fill:#006981;}.cls-3{fill:#e6eaed;}.cls-4{fill:#b9b9b9;}.cls-5{fill:#003340;stroke-linecap:round;stroke-linejoin:round;stroke-width:0.78px;}.cls-5,.cls-6{stroke:#003340;}.cls-6{fill:none;stroke-miterlimit:10;stroke-width:2px;}</style></defs><title>3</title><g id="_2" data-name="2"><path class="cls-1" d="M622.61,677.58c27.17,3.16,53.71,12.64,81,10.77,24.2-1.65,46.48-12.15,65.86-24.84,117.81-77.12,143.38-252.32,37.07-348.14a164.12,164.12,0,0,0-24.87-18.52c-26.14-15.83-56.85-26.06-80-45.07-42.1-34.5-50.74-90-84.76-130.72-27.61-33-72.29-54.78-119-57.94s-94.54,12.33-127.42,41.25c-60.18,52.94-41.33,147-113.32,117.49C163.58,183.55,27.73,264.69,89.05,367.6c32.1,53.88,91.11,49.4,110.62,105.94,14.29,41.39-65.8,109.76-94.22,171.24-20.2,43.72,6.06,86.14,19.41,103.08,37.16,47.14,233.57-78,265.82-65.27C462.14,710.77,544.93,668.55,622.61,677.58Z"/><path class="cls-2" d="M270.33,241.29h456a14,14,0,0,1,14,14V919.66a17.21,17.21,0,0,1-17.21,17.21H272.52a17.21,17.21,0,0,1-17.21-17.21V256.31a15,15,0,0,1,15-15Z"/><path class="cls-3" d="M688.37,292H303.73c-3.75,0-6.81,7.82-6.81,17.39V819.54c0,9.56,3.06,17.39,6.81,17.39H688.37c3.76,0,6.82-7.83,6.82-17.39V309.39C695.19,299.82,692.13,292,688.37,292Z"/><path class="cls-4" d="M517.39,885.81a17.65,17.65,0,1,1-17.65-17.65A17.65,17.65,0,0,1,517.39,885.81Z"/><path class="cls-5" d="M592.28,566.08l28.94-28.94a2,2,0,0,0-2.77-2.77l-28.94,28.94L560,533.78a2,2,0,0,0-2.76,2.77l29.53,29.53-29.53,29.54a2,2,0,0,0,2.76,2.77l29.54-29.54,28.94,28.94a2,2,0,0,0,1.39.58,1.92,1.92,0,0,0,1.38-.58,2,2,0,0,0,0-2.77Z"/><path class="cls-5" d="M399.81,566.08l28.95-28.94a2,2,0,0,0-2.77-2.77L397,563.31l-29.53-29.53a2,2,0,0,0-2.77,2.77l29.53,29.53-29.53,29.54a2,2,0,0,0,2.77,2.77L397,568.85,426,597.79a1.92,1.92,0,0,0,1.38.58,2,2,0,0,0,1.39-3.35Z"/><line class="cls-6" x1="540.98" y1="439.89" x2="642.53" y2="473.35"/><line class="cls-6" x1="351.8" y1="496.69" x2="455.95" y2="472.52"/><polyline class="cls-6" points="375.28 665.06 396.73 692.09 408.72 659.49 445.15 691.07 455.63 662.92 488.62 685.5 504.81 653.91 521.5 694.51 554.35 671.12 574.03 694.74 611.79 660.27"/></g></svg>