<svg xmlns="http://www.w3.org/2000/svg" viewBox="0 0 1000 1000"><defs><style>.cls-1{fill:#28b8d4;opacity:0.1;}.cls-2{fill:#006981;}.cls-3{fill:#e6eaed;}.cls-4{fill:#b9b9b9;}.cls-5{fill:none;}.cls-5,.cls-6{stroke:#003340;stroke-miterlimit:10;stroke-width:2px;}.cls-6{fill:#003340;}.cls-7{fill:#fff;}</style></defs><title>2</title><g id="_1" data-name="1"><path class="cls-1" d="M654.55,696.55c27.16,3.16,53.71,12.64,81,10.78,24.2-1.66,46.48-12.16,65.86-24.84,117.81-77.12,143.37-252.32,37.06-348.15a164.87,164.87,0,0,0-24.86-18.52c-26.15-15.82-56.86-26.06-80-45.07-42.09-34.5-50.73-90-84.75-130.71-27.62-33-72.29-54.78-119-57.95S435.3,94.42,402.42,123.35c-60.19,52.94-41.34,147-113.32,117.49C195.52,202.53,59.66,283.67,121,386.58c32.1,53.88,91.11,49.39,110.62,105.94,14.28,41.39-65.8,109.75-94.22,171.23-20.21,43.72,6.06,86.14,19.41,103.08,37.16,47.15,233.57-78,265.81-65.27C494.07,729.75,576.86,687.52,654.55,696.55Z"/><path class="cls-2" d="M281.32,260.26h456a14,14,0,0,1,14,14V938.64a17.21,17.21,0,0,1-17.21,17.21H283.51a17.21,17.21,0,0,1-17.21-17.21V275.29A15,15,0,0,1,281.32,260.26Z"/><path class="cls-3" d="M699.37,311H314.73c-3.75,0-6.82,7.83-6.82,17.39V838.51c0,9.57,3.07,17.39,6.82,17.39H699.37c3.75,0,6.82-7.82,6.82-17.39V328.36C706.19,318.8,703.12,311,699.37,311Z"/><path class="cls-4" d="M528.38,904.79a17.65,17.65,0,1,1-17.65-17.65A17.65,17.65,0,0,1,528.38,904.79Z"/><path class="cls-5" d="M552.23,475.19c43.47-13.13,82.23-14,115.33,0"/><line class="cls-5" x1="349.56" y1="487.84" x2="464.89" y2="488.38"/><circle class="cls-5" cx="611.29" cy="568.52" r="46.72"/><circle class="cls-5" cx="396.21" cy="568.82" r="46.72"/><circle class="cls-6" cx="396.21" cy="568.82" r="28.21"/><ellipse class="cls-7" cx="383.08" cy="550.36" rx="11.48" ry="10.84"/><circle class="cls-6" cx="611.29" cy="568.52" r="28.21"/><ellipse class="cls-7" cx="620.15" cy="547.98" rx="11.48" ry="10.84"/><line class="cls-5" x1="338.51" y1="662.12" x2="679.16" y2="662.12"/></g></svg>