<svg xmlns="http://www.w3.org/2000/svg" viewBox="0 0 1000 1000"><defs><style>.cls-1{fill:#28b8d4;opacity:0.1;}.cls-2{fill:#006981;}.cls-3{fill:#e6eaed;}.cls-4{fill:#b9b9b9;}.cls-5{fill:none;stroke:#003340;stroke-miterlimit:10;stroke-width:2px;}</style></defs><title>6</title><g id="_5" data-name="5"><path class="cls-1" d="M673.61,652.58c27.17,3.16,53.71,12.64,81,10.77,24.2-1.65,46.48-12.15,65.86-24.84,117.81-77.12,143.38-252.32,37.07-348.14a164.12,164.12,0,0,0-24.87-18.52c-26.14-15.83-56.85-26.06-80-45.07-42.1-34.5-50.74-90-84.76-130.72-27.61-33-72.29-54.78-119-57.94S454.36,50.45,421.48,79.37c-60.18,52.94-41.33,147-113.32,117.49C214.58,158.55,78.73,239.69,140.05,342.6c32.1,53.88,91.11,49.4,110.62,105.94,14.29,41.39-65.8,109.76-94.21,171.24-20.21,43.72,6,86.14,19.4,103.08,37.16,47.15,233.57-78,265.82-65.27C513.14,685.77,595.93,643.55,673.61,652.58Z"/><path class="cls-2" d="M321.33,216.29h456a14,14,0,0,1,14,14V894.66a17.21,17.21,0,0,1-17.21,17.21H323.52a17.21,17.21,0,0,1-17.21-17.21V231.31A15,15,0,0,1,321.33,216.29Z"/><path class="cls-3" d="M739.37,267H354.73c-3.75,0-6.82,7.82-6.82,17.39V794.54c0,9.56,3.07,17.39,6.82,17.39H739.37c3.76,0,6.82-7.83,6.82-17.39V284.39C746.19,274.82,743.13,267,739.37,267Z"/><path class="cls-4" d="M568.39,860.81a17.65,17.65,0,1,1-17.65-17.65A17.65,17.65,0,0,1,568.39,860.81Z"/><path class="cls-5" d="M406.88,549.77c2.11-17.87,12.41-25.22,28.68-25"/><path class="cls-5" d="M693.17,549.77c-2.1-17.87-12.41-25.22-28.67-25"/><path class="cls-5" d="M590.42,423.34c29.41-.66,59.17,5.86,89.15,16.78"/><path class="cls-5" d="M431.79,439.75c28.48-12.17,58.33-17,89.28-16"/><path class="cls-5" d="M579.86,486c29-27.27,53.35-23.43,74.94,0"/><path class="cls-5" d="M457.8,486c25.82-23.45,50.26-21.09,73.72,0"/><path class="cls-5" d="M416.34,531.55c63.46,76.16,189.11,83.27,267.22,0"/><path class="cls-5" d="M417.85,535.74c63.61,181.36,202.7,179.78,265.52-2.37"/></g></svg>