<svg xmlns="http://www.w3.org/2000/svg" viewBox="0 0 1000 1000"><defs><style>.cls-1{fill:#28b8d4;opacity:0.05;}.cls-2{fill:#003340;stroke-linecap:round;stroke-linejoin:round;stroke-width:0.78px;}.cls-2,.cls-6{stroke:#003340;}.cls-3{fill:#006981;}.cls-4{fill:#e6eaed;}.cls-5{fill:#b9b9b9;}.cls-6{fill:none;stroke-miterlimit:10;stroke-width:2px;}</style></defs><title>4</title><g id="_3" data-name="3"><path class="cls-1" d="M649.61,663.58c27.17,3.16,53.71,12.64,81,10.77,24.2-1.65,46.48-12.15,65.86-24.84,117.81-77.12,143.38-252.32,37.07-348.14a164.12,164.12,0,0,0-24.87-18.52c-26.14-15.83-56.85-26.06-80-45.07-42.1-34.5-50.74-90-84.76-130.72-27.61-33-72.29-54.78-119-57.94S430.36,61.45,397.48,90.37c-60.18,52.94-41.33,147-113.32,117.49C190.58,169.55,54.73,250.69,116.05,353.6c32.1,53.88,91.11,49.4,110.62,105.94,14.29,41.39-65.8,109.76-94.21,171.24-20.21,43.72,6,86.14,19.4,103.08,37.16,47.14,233.57-78,265.82-65.27C489.14,696.77,571.93,654.55,649.61,663.58Z"/><path class="cls-2" d="M619.28,552.08l28.94-28.94a2,2,0,0,0-2.77-2.77l-28.94,28.94L587,519.78a2,2,0,0,0-2.76,2.77l29.53,29.53-29.53,29.54a2,2,0,0,0,2.76,2.77l29.54-29.54,28.94,28.94a2,2,0,0,0,1.39.58,1.92,1.92,0,0,0,1.38-.58,2,2,0,0,0,0-2.77Z"/><path class="cls-2" d="M426.81,552.08l28.95-28.94a2,2,0,0,0-2.77-2.77L424,549.31l-29.53-29.53a2,2,0,0,0-2.77,2.77l29.53,29.53-29.53,29.54a2,2,0,0,0,2.77,2.77L424,554.85,453,583.79a1.92,1.92,0,0,0,1.38.58,2,2,0,0,0,1.39-3.35Z"/><path class="cls-3" d="M297.33,227.29h456a14,14,0,0,1,14,14V905.66a17.21,17.21,0,0,1-17.21,17.21H299.52a17.21,17.21,0,0,1-17.21-17.21V242.31A15,15,0,0,1,297.33,227.29Z"/><path class="cls-4" d="M715.37,278H330.73c-3.75,0-6.82,7.82-6.82,17.39V805.54c0,9.56,3.07,17.39,6.82,17.39H715.37c3.76,0,6.82-7.83,6.82-17.39V295.39C722.19,285.82,719.13,278,715.37,278Z"/><path class="cls-5" d="M544.39,871.81a17.65,17.65,0,1,1-17.65-17.65A17.65,17.65,0,0,1,544.39,871.81Z"/><path class="cls-2" d="M618.15,550.8l29-28.94a2,2,0,0,0-2.77-2.77l-29,28.94L585.85,518.5a2,2,0,0,0-2.77,2.77l29.54,29.53-29.54,29.54a2,2,0,0,0,0,2.76,1.94,1.94,0,0,0,2.77,0l29.53-29.53,29,28.94a1.92,1.92,0,0,0,1.38.58,1.94,1.94,0,0,0,1.39-.58,2,2,0,0,0,0-2.77Z"/><path class="cls-2" d="M425.69,550.8l28.94-28.94a2,2,0,0,0-2.77-2.77L422.92,548,393.38,518.5a2,2,0,0,0-2.77,2.77l29.54,29.53-29.54,29.54a2,2,0,0,0,1.39,3.34,1.92,1.92,0,0,0,1.38-.58l29.54-29.53,28.94,28.94a1.94,1.94,0,0,0,1.39.58,1.92,1.92,0,0,0,1.38-.58,2,2,0,0,0,0-2.77Z"/><line class="cls-6" x1="564.17" y1="441.34" x2="671.09" y2="441.34"/><line class="cls-6" x1="376.29" y1="473.32" x2="483.21" y2="473.32"/><line class="cls-6" x1="359.44" y1="662.89" x2="674.42" y2="662.89"/></g></svg>