<svg xmlns="http://www.w3.org/2000/svg" viewBox="0 0 1000 1000"><defs><style>.cls-1{fill:#143642;}</style></defs><title>3</title><g id="_1" data-name="1"><path class="cls-1" d="M538.49,278.59A19.55,19.55,0,0,0,519,298.13V512.07a19.75,19.75,0,0,0,5.72,13.82l185.9,185.9a19.54,19.54,0,1,0,27.64-27.64L558,504V298.13A19.56,19.56,0,0,0,538.49,278.59Z"/><path class="cls-1" d="M539.9,100.81A399.27,399.27,0,0,0,265.18,209.74a16.26,16.26,0,0,0-1.1,1.26L190.8,180a28.92,28.92,0,0,0-39.67,32.29l34.48,174.2a28.93,28.93,0,0,0,44.16,18.66l149-96.65a29,29,0,0,0-4.5-50.94L301.89,227a362,362,0,0,1,238-88.8c200.43,0,363.51,163.06,363.51,363.5S740.33,865.18,539.9,865.18c-188.42,0-344-141.23-361.84-328.52a18.68,18.68,0,1,0-37.2,3.55c19.7,206.57,191.25,362.34,399,362.34,221,0,400.87-179.83,400.87-400.87S760.94,100.81,539.9,100.81ZM205.55,382.57l8.66-1.7-34.76-174,183.43,77.21-148.67,96.8Z"/></g></svg>