<?xml version="1.0" encoding="UTF-8" standalone="no"?>
<svg
   xmlns:dc="http://purl.org/dc/elements/1.1/"
   xmlns:cc="http://creativecommons.org/ns#"
   xmlns:rdf="http://www.w3.org/1999/02/22-rdf-syntax-ns#"
   xmlns:svg="http://www.w3.org/2000/svg"
   xmlns="http://www.w3.org/2000/svg"
   xmlns:sodipodi="http://sodipodi.sourceforge.net/DTD/sodipodi-0.dtd"
   xmlns:inkscape="http://www.inkscape.org/namespaces/inkscape"
   inkscape:version="1.0 (6e3e5246a0, 2020-05-07)"
   height="100"
   width="100"
   sodipodi:docname="38.svg"
   id="svg20"
   version="1.1"
   viewBox="0 0 100 100">
  <metadata
     id="metadata24">
    <rdf:RDF>
      <cc:Work
         rdf:about="">
        <dc:format>image/svg+xml</dc:format>
        <dc:type
           rdf:resource="http://purl.org/dc/dcmitype/StillImage" />
        <dc:title></dc:title>
      </cc:Work>
    </rdf:RDF>
  </metadata>
  <sodipodi:namedview
     inkscape:current-layer="svg20"
     inkscape:window-maximized="1"
     inkscape:window-y="27"
     inkscape:window-x="0"
     inkscape:cy="200.33506"
     inkscape:cx="176.47665"
     inkscape:zoom="1.9481289"
     fit-margin-bottom="5"
     fit-margin-right="5"
     fit-margin-left="5"
     lock-margins="true"
     fit-margin-top="5"
     showgrid="false"
     id="namedview22"
     inkscape:window-height="1025"
     inkscape:window-width="1920"
     inkscape:pageshadow="2"
     inkscape:pageopacity="0"
     guidetolerance="10"
     gridtolerance="10"
     objecttolerance="10"
     borderopacity="1"
     bordercolor="#666666"
     pagecolor="#ffffff" />
  <defs
     id="defs7">
    <style
       id="style2">.cls-1{fill:none;}.cls-2{clip-path:url(#clip-path);}.cls-3{fill:#e0e4e8;}.cls-4{fill:#143642;}</style>
    <clipPath
       id="clip-path">
      <circle
         id="circle4"
         r="140.55"
         cy="-219.89999"
         cx="176.03"
         class="cls-1" />
    </clipPath>
  </defs>
  <path
     style="stroke-width:0.321429"
     d="M 50,5 C 25.185714,5 5,25.185714 5,50 5,74.814289 25.185714,94.999999 50,94.999999 74.814289,94.999999 94.999999,74.811069 94.999999,50 94.999999,25.188929 74.823929,5 50,5 Z m 0,3.535714 A 41.502857,41.502857 0 0 1 91.464289,50 C 91.454289,72.856789 72.856789,91.454869 50,91.454869 v 0.009 A 41.506072,41.506072 0 0 1 8.535714,50 C 8.535714,27.143214 27.133571,8.535714 50,8.535714 Z m -0.456403,12.844588 c -1.639286,0 -2.966937,1.025181 -2.966937,2.310895 v 37.404366 c 0,1.276072 1.327651,2.311525 2.966937,2.311525 1.639286,0 2.966937,-1.035453 2.966937,-2.311525 V 23.691197 c 0,-1.276071 -1.327651,-2.310895 -2.966937,-2.310895 z m 0.40618,50.405897 a 3.1403572,3.1403572 0 0 0 -3.089983,3.24066 v 0.44008 A 3.1371429,3.1371429 0 0 0 50,78.617189 a 3.1371429,3.1371429 0 0 0 3.137069,-3.15025 v -0.44008 a 3.1403572,3.1403572 0 0 0 -3.187292,-3.24066 z"
     id="path13" />
</svg>
