<?xml version="1.0" encoding="utf-8"?>
<!-- Generator: Adobe Illustrator 24.0.2, SVG Export Plug-In . SVG Version: 6.00 Build 0)  -->
<svg version="1.1" id="Capa_1" xmlns="http://www.w3.org/2000/svg" xmlns:xlink="http://www.w3.org/1999/xlink" x="0px" y="0px"
	 viewBox="0 0 1000 1000" style="enable-background:new 0 0 1000 1000;" xml:space="preserve">
<style type="text/css">
	.st0{fill:#FFFFFF;}
</style>
<title>10</title>
<g id="_1">
	<path class="st0" d="M869.2,250.7c-11.6-22-34.5-35.7-59.4-35.7H144.3c-37.1,0-67.2,30.1-67.2,67.2c0,13.4,4,26.5,11.5,37.7
		l332.7,491.2c20.8,30.7,62.6,38.8,93.4,18c7.1-4.8,13.2-10.9,18-18l332.7-491.2C879.4,299.3,880.9,272.7,869.2,250.7z M833.7,298.3
		L500.9,789.6c-8.9,13.2-26.8,16.6-40,7.7c-3-2.1-5.7-4.7-7.7-7.7L120.4,298.4c-8.9-13.2-5.5-31.1,7.7-40c4.8-3.2,10.4-5,16.2-5
		h665.5c15.9,0,28.8,12.9,28.8,28.8C838.6,287.9,836.9,293.6,833.7,298.3L833.7,298.3z"/>
</g>
</svg>
