<?xml version="1.0" encoding="utf-8"?>
<!-- Generator: Adobe Illustrator 24.0.2, SVG Export Plug-In . SVG Version: 6.00 Build 0)  -->
<svg version="1.1" id="Capa_1" xmlns="http://www.w3.org/2000/svg" xmlns:xlink="http://www.w3.org/1999/xlink" x="0px" y="0px"
	 viewBox="0 0 1000 1000" style="enable-background:new 0 0 1000 1000;" xml:space="preserve">
<style type="text/css">
	.st0{fill:#FFFFFF;}
</style>
<title>10</title>
<g id="_1">
	<path class="st0" d="M85,805c11.6,22,34.5,35.7,59.4,35.7h665.5c37.1,0,67.2-30.1,67.2-67.2c0-13.4-4-26.5-11.5-37.7L532.8,244.5
		c-20.8-30.7-62.6-38.8-93.4-18c-7.1,4.8-13.2,10.9-18,18L88.7,735.8C74.7,756.4,73.3,783,85,805z M120.5,757.3l332.8-491.3
		c8.9-13.2,26.8-16.6,40-7.7c3,2.1,5.7,4.7,7.7,7.7l332.7,491.2c8.9,13.2,5.5,31.1-7.7,40c-4.8,3.2-10.4,5-16.2,5H144.4
		c-15.9,0-28.8-12.9-28.8-28.8C115.5,767.8,117.2,762.1,120.5,757.3L120.5,757.3z"/>
</g>
</svg>
