<?xml version="1.0" encoding="utf-8"?>
<!-- Generator: Adobe Illustrator 24.0.2, SVG Export Plug-In . SVG Version: 6.00 Build 0)  -->
<svg version="1.1" id="Capa_1" xmlns="http://www.w3.org/2000/svg" xmlns:xlink="http://www.w3.org/1999/xlink" x="0px" y="0px"
	 viewBox="0 0 1000 1000" enable-background="new 0 0 1000 1000" xml:space="preserve">
<title>7</title>
<g id="_1">
	<path fill="#ffffff" d="M140.3,459.3c-4.6,3.1-8.5,7-11.6,11.6c-13.3,19.7-8.1,46.4,11.6,59.7l335.6,227.4
		c7.1,4.8,15.5,7.4,24.1,7.4l0,0c23.8,0,43.1-19.3,43.1-43.1V523.2h350c15.6,0,28.3-12.7,28.3-28.3s-12.7-28.3-28.3-28.3h-350V267.6
		c0-8.7-2.6-17.1-7.4-24.3c-13.4-19.6-40.1-24.7-59.7-11.4L140.3,459.3L140.3,459.3z M188.5,495l298.1-202v403.8L188.5,495z"/>
</g>
</svg>
