<svg xmlns="http://www.w3.org/2000/svg" viewBox="0 0 1000 1000"><defs><style>.cls-1{fill:#143642;}</style></defs><title>8</title><g id="_1" data-name="1"><path class="cls-1" d="M841.68,233.46H686.94V180.12a16.29,16.29,0,1,0-32.57,0v53.34H315.86V180.12a16.29,16.29,0,1,0-32.57,0v53.34H128.55a43.48,43.48,0,0,0-43.44,43.42V863a43.49,43.49,0,0,0,43.44,43.44H841.68A43.48,43.48,0,0,0,885.11,863V276.88A43.47,43.47,0,0,0,841.68,233.46ZM128.55,266H283.29v57.46a16.29,16.29,0,1,0,32.57,0V266H654.37v57.46a16.29,16.29,0,1,0,32.57,0V266H841.68a10.87,10.87,0,0,1,10.86,10.85v86.55H117.69V276.88A10.87,10.87,0,0,1,128.55,266Zm713.13,607.8H128.55A10.86,10.86,0,0,1,117.69,863V396H852.54V863A10.86,10.86,0,0,1,841.68,873.83Z"/><path class="cls-1" d="M519.5,631.77q18.74-7.21,29.74-21.92t11-34.3q0-33-20.89-51t-53.89-18q-33.52,0-53.9,18t-20.38,51q0,19.61,10.66,34.3t29.4,21.92q-21.66,7.58-34.38,23.72a58.59,58.59,0,0,0-12.73,37.31q0,34.73,22.44,53t59.23,18.31q36.1,0,58.71-18.31t22.61-53a57.91,57.91,0,0,0-13-37.31Q541.15,639.34,519.5,631.77Zm-74.45-55.53q0-19.43,11.18-31.21t29.23-11.78q17.7,0,29.31,12.21t11.6,30.78q0,19.08-11.34,30.6T485.8,618.36q-18.23,0-29.49-11.52T445.05,576.24Zm75.13,149.08Q507,737.52,485.8,737.51q-21.66,0-34.73-12.1T438,692q0-20.58,13.15-33.8T485.46,645q20.79,0,34.38,13.21T533.42,692Q533.42,713.14,520.18,725.32Z"/></g></svg>