<svg xmlns="http://www.w3.org/2000/svg" viewBox="0 0 1000 1000"><defs><style>.cls-1{fill:#143642;}</style></defs><title>4</title><g id="_1" data-name="1"><path class="cls-1" d="M518.69,341.66c-97.12,0-176.13,79-176.13,176.13s79,176.13,176.13,176.13,176.13-79,176.13-176.13S615.8,341.66,518.69,341.66Zm0,320c-79.36,0-143.92-64.56-143.92-143.91s64.56-143.91,143.92-143.91S662.6,438.44,662.6,517.79,598,661.7,518.69,661.7Z"/><path class="cls-1" d="M861.82,396.13h-12c-13.62,0-19-10.37-20.3-13.56s-4.87-14.3,4.76-23.93l8.52-8.52a54.26,54.26,0,0,0,0-76.63l-87.83-87.82a54.19,54.19,0,0,0-76.63,0l-8.51,8.51a21.21,21.21,0,0,1-15.26,6.51A23,23,0,0,1,639,194.56a21.13,21.13,0,0,1-6.72-15.91v-12a54.25,54.25,0,0,0-54.19-54.19H453.9a54.25,54.25,0,0,0-54.19,54.19V181.7c0,13.79-11.31,22-22.24,22a21.23,21.23,0,0,1-15.26-6.51l-8.51-8.51a54.19,54.19,0,0,0-76.63,0l-87.82,87.82a54.16,54.16,0,0,0,0,76.62l5.47,5.48c9.63,9.63,6.08,20.75,4.76,23.93s-6.67,13.56-20.29,13.56h-9A54.25,54.25,0,0,0,116,450.32V574.53a54.25,54.25,0,0,0,54.19,54.18h12c13.61,0,19,10.38,20.29,13.56s4.87,14.31-4.76,24l-8.51,8.5a54.16,54.16,0,0,0,0,76.63l87.82,87.83a54.21,54.21,0,0,0,76.63,0l8.51-8.51a21.19,21.19,0,0,1,15.26-6.51c10.93,0,22.24,8.24,22.24,22v12a54.26,54.26,0,0,0,54.19,54.19H578.1a54.26,54.26,0,0,0,54.19-54.19v-9c0-13.8,11.31-22,22.24-22a21.19,21.19,0,0,1,15.26,6.5l8.51,8.52a54.21,54.21,0,0,0,76.63,0l87.83-87.83a54.26,54.26,0,0,0,0-76.63L831.2,666.22c-9.64-9.64-6.09-20.77-4.77-24s6.68-13.56,20.3-13.56h15.09A54.25,54.25,0,0,0,916,574.53V450.32A54.25,54.25,0,0,0,861.82,396.13Zm22,178.4a22,22,0,0,1-22,22H846.73A54.19,54.19,0,0,0,808.42,689L820,700.55a22,22,0,0,1,0,31.07l-87.83,87.82a22,22,0,0,1-31.07,0l-8.51-8.5a53.52,53.52,0,0,0-38-16,54.43,54.43,0,0,0-54.46,54.27v9a22,22,0,0,1-22,22H453.9a22,22,0,0,1-22-22v-12a54.42,54.42,0,0,0-54.46-54.26,53.53,53.53,0,0,0-38,15.95l-8.51,8.51a22,22,0,0,1-31.07,0L212,728.57a21.95,21.95,0,0,1,0-31.06l8.51-8.52a54.18,54.18,0,0,0-38.31-92.5h-12a22,22,0,0,1-22-22V450.32a22,22,0,0,1,22-22h9a54.18,54.18,0,0,0,38.31-92.49L212,330.39a21.95,21.95,0,0,1,0-31.06l87.82-87.83a22,22,0,0,1,31.07,0l8.51,8.51a53.59,53.59,0,0,0,38.05,16,54.43,54.43,0,0,0,54.45-54.26V166.61a22,22,0,0,1,22-22H578.1a22,22,0,0,1,22,22v12A53.35,53.35,0,0,0,617,218.1a55.48,55.48,0,0,0,37.51,14.81,53.55,53.55,0,0,0,38-15.95l8.51-8.51a22,22,0,0,1,31.07,0L820,296.28a22,22,0,0,1,0,31.06l-8.52,8.51a54.19,54.19,0,0,0,38.32,92.5h12a22,22,0,0,1,22,22Z"/></g></svg>