<svg xmlns="http://www.w3.org/2000/svg" viewBox="0 0 1000 1000"  class="cls-1">

<g id="_1" data-name="1"> 
<path  d="M919.55,185.26H726.38V147.1a41.88,41.88,0,0,0-41.83-41.83H379.25a41.87,41.87,0,0,0-41.83,41.83v38.16H150.93a15.69,15.69,0,1,0,0,31.37H245V781.34a68,68,0,0,0,68,68H750.78a68.05,68.05,0,0,0,68-68V216.63H919.55a15.69,15.69,0,1,0,0-31.37ZM368.79,147.1a10.47,10.47,0,0,1,10.46-10.46h305.3A10.47,10.47,0,0,1,695,147.1v38.16H368.79ZM787.38,781.34a36.63,36.63,0,0,1-36.6,36.59H313a36.63,36.63,0,0,1-36.6-36.59V216.63h511Z"/>
<path d="M395.67,323.07A15.69,15.69,0,0,0,380,338.76V705a15.69,15.69,0,0,0,31.37,0V338.76A15.69,15.69,0,0,0,395.67,323.07Z"/>
<path d="M532.63,323.07a15.69,15.69,0,0,0-15.69,15.69V705a15.69,15.69,0,0,0,31.37,0V338.76A15.69,15.69,0,0,0,532.63,323.07Z"/>
<path d="M668.57,323.07a15.69,15.69,0,0,0-15.68,15.69V705a15.69,15.69,0,0,0,31.37,0V338.76A15.69,15.69,0,0,0,668.57,323.07Z"/>
</g>
</svg>
