<svg xmlns="http://www.w3.org/2000/svg" viewBox="0 0 1000 1000"><defs><style>.cls-1{fill:#143642;}</style></defs><title>12</title><g id="_1" data-name="1"><path class="cls-1" d="M851.82,714.35a18.08,18.08,0,0,0-18.08,18.08l0,162.69-727.66.09V732.52a18.09,18.09,0,0,0-36.17,0l0,180.77A18.08,18.08,0,0,0,88,931.37l763.81-.09a18.07,18.07,0,0,0,18.08-18.08l0-180.77A18.09,18.09,0,0,0,851.82,714.35Z"/><path class="cls-1" d="M442.47,798.63a33.16,33.16,0,0,0,54.9,0L729,456.62a33.16,33.16,0,0,0-27.45-51.74l-213.56,0,0-281.19a18.08,18.08,0,0,0-36.16,0l0,281.19-213.55,0a33.16,33.16,0,0,0-27.44,51.75ZM695.83,441.05,469.91,774.66l-226-333.56Z"/></g></svg>