<?xml version="1.0" encoding="UTF-8" standalone="no"?>
<svg
   xmlns:dc="http://purl.org/dc/elements/1.1/"
   xmlns:cc="http://creativecommons.org/ns#"
   xmlns:rdf="http://www.w3.org/1999/02/22-rdf-syntax-ns#"
   xmlns:svg="http://www.w3.org/2000/svg"
   xmlns="http://www.w3.org/2000/svg"
   xmlns:sodipodi="http://sodipodi.sourceforge.net/DTD/sodipodi-0.dtd"
   xmlns:inkscape="http://www.inkscape.org/namespaces/inkscape"
   inkscape:version="1.0 (6e3e5246a0, 2020-05-07)"
   sodipodi:docname="edit2.svg"
   id="svg6"
   version="1.1"
   height="97.038"
   width="100">
  <metadata
     id="metadata12">
    <rdf:RDF>
      <cc:Work
         rdf:about="">
        <dc:format>image/svg+xml</dc:format>
        <dc:type
           rdf:resource="http://purl.org/dc/dcmitype/StillImage" />
      </cc:Work>
    </rdf:RDF>
  </metadata>
  <defs
     id="defs10" />
  <sodipodi:namedview
     inkscape:current-layer="svg6"
     inkscape:window-maximized="1"
     inkscape:window-y="27"
     inkscape:window-x="0"
     inkscape:cy="48.519001"
     inkscape:cx="50.398513"
     inkscape:zoom="5.0186524"
     showgrid="false"
     id="namedview8"
     inkscape:window-height="1025"
     inkscape:window-width="1920"
     inkscape:pageshadow="2"
     inkscape:pageopacity="0"
     guidetolerance="10"
     gridtolerance="10"
     objecttolerance="10"
     borderopacity="1"
     bordercolor="#666666"
     pagecolor="#ffffff" />
  <path
     d="m 86.617,5.0000003 a 8.425,8.425 0 0 0 -5.949,2.453 L 77.385,10.736 35.825,52.296 a 0.613,0.613 0 0 0 -0.036,0.054 1.325,1.325 0 0 0 -0.205,0.308 1.125,1.125 0 0 0 -0.06,0.104 c -0.052,0.07 -0.095,0.147 -0.131,0.226 l -3.641,13.586 a 1.373,1.373 0 0 0 1.678,1.684 l 13.586,-3.643 c 0.078,-0.035 0.153,-0.078 0.222,-0.129 0.032,-0.011 0.058,-0.034 0.088,-0.049 0.12,-0.056 0.231,-0.13 0.33,-0.218 0.017,-0.015 0.038,-0.021 0.053,-0.037 l 41.555,-41.557 3.283,-3.281 a 8.424,8.424 0 0 0 0,-11.8869997 l 0.008,-0.004 a 8.425,8.425 0 0 0 -5.938,-2.453 z m -0.049,2.738 C 91.63,7.7000003 94.192,13.818 90.613,17.398 L 88.3,19.713 80.296,11.711 82.61,9.3950003 a 5.66,5.66 0 0 1 3.96,-1.657 z M 78.354,13.652 86.357,21.654 46.742,61.27 38.736,53.268 Z M 5,26.31 V 92.038 H 70.727 V 58.256 c -0.057,-2.052 -3.108,-2.052 -3.165,0 V 88.873 H 8.166 V 29.475 h 36.928 c 2.11,0 2.11,-3.166 0,-3.166 z m 32.43,29.689 6.582,6.582 -8.992,2.408 z"
     id="path4" />
</svg>
