<svg xmlns="http://www.w3.org/2000/svg" viewBox="0 0 1000 1000"><defs><style>.cls-1{fill:#143642;}</style></defs><g id="_1" data-name="1"><path class="cls-1" d="M130.41,594.78,380.16,764a38.7,38.7,0,0,0,49-4.72A38.23,38.23,0,0,0,440.39,732V585.39H894.88a18.57,18.57,0,0,0,18.58-18.58s-.06-176.64-.11-236.43a21.09,21.09,0,0,0-1.68-7.41,17.34,17.34,0,0,0-16.79-11.13,19,19,0,0,0-17.13,11.35c-.94,2.22-1.46,7.23-1.46,7.23v217.8H440.39V393.68a38.6,38.6,0,0,0-60.23-32L130.41,530.89a39.09,39.09,0,0,0-5.7,4.71,38.59,38.59,0,0,0,5.7,59.18ZM151.26,564a1.24,1.24,0,0,1-.61-1,1.41,1.41,0,0,1,.35-1.12,2,2,0,0,1,.26-.21L401,392.51a1.4,1.4,0,0,1,2.2,1.16V732a1.17,1.17,0,0,1-.34.93,1.39,1.39,0,0,1-1.87.23Z"/></g></svg>