<svg xmlns="http://www.w3.org/2000/svg" viewBox="0 0 1000 1000"><defs><style>.cls-1{fill:#143642;}</style></defs><title>9</title><g id="_1" data-name="1"><path class="cls-1" d="M820.34,323.38a14.08,14.08,0,0,0-.49-2.25,14.36,14.36,0,0,0-.77-3.52,13.55,13.55,0,0,0-1.7-2.56,13.2,13.2,0,0,0-1.34-2l-.68-.69h0l-180-181.66a14.2,14.2,0,0,0-4.25-2.86c-.45-.21-.9-.33-1.37-.5a14.36,14.36,0,0,0-3.72-.74,9.37,9.37,0,0,0-.92-.19H259a38.94,38.94,0,0,0-38.7,39.09V826.53A38.94,38.94,0,0,0,259,865.62H781.59a39,39,0,0,0,38.71-39.09V323.62C820.3,323.54,820.34,323.46,820.34,323.38Zm-49.62-14.65H649.27A9.74,9.74,0,0,1,639.6,299V176.4ZM781.59,836.3H259a9.73,9.73,0,0,1-9.67-9.77V165.47a9.74,9.74,0,0,1,9.67-9.78H610.57V299A38.93,38.93,0,0,0,649.27,338h142V826.53A9.73,9.73,0,0,1,781.59,836.3Z"/><path class="cls-1" d="M322.92,291.8h197.4a14.66,14.66,0,0,0,0-29.31H322.92a14.66,14.66,0,0,0,0,29.31Z"/><path class="cls-1" d="M625.08,411.93H322.92a14.66,14.66,0,0,0,0,29.32H625.08a14.66,14.66,0,0,0,0-29.32Z"/></g></svg>