<svg xmlns="http://www.w3.org/2000/svg" viewBox="0 0 1000 1000"><defs><style>.cls-1{fill:#143642;}</style></defs><title>16</title><g id="_1" data-name="1"><path class="cls-1" d="M907.08,236.51c-10.23-25.86-33.87-41.93-61.69-41.93h-667c-27.59,0-51.15,15.88-61.49,41.44s-4.46,53.37,15.37,72.56a16,16,0,0,0,1.24,1.08L384.71,504.87V699.4a32.29,32.29,0,0,0,13.46,26.2c.25.18.51.36.78.53l192.5,120.52a31.89,31.89,0,0,0,18.27,5.76A32.32,32.32,0,0,0,642,820.14V504.82L889.76,310.15c.34-.27.68-.56,1-.86C911.05,290.26,917.31,262.38,907.08,236.51Zm-36.65,50.2-253,198.79a15.17,15.17,0,0,0-5.81,11.94v322.7a1.93,1.93,0,0,1-1.92,1.89,1.69,1.69,0,0,1-1-.37c-.26-.19-.52-.37-.78-.53L415.67,700.76a1.88,1.88,0,0,1-.59-1.36v-202a15.19,15.19,0,0,0-5.87-12L152.89,286.22c-12.31-12.36-12.13-28.1-7.8-38.81S160.55,225,178.43,225h667c18,0,29.1,11.74,33.44,22.73S883.14,274.44,870.43,286.71Z"/></g></svg>