<?xml version="1.0" encoding="UTF-8" standalone="no"?>
<svg
   xmlns:dc="http://purl.org/dc/elements/1.1/"
   xmlns:cc="http://creativecommons.org/ns#"
   xmlns:rdf="http://www.w3.org/1999/02/22-rdf-syntax-ns#"
   xmlns:svg="http://www.w3.org/2000/svg"
   xmlns="http://www.w3.org/2000/svg"
   xmlns:sodipodi="http://sodipodi.sourceforge.net/DTD/sodipodi-0.dtd"
   xmlns:inkscape="http://www.inkscape.org/namespaces/inkscape"
   inkscape:version="1.0 (6e3e5246a0, 2020-05-07)"
   height="100"
   width="100"
   sodipodi:docname="help_2.svg"
   id="svg8"
   version="1.1"
   viewBox="0 0 100 100">
  <metadata
     id="metadata14">
    <rdf:RDF>
      <cc:Work
         rdf:about="">
        <dc:format>image/svg+xml</dc:format>
        <dc:type
           rdf:resource="http://purl.org/dc/dcmitype/StillImage" />
        <dc:title />
      </cc:Work>
    </rdf:RDF>
  </metadata>
  <defs
     id="defs12" />
  <sodipodi:namedview
     inkscape:current-layer="svg8"
     inkscape:window-maximized="1"
     inkscape:window-y="27"
     inkscape:window-x="0"
     inkscape:cy="52.320392"
     inkscape:cx="57.325304"
     inkscape:zoom="6.4355653"
     fit-margin-bottom="5"
     fit-margin-right="5"
     fit-margin-left="5"
     fit-margin-top="5"
     showgrid="false"
     id="namedview10"
     inkscape:window-height="1025"
     inkscape:window-width="1920"
     inkscape:pageshadow="2"
     inkscape:pageopacity="0"
     guidetolerance="10"
     gridtolerance="10"
     objecttolerance="10"
     borderopacity="1"
     bordercolor="#666666"
     pagecolor="#ffffff"
     inkscape:document-rotation="0" />
  <path
     d="M 50 5 C 25.187 5 5 25.187 5 50 C 5 74.813 25.187 95 50 95 C 74.813 95 95 74.813 95 50 C 95 25.187 74.813 5 50 5 z M 49.388672 22.972656 C 49.497392 22.971678 49.606124 22.971678 49.714844 22.972656 C 51.531664 22.962105 53.338 23.248428 55.0625 23.820312 C 56.68113 24.348539 58.185847 25.176764 59.498047 26.261719 C 60.764597 27.32888 61.789859 28.65306 62.505859 30.146484 C 63.250609 31.678734 63.62425 33.393516 63.625 35.291016 C 63.625 37.352016 63.306672 39.129344 62.669922 40.621094 C 62.071812 42.046539 61.254667 43.369787 60.248047 44.542969 C 59.299847 45.642336 58.237215 46.637538 57.078125 47.511719 C 55.938125 48.365969 54.867234 49.166609 53.865234 49.912109 C 52.947314 50.581642 52.095756 51.337711 51.322266 52.169922 C 50.630766 52.929673 50.257125 53.769656 50.203125 54.691406 L 49.753906 61.361328 L 47.109375 61.361328 L 46.865234 54.40625 C 46.792044 53.334074 47.094523 52.269877 47.720703 51.396484 C 48.405183 50.465719 49.211911 49.631395 50.119141 48.916016 C 51.094141 48.130766 52.151016 47.331328 53.291016 46.517578 C 54.439296 45.696469 55.508395 44.76992 56.484375 43.75 C 57.486395 42.703643 58.323437 41.510968 58.966797 40.212891 C 59.632047 38.883891 59.965594 37.296625 59.964844 35.453125 C 59.964844 33.988375 59.678625 32.681297 59.109375 31.529297 C 58.556125 30.398574 57.765336 29.400589 56.791016 28.603516 C 55.788776 27.790166 54.644446 27.169656 53.416016 26.773438 C 52.130126 26.351615 50.784941 26.138578 49.431641 26.142578 C 47.641391 26.142578 46.087438 26.380719 44.773438 26.855469 C 42.771518 27.54313 40.92598 28.621246 39.34375 30.027344 C 38.8285 30.500594 38.476859 30.737531 38.287109 30.738281 C 37.919999 30.76038 37.572558 30.570726 37.392578 30.25 L 36.375 28.625 C 37.14729 27.858374 37.976479 27.151278 38.855469 26.509766 C 39.807179 25.814588 40.821286 25.209133 41.884766 24.701172 C 43.036646 24.152838 44.244088 23.729838 45.486328 23.439453 C 46.766358 23.142938 48.074822 22.986416 49.388672 22.972656 z M 48.230469 69.507812 C 48.265639 69.507288 48.300737 69.507289 48.335938 69.507812 C 48.839037 69.506395 49.336805 69.610871 49.796875 69.814453 C 50.699765 70.203162 51.420087 70.92208 51.810547 71.824219 C 52.013307 72.285172 52.117234 72.783536 52.115234 73.287109 C 52.121564 73.798051 52.017647 74.30435 51.810547 74.771484 C 51.612877 75.210863 51.336894 75.610603 50.996094 75.951172 C 50.652624 76.29062 50.244945 76.558202 49.796875 76.738281 C 49.332665 76.928338 48.835594 77.025238 48.333984 77.023438 C 46.255064 77.05803 44.559644 75.366099 44.589844 73.287109 L 44.587891 73.294922 C 44.585061 72.793213 44.681997 72.295947 44.873047 71.832031 C 45.054047 71.383042 45.323756 70.975171 45.666016 70.632812 C 46.007296 70.290071 46.408429 70.012711 46.849609 69.814453 C 47.284589 69.620423 47.754249 69.516113 48.230469 69.507812 z "
     id="path5" />
</svg>
