<?xml version="1.0" encoding="UTF-8" standalone="no"?>
<svg
   xmlns:dc="http://purl.org/dc/elements/1.1/"
   xmlns:cc="http://creativecommons.org/ns#"
   xmlns:rdf="http://www.w3.org/1999/02/22-rdf-syntax-ns#"
   xmlns:svg="http://www.w3.org/2000/svg"
   xmlns="http://www.w3.org/2000/svg"
   xmlns:sodipodi="http://sodipodi.sourceforge.net/DTD/sodipodi-0.dtd"
   xmlns:inkscape="http://www.inkscape.org/namespaces/inkscape"
   viewBox="0 0 100 100"
   version="1.1"
   id="svg8"
   sodipodi:docname="help.svg"
   width="100"
   height="100"
   inkscape:version="1.0 (6e3e5246a0, 2020-05-07)">
  <metadata
     id="metadata14">
    <rdf:RDF>
      <cc:Work
         rdf:about="">
        <dc:format>image/svg+xml</dc:format>
        <dc:type
           rdf:resource="http://purl.org/dc/dcmitype/StillImage" />
        <dc:title />
      </cc:Work>
    </rdf:RDF>
  </metadata>
  <defs
     id="defs12" />
  <sodipodi:namedview
     inkscape:document-rotation="0"
     pagecolor="#ffffff"
     bordercolor="#666666"
     borderopacity="1"
     objecttolerance="10"
     gridtolerance="10"
     guidetolerance="10"
     inkscape:pageopacity="0"
     inkscape:pageshadow="2"
     inkscape:window-width="1920"
     inkscape:window-height="1025"
     id="namedview10"
     showgrid="false"
     fit-margin-top="5"
     fit-margin-left="5"
     fit-margin-right="5"
     fit-margin-bottom="5"
     inkscape:zoom="1.9058967"
     inkscape:cx="-84.813993"
     inkscape:cy="58.648817"
     inkscape:window-x="0"
     inkscape:window-y="27"
     inkscape:window-maximized="1"
     inkscape:current-layer="svg8" />
  <path
     d="M 50 5 C 25.187 5 5 25.187 5 50 C 5 74.813 25.187 95 50 95 C 74.813 95 95 74.813 95 50 C 95 25.187 74.813 5 50 5 z M 50 8.5449219 C 72.858875 8.5449219 91.455078 27.141125 91.455078 50 C 91.455078 72.858875 72.858875 91.455078 50 91.455078 C 27.141125 91.455078 8.5449219 72.858875 8.5449219 50 C 8.5449219 27.141125 27.141125 8.5449219 50 8.5449219 z M 49.388672 22.972656 A 18.133875 18.133875 0 0 0 45.486328 23.439453 A 17.812125 17.812125 0 0 0 41.884766 24.701172 A 19.069875 19.069875 0 0 0 38.855469 26.509766 A 21.574125 21.574125 0 0 0 36.375 28.625 L 37.392578 30.25 A 0.959625 0.959625 0 0 0 38.287109 30.738281 C 38.476859 30.737531 38.8285 30.500594 39.34375 30.027344 A 15.9975 15.9975 0 0 1 44.773438 26.855469 C 46.087438 26.380719 47.641391 26.142578 49.431641 26.142578 A 12.664125 12.664125 0 0 1 53.416016 26.773438 A 10.443375 10.443375 0 0 1 56.791016 28.603516 A 8.746875 8.746875 0 0 1 59.109375 31.529297 C 59.678625 32.681297 59.964844 33.988375 59.964844 35.453125 C 59.965594 37.296625 59.632047 38.883891 58.966797 40.212891 A 14.2875 14.2875 0 0 1 56.484375 43.75 A 22.674375 22.674375 0 0 1 53.291016 46.517578 C 52.151016 47.331328 51.094141 48.130766 50.119141 48.916016 A 12.8655 12.8655 0 0 0 47.720703 51.396484 A 4.624875 4.624875 0 0 0 46.865234 54.40625 L 47.109375 61.361328 L 49.753906 61.361328 L 50.203125 54.691406 C 50.257125 53.769656 50.630766 52.929672 51.322266 52.169922 A 17.760375 17.760375 0 0 1 53.865234 49.912109 C 54.867234 49.166609 55.938125 48.365969 57.078125 47.511719 A 20.43675 20.43675 0 0 0 60.248047 44.542969 A 14.841 14.841 0 0 0 62.669922 40.621094 C 63.306672 39.129344 63.625 37.352016 63.625 35.291016 C 63.62425 33.393516 63.250609 31.678734 62.505859 30.146484 A 11.6865 11.6865 0 0 0 59.498047 26.261719 A 13.56525 13.56525 0 0 0 55.0625 23.820312 A 16.6815 16.6815 0 0 0 49.714844 22.972656 A 18.133875 18.133875 0 0 0 49.388672 22.972656 z M 48.230469 69.507812 A 3.5415 3.5415 0 0 0 46.849609 69.814453 A 3.96225 3.96225 0 0 0 45.666016 70.632812 A 3.6 3.6 0 0 0 44.873047 71.832031 A 3.785625 3.785625 0 0 0 44.587891 73.294922 L 44.589844 73.287109 A 3.68325 3.68325 0 0 0 48.333984 77.023438 A 3.825 3.825 0 0 0 49.796875 76.738281 A 3.63375 3.63375 0 0 0 50.996094 75.951172 A 3.97125 3.97125 0 0 0 51.810547 74.771484 A 3.553875 3.553875 0 0 0 52.115234 73.287109 A 3.6 3.6 0 0 0 51.810547 71.824219 A 3.855375 3.855375 0 0 0 49.796875 69.814453 A 3.585375 3.585375 0 0 0 48.335938 69.507812 A 3.5415 3.5415 0 0 0 48.230469 69.507812 z "
      />
</svg>
