<svg xmlns="http://www.w3.org/2000/svg" viewBox="0 0 1000 1000"><defs><style>.cls-1{fill:#143642;}</style></defs><title>14</title><g id="_1" data-name="1"><path class="cls-1" d="M877,455.76,504.2,108.38a28.77,28.77,0,0,0-39.2,0L92.16,455.76a23.67,23.67,0,0,0,16.13,41h23V897.56a28.79,28.79,0,0,0,28.75,28.76H368.55a28.8,28.8,0,0,0,28.76-28.76V628.27H571.89V897.56a28.8,28.8,0,0,0,28.76,28.76H809.11a28.8,28.8,0,0,0,28.76-28.76V496.75h23a23.67,23.67,0,0,0,16.13-41Zm-55.22,8.9a16,16,0,0,0-16,16V894.22H604V624.93a28.79,28.79,0,0,0-28.76-28.75H394a28.79,28.79,0,0,0-28.75,28.75V894.22H163.43V480.71a16.06,16.06,0,0,0-16.05-16h-17.7L484.6,134,839.52,464.66Z"/></g></svg>