<svg xmlns="http://www.w3.org/2000/svg" viewBox="0 0 1000 1000"><defs><style>.cls-1{fill:#143642;}</style></defs><title>6</title><g id="_1" data-name="1"><path class="cls-1" d="M398.14,323.77H938a17.61,17.61,0,0,0,0-35.21H398.14a17.61,17.61,0,1,0,0,35.21Z"/><path class="cls-1" d="M938,503.63H398.14a17.61,17.61,0,0,0,0,35.22H938a17.61,17.61,0,0,0,0-35.22Z"/><path class="cls-1" d="M938,713.78H398.14a17.61,17.61,0,1,0,0,35.21H938a17.61,17.61,0,0,0,0-35.21Z"/><path class="cls-1" d="M244.6,217.17a89,89,0,1,0,89,89A89.1,89.1,0,0,0,244.6,217.17Zm0,142.78a53.79,53.79,0,1,1,53.79-53.78A53.85,53.85,0,0,1,244.6,360Z"/><path class="cls-1" d="M244.6,432.24a89,89,0,1,0,89,89A89.11,89.11,0,0,0,244.6,432.24Zm0,142.79a53.79,53.79,0,1,1,53.79-53.79A53.85,53.85,0,0,1,244.6,575Z"/><path class="cls-1" d="M244.6,642.39a89,89,0,1,0,89,89A89.11,89.11,0,0,0,244.6,642.39Zm0,142.79a53.79,53.79,0,1,1,53.79-53.79A53.85,53.85,0,0,1,244.6,785.18Z"/></g></svg>