<?xml version="1.0" encoding="UTF-8" standalone="no"?>
<svg
   xmlns:dc="http://purl.org/dc/elements/1.1/"
   xmlns:cc="http://creativecommons.org/ns#"
   xmlns:rdf="http://www.w3.org/1999/02/22-rdf-syntax-ns#"
   xmlns:svg="http://www.w3.org/2000/svg"
   xmlns="http://www.w3.org/2000/svg"
   xmlns:sodipodi="http://sodipodi.sourceforge.net/DTD/sodipodi-0.dtd"
   xmlns:inkscape="http://www.inkscape.org/namespaces/inkscape"
   inkscape:version="1.0 (6e3e5246a0, 2020-05-07)"
   height="82.34549"
   width="100"
   sodipodi:docname="44.svg"
   id="svg118"
   version="1.1"
   viewBox="0 0 100 82.34549">
  <metadata
     id="metadata122">
    <rdf:RDF>
      <cc:Work
         rdf:about="">
        <dc:format>image/svg+xml</dc:format>
        <dc:type
           rdf:resource="http://purl.org/dc/dcmitype/StillImage" />
        <dc:title></dc:title>
      </cc:Work>
    </rdf:RDF>
  </metadata>
  <sodipodi:namedview
     inkscape:current-layer="svg118"
     inkscape:window-maximized="1"
     inkscape:window-y="27"
     inkscape:window-x="0"
     inkscape:cy="134.54821"
     inkscape:cx="167.58491"
     inkscape:zoom="1.3775352"
     fit-margin-bottom="5"
     fit-margin-right="5"
     fit-margin-left="5"
     lock-margins="true"
     fit-margin-top="5"
     showgrid="false"
     id="namedview120"
     inkscape:window-height="1025"
     inkscape:window-width="1920"
     inkscape:pageshadow="2"
     inkscape:pageopacity="0"
     guidetolerance="10"
     gridtolerance="10"
     objecttolerance="10"
     borderopacity="1"
     bordercolor="#666666"
     pagecolor="#ffffff" />
  <defs
     id="defs107">
    <style
       id="style105">.cls-1{fill:#143642;}</style>
  </defs>
  <path
     style="stroke-width:0.27928"
     d="m 84.513723,5.0000032 a 1.6589223,1.6589223 0 0 0 -1.18203,0.498013 L 70.47991,18.349798 c -6.145989,-3.345429 -13.101823,-5.713237 -20.480159,-5.713237 -21.292296,0 -39.06582,19.71395 -44.003488,25.757566 a 4.4126217,4.4126217 0 0 0 0,5.585597 c 2.944212,3.595338 10.451853,12.057822 20.547797,18.30592 l -12.225039,12.22504 a 1.6756791,1.6756791 0 0 0 1.178757,2.8348 1.6449584,1.6449584 0 0 0 1.172757,-0.48874 l 12.841963,-12.84305 c 6.147003,3.34792 13.104529,5.71869 20.487253,5.71869 21.297882,0 39.068546,-19.714498 44.006217,-25.758114 a 4.4126217,4.4126217 0 0 0 0,-5.580143 C 91.060998,34.789546 83.547236,26.323722 73.446166,20.076206 L 85.677753,7.8440762 a 1.6589223,1.6589223 0 0 0 -1.16403,-2.844073 z M 49.999751,15.934464 c 6.43289,0 12.555481,1.97609 18.05446,4.841031 L 59.717816,29.11189 A 15.519582,15.519582 0 0 0 49.999751,25.678714 15.502825,15.502825 0 0 0 37.92526,50.904446 l -8.982774,8.982778 C 18.967051,53.890358 11.450601,45.416558 8.55451,41.874217 a 1.1171194,1.1171194 0 0 1 0,-1.3964 C 13.260376,34.72186 30.156917,15.934464 49.999751,15.934464 Z m 21.05781,6.530895 c 9.976027,5.996836 17.494138,14.47021 20.390157,18.012458 a 1.1171194,1.1171194 0 0 1 0,1.3964 c -4.705867,5.755958 -21.60234,24.543357 -41.447967,24.543357 -6.432745,0 -12.554378,-1.97522 -18.052281,-4.8394 L 40.272956,53.25269 A 15.502825,15.502825 0 0 0 65.502509,41.181471 15.519582,15.519582 0 0 0 62.065512,31.458497 Z m -21.035993,6.522712 a 12.193359,12.193359 0 0 1 7.343642,2.476425 L 40.282775,48.546933 a 12.193359,12.193359 0 0 1 9.738793,-19.558862 z m 9.691338,4.823032 a 12.193359,12.193359 0 0 1 2.480245,7.370368 12.207323,12.207323 0 0 1 -12.1934,12.193404 12.193359,12.193359 0 0 1 -7.369827,-2.479156 z"
     id="path109" />
</svg>
