<svg xmlns="http://www.w3.org/2000/svg" height="100" width="86.843" id="svg13" version="1.1"><g transform="translate(-17.001 -15.037) scale(.12807)"><path id="path8" d="M734.79 428.58h-69v-78.13a194.49 194.49 0 00-194-194c-107 0-194 87-194 194v78.13h-69a37 37 0 00-37 37v356.6a37 37 0 0037 37h526a37 37 0 0037-37V465.57a37 37 0 00-37-36.99zM305.5 350.45c0-91.69 74.59-166.28 166.28-166.28a166.74 166.74 0 01166.27 166.28v78.13H305.5zM744 822.17a9.25 9.25 0 01-9.24 9.25h-526a9.25 9.25 0 01-9.25-9.25v-356.6a9.27 9.27 0 019.25-9.25h526a9.26 9.26 0 019.24 9.25z"/><path d="M476.4 538.08a86.69 86.69 0 1086.69 86.7 86.79 86.79 0 00-86.69-86.7zm0 145.64a58.95 58.95 0 1159-58.94 59 59 0 01-59 58.94z"/></g></svg>
