<?xml version="1.0" encoding="UTF-8" standalone="no"?>
<svg
   xmlns:dc="http://purl.org/dc/elements/1.1/"
   xmlns:cc="http://creativecommons.org/ns#"
   xmlns:rdf="http://www.w3.org/1999/02/22-rdf-syntax-ns#"
   xmlns:svg="http://www.w3.org/2000/svg"
   xmlns="http://www.w3.org/2000/svg"
   xmlns:sodipodi="http://sodipodi.sourceforge.net/DTD/sodipodi-0.dtd"
   xmlns:inkscape="http://www.inkscape.org/namespaces/inkscape"
   height="100"
   width="86.606903"
   inkscape:version="1.0 (6e3e5246a0, 2020-05-07)"
   sodipodi:docname="48.svg"
   id="svg17"
   version="1.1"
   viewBox="0 0 86.606903 100">
  <metadata
     id="metadata21">
    <rdf:RDF>
      <cc:Work
         rdf:about="">
        <dc:format>image/svg+xml</dc:format>
        <dc:type
           rdf:resource="http://purl.org/dc/dcmitype/StillImage" />
        <dc:title></dc:title>
      </cc:Work>
    </rdf:RDF>
  </metadata>
  <sodipodi:namedview
     fit-margin-bottom="5"
     fit-margin-right="5"
     fit-margin-left="5"
     fit-margin-top="5"
     lock-margins="true"
     inkscape:current-layer="svg17"
     inkscape:window-maximized="1"
     inkscape:window-y="27"
     inkscape:window-x="0"
     inkscape:cy="154.99194"
     inkscape:cx="133.7364"
     inkscape:zoom="1.3775352"
     showgrid="false"
     id="namedview19"
     inkscape:window-height="1025"
     inkscape:window-width="1920"
     inkscape:pageshadow="2"
     inkscape:pageopacity="0"
     guidetolerance="10"
     gridtolerance="10"
     objecttolerance="10"
     borderopacity="1"
     bordercolor="#666666"
     pagecolor="#ffffff" />
  <defs
     id="defs4">
    <style
       id="style2">.cls-1{fill:none;}.cls-2{fill:#143642;}</style>
  </defs>
  <path
     class="cls-1"
     d="m 202.82953,88.22694 a 70.55,70.55 0 1 0 -141.089999,0 v 33.15 H 202.82953 Z"
     id="path6" />
  <rect
     class="cls-1"
     x="16.769531"
     y="133.15694"
     width="231.03999"
     height="159.14999"
     rx="3.9200001"
     id="rect8" />
  <path
     d="M 43.228218,5.0001137 A 24.772253,24.772253 0 0 0 18.53228,30.045175 V 40.021 H 9.721369 A 4.7305615,4.7305615 0 0 0 5,44.745308 V 90.27569 A 4.7275522,4.7275522 0 0 0 9.721369,95 h 67.163582 a 4.7275522,4.7275522 0 0 0 4.72195,-4.72431 V 44.745308 A 4.7305615,4.7305615 0 0 0 76.884951,40.021 h -8.81092 V 30.045175 A 24.772253,24.772253 0 0 0 43.228218,5.0001137 Z m -0.0764,4.067795 A 21.230351,21.230351 0 0 1 64.532271,30.045175 V 40.021 H 22.074628 V 30.045175 A 21.230351,21.230351 0 0 1 43.151813,9.0679087 Z M 9.721369,43.565701 h 67.163582 a 1.1826404,1.1826404 0 0 1 1.1796,1.179607 V 90.27569 a 1.1826404,1.1826404 0 0 1 -1.1796,1.18255 H 9.721369 A 1.1826404,1.1826404 0 0 1 8.541761,90.27569 V 44.745308 a 1.1826404,1.1826404 0 0 1 1.179608,-1.179607 z m 33.583257,5.386698 A 18.639375,18.639375 0 1 0 61.944421,67.591608 18.657431,18.657431 0 0 0 43.304626,48.952399 Z m -0.09639,1.462312 a 17.173978,17.173978 0 0 1 0.04526,0 17.173864,17.173864 0 0 1 17.222155,17.176897 17.19192,17.19192 0 0 1 -17.171022,17.171022 17.174027,17.174027 0 0 1 -0.09639,-34.347919 z m 9.795972,10.117473 a 0.73426018,0.73426018 0 0 0 -0.484891,0.204534 l 0.0059,0.0029 -12.16048,12.148136 -3.839751,-3.839747 a 0.73436421,0.73436421 0 0 0 -1.038547,1.038547 l 4.360494,4.360492 a 0.73726944,0.73726944 0 0 0 1.038548,0 L 53.557279,61.774679 a 0.73426018,0.73426018 0 0 0 -0.553071,-1.242495 z"
     style="fill:#000000;stroke-width:0.300926"
     id="path10" />
</svg>
