<svg xmlns="http://www.w3.org/2000/svg" viewBox="0 0 1000 1000"><defs><style>.cls-1{fill:#143642;}</style></defs><title>13</title><g id="_1" data-name="1"><path class="cls-1" d="M848.48,277.22H782.64a11.12,11.12,0,0,1-10.93-9.08c-.06-.35-.14-.7-.23-1.05l-19.22-75.87a44.45,44.45,0,0,0-43.58-35.73H277.16a44.45,44.45,0,0,0-43.58,35.73l-19.23,75.87c-.08.35-.16.7-.23,1.05a11.11,11.11,0,0,1-10.92,9.08H137.36a44.5,44.5,0,0,0-44.44,44.44v469.4a44.5,44.5,0,0,0,44.44,44.44H848.48a44.5,44.5,0,0,0,44.44-44.44V321.66A44.5,44.5,0,0,0,848.48,277.22Zm11.11,513.84a11.12,11.12,0,0,1-11.11,11.1H137.36a11.12,11.12,0,0,1-11.11-11.1V321.66a11.12,11.12,0,0,1,11.11-11.11H203.2a44.45,44.45,0,0,0,43.58-35.73L266,199c.09-.35.17-.7.23-1a11.12,11.12,0,0,1,10.93-9.08H708.68a11.11,11.11,0,0,1,10.92,9.08c.07.35.15.7.23,1l19.23,75.87a44.45,44.45,0,0,0,43.58,35.73h65.84a11.12,11.12,0,0,1,11.11,11.11Z"/><path class="cls-1" d="M492.92,370.92c-96.48,0-175,78.5-175,175s78.5,175,175,175,175-78.49,175-175S589.4,370.92,492.92,370.92Zm0,316.62c-78.11,0-141.65-63.54-141.65-141.64s63.54-141.65,141.65-141.65S634.56,467.79,634.56,545.9,571,687.54,492.92,687.54Z"/></g></svg>