<?xml version="1.0" encoding="UTF-8" standalone="no"?>
<svg
   xmlns:dc="http://purl.org/dc/elements/1.1/"
   xmlns:cc="http://creativecommons.org/ns#"
   xmlns:rdf="http://www.w3.org/1999/02/22-rdf-syntax-ns#"
   xmlns:svg="http://www.w3.org/2000/svg"
   xmlns="http://www.w3.org/2000/svg"
   xmlns:sodipodi="http://sodipodi.sourceforge.net/DTD/sodipodi-0.dtd"
   xmlns:inkscape="http://www.inkscape.org/namespaces/inkscape"
   inkscape:version="1.0 (6e3e5246a0, 2020-05-07)"
   height="94.503304"
   width="100"
   sodipodi:docname="43.svg"
   id="svg99"
   version="1.1"
   viewBox="0 0 100 94.503304">
  <metadata
     id="metadata103">
    <rdf:RDF>
      <cc:Work
         rdf:about="">
        <dc:format>image/svg+xml</dc:format>
        <dc:type
           rdf:resource="http://purl.org/dc/dcmitype/StillImage" />
        <dc:title></dc:title>
      </cc:Work>
    </rdf:RDF>
  </metadata>
  <sodipodi:namedview
     inkscape:current-layer="svg99"
     inkscape:window-maximized="1"
     inkscape:window-y="27"
     inkscape:window-x="0"
     inkscape:cy="131.19479"
     inkscape:cx="140.87702"
     inkscape:zoom="1.3775352"
     fit-margin-bottom="5"
     fit-margin-right="5"
     fit-margin-left="5"
     lock-margins="true"
     fit-margin-top="5"
     showgrid="false"
     id="namedview101"
     inkscape:window-height="1025"
     inkscape:window-width="1920"
     inkscape:pageshadow="2"
     inkscape:pageopacity="0"
     guidetolerance="10"
     gridtolerance="10"
     objecttolerance="10"
     borderopacity="1"
     bordercolor="#666666"
     pagecolor="#ffffff" />
  <path

     d="M 8.583628,5.0000355 A 3.6187515,3.6187515 0 0 0 5,8.6150465 V 85.887633 a 3.6187515,3.6187515 0 0 0 3.615665,3.61567 h 37.318506 a 3.6187515,3.6187515 0 0 0 3.612398,-3.62874 V 8.6150465 A 3.6187515,3.6187515 0 0 0 45.934171,5.0000355 H 8.615665 a 3.6187515,3.6187515 0 0 0 -0.03204,0 z m 0.03204,1.446266 h 37.318506 a 2.1692423,2.1692423 0 0 1 2.166129,2.168745 V 85.874563 a 2.1692423,2.1692423 0 0 1 -2.166129,2.16939 H 8.615665 A 2.1725899,2.1725899 0 0 1 6.446266,85.874563 V 8.6150465 A 2.1725899,2.1725899 0 0 1 8.615665,6.4463015 Z M 13.98163,12.06987 a 1.807702,1.807702 0 0 0 -1.807833,1.807833 v 8.660598 a 1.807702,1.807702 0 0 0 1.807833,1.80718 h 8.646867 a 1.807702,1.807702 0 0 0 1.807829,-1.794104 V 13.877703 A 1.807702,1.807702 0 0 0 22.628494,12.06987 Z m 17.923371,0 a 1.807702,1.807702 0 0 0 -1.807833,1.807833 v 8.660598 a 1.807702,1.807702 0 0 0 1.807833,1.80718 h 8.659943 a 1.807702,1.807702 0 0 0 1.807833,-1.794104 V 13.877703 A 1.807702,1.807702 0 0 0 40.564941,12.06987 Z m -17.923374,0.723133 h 8.646867 a 1.0846212,1.0846212 0 0 1 1.097776,1.0847 v 8.673674 a 1.0846212,1.0846212 0 0 1 -1.097776,1.084698 h -8.646867 a 1.0846212,1.0846212 0 0 1 -1.0847,-1.084698 v -8.673674 a 1.0846212,1.0846212 0 0 1 1.0847,-1.0847 z m 17.923371,0 h 8.659943 a 1.0846212,1.0846212 0 0 1 1.084698,1.0847 v 8.673674 a 1.0846212,1.0846212 0 0 1 -1.084698,1.084698 h -8.659943 a 1.0846212,1.0846212 0 0 1 -1.084702,-1.084698 v -8.673674 a 1.0846212,1.0846212 0 0 1 1.084702,-1.0847 z m 27.044915,2.286435 a 3.1902592,3.1902592 0 0 0 -3.183487,3.183485 v 68.05689 a 3.1902592,3.1902592 0 0 0 3.183487,3.18349 h 32.866593 a 3.1902592,3.1902592 0 0 0 3.18349,-3.19722 v -68.04316 a 3.1902592,3.1902592 0 0 0 -3.18349,-3.183485 z m 0,1.275617 h 32.866593 a 1.9114774,1.9114774 0 0 1 1.91179,1.907868 v 68.04316 a 1.9114774,1.9114774 0 0 1 -1.91179,1.90852 H 58.949913 a 1.9114774,1.9114774 0 0 1 -1.907869,-1.90852 v -68.04316 a 1.9114774,1.9114774 0 0 1 1.907869,-1.907868 z m 4.726513,4.937704 a 1.5934558,1.5934558 0 0 0 -1.590103,1.593378 v 7.639318 a 1.5934558,1.5934558 0 0 0 1.590103,1.593379 h 7.62952 a 1.5934558,1.5934558 0 0 0 1.59011,-1.607107 v -7.62559 a 1.5934558,1.5934558 0 0 0 -1.59011,-1.593378 z m 15.78405,0 a 1.5934558,1.5934558 0 0 0 -1.59011,1.593378 v 7.639318 a 1.5934558,1.5934558 0 0 0 1.59011,1.593379 h 7.62951 a 1.5934558,1.5934558 0 0 0 1.59011,-1.607107 v -7.62559 a 1.5934558,1.5934558 0 0 0 -1.59011,-1.593378 z m -8.15453,0.636173 a 0.95741252,0.95741252 0 0 1 0.95393,0.957205 v 7.639318 a 0.95741252,0.95741252 0 0 1 -0.95393,0.957205 h -7.62952 a 0.95741252,0.95741252 0 0 1 -0.95393,-0.957205 v -7.626243 a 0.95741252,0.95741252 0 0 1 0.95393,-0.957201 z m 15.78404,0 a 0.95741252,0.95741252 0 0 1 0.95394,0.957205 v 7.639318 a 0.95741252,0.95741252 0 0 1 -0.95394,0.957205 h -7.62951 a 0.95741252,0.95741252 0 0 1 -0.95393,-0.957205 v -7.626243 a 0.95741252,0.95741252 0 0 1 0.95393,-0.957201 z M 13.95482,27.814033 a 1.807702,1.807702 0 0 0 -1.781026,1.807179 v 8.660597 a 1.807702,1.807702 0 0 0 1.807833,1.807832 h 8.646867 a 1.807702,1.807702 0 0 0 1.807832,-1.804562 v -8.663867 a 1.807702,1.807702 0 0 0 -1.807832,-1.807179 h -8.646867 a 1.807702,1.807702 0 0 0 -0.02681,0 z m 17.92337,0 a 1.807702,1.807702 0 0 0 -1.781025,1.807179 v 8.660597 a 1.807702,1.807702 0 0 0 1.807833,1.807832 h 8.659943 a 1.807702,1.807702 0 0 0 1.807833,-1.804562 v -8.663867 a 1.807702,1.807702 0 0 0 -1.807833,-1.807179 h -8.659943 a 1.807702,1.807702 0 0 0 -0.02681,0 z m -17.896563,0.723134 h 8.646867 a 1.0846212,1.0846212 0 0 1 1.097776,1.084045 v 8.663867 a 1.0846212,1.0846212 0 0 1 -1.097776,1.084698 h -8.646867 a 1.0846212,1.0846212 0 0 1 -1.0847,-1.084698 v -8.663867 a 1.0846212,1.0846212 0 0 1 1.0847,-1.084045 z m 17.923371,0 h 8.659943 a 1.0846212,1.0846212 0 0 1 1.084698,1.084045 v 8.663867 a 1.0846212,1.0846212 0 0 1 -1.084698,1.084698 h -8.659943 a 1.0846212,1.0846212 0 0 1 -1.084702,-1.084698 v -8.663867 a 1.0846212,1.0846212 0 0 1 1.084702,-1.084045 z m 31.771428,6.634387 a 1.5901082,1.5901082 0 0 0 -1.590103,1.590108 v 7.63278 a 1.5901082,1.5901082 0 0 0 1.590103,1.590109 h 7.62952 a 1.5901082,1.5901082 0 0 0 1.59011,-1.593379 v -7.62951 a 1.5901082,1.5901082 0 0 0 -1.59011,-1.590108 z m 15.78405,0 a 1.5901082,1.5901082 0 0 0 -1.59011,1.590108 v 7.63278 a 1.5901082,1.5901082 0 0 0 1.59011,1.590109 h 7.62951 a 1.5901082,1.5901082 0 0 0 1.59011,-1.593379 v -7.62951 a 1.5901082,1.5901082 0 0 0 -1.59011,-1.590108 z m -15.78405,0.636174 h 7.62952 a 0.95741252,0.95741252 0 0 1 0.95393,0.953934 v 7.62951 a 0.95741252,0.95741252 0 0 1 -0.95393,0.953934 h -7.62952 a 0.95741252,0.95741252 0 0 1 -0.95393,-0.953934 v -7.62951 a 0.95741252,0.95741252 0 0 1 0.95393,-0.953934 z m 15.78405,0 h 7.62951 a 0.95741252,0.95741252 0 0 1 0.95394,0.953934 v 7.62951 a 0.95741252,0.95741252 0 0 1 -0.95394,0.953934 h -7.62951 a 0.95741252,0.95741252 0 0 1 -0.95393,-0.953934 v -7.62951 a 0.95741252,0.95741252 0 0 1 0.95393,-0.953934 z m -65.478849,7.592244 a 1.807702,1.807702 0 0 0 -1.807833,1.807832 v 8.676943 a 1.807702,1.807702 0 0 0 1.807833,1.807836 h 8.646867 a 1.807702,1.807702 0 0 0 1.807832,-1.824182 v -8.660597 a 1.807702,1.807702 0 0 0 -1.807832,-1.807832 z m 17.923371,0 a 1.807702,1.807702 0 0 0 -1.807833,1.807832 v 8.676943 a 1.807702,1.807702 0 0 0 1.807833,1.807836 h 8.659943 a 1.807702,1.807702 0 0 0 1.807833,-1.824182 v -8.660597 a 1.807702,1.807702 0 0 0 -1.807833,-1.807832 z m -17.923371,0.723131 h 8.646867 a 1.0879688,1.0879688 0 0 1 1.084699,1.084701 v 8.660597 a 1.0846212,1.0846212 0 0 1 -1.084699,1.084042 h -8.646867 a 1.0846212,1.0846212 0 0 1 -1.0847,-1.084042 v -8.660597 a 1.0879688,1.0879688 0 0 1 1.0847,-1.084701 z m 26.583314,0 a 1.0879688,1.0879688 0 0 1 1.084698,1.084701 v 8.676943 a 1.0846212,1.0846212 0 0 1 -1.084698,1.084696 h -8.659943 a 1.0846212,1.0846212 0 0 1 -1.084702,-1.084696 v -8.659943 a 1.0879688,1.0879688 0 0 1 1.084702,-1.084702 z m 23.068335,4.777519 a 1.5901082,1.5901082 0 0 0 -1.546953,1.590108 v 7.628853 a 1.5901082,1.5901082 0 0 0 1.590103,1.59011 h 7.62952 a 1.5901082,1.5901082 0 0 0 1.59011,-1.59011 V 50.49073 a 1.5901082,1.5901082 0 0 0 -1.59011,-1.590108 h -7.62952 a 1.5901082,1.5901082 0 0 0 -0.0432,0 z m 15.78339,0 a 1.5901082,1.5901082 0 0 0 -1.5463,1.590108 v 7.628853 a 1.5901082,1.5901082 0 0 0 1.59011,1.59011 h 7.62951 a 1.5901082,1.5901082 0 0 0 1.59011,-1.59011 V 50.49073 a 1.5901082,1.5901082 0 0 0 -1.59011,-1.590108 h -7.62951 a 1.5901082,1.5901082 0 0 0 -0.0438,0 z m -15.74024,0.635521 h 7.62952 a 0.95741252,0.95741252 0 0 1 0.95393,0.954587 v 7.628853 a 0.95741252,0.95741252 0 0 1 -0.95393,0.95394 h -7.62952 a 0.95741252,0.95741252 0 0 1 -0.95393,-0.95394 V 50.49073 a 0.95741252,0.95741252 0 0 1 0.95393,-0.954587 z m 15.78405,0 h 7.62951 a 0.95741252,0.95741252 0 0 1 0.95394,0.954587 v 7.628853 a 0.95741252,0.95741252 0 0 1 -0.95394,0.95394 h -7.62951 a 0.95741252,0.95741252 0 0 1 -0.95393,-0.95394 V 50.49073 a 0.95741252,0.95741252 0 0 1 0.95393,-0.954587 z M 22.27085,62.588493 a 1.8110496,1.8110496 0 0 0 -1.784949,1.80784 v 18.80015 a 1.807702,1.807702 0 0 0 1.807833,1.80783 h 9.965637 a 1.807702,1.807702 0 0 0 1.81437,-1.8111 v -18.79688 a 1.8110496,1.8110496 0 0 0 -1.807832,-1.80784 h -9.972175 a 1.8110496,1.8110496 0 0 0 -0.02288,0 z m 9.995059,0.72314 a 1.0879688,1.0879688 0 0 1 1.084701,1.0847 v 18.80015 a 1.0879688,1.0879688 0 0 1 -1.084701,1.0847 h -9.972175 a 1.0879688,1.0879688 0 0 1 -1.091238,-1.08797 v -18.79688 a 1.0879688,1.0879688 0 0 1 1.091238,-1.08143 z m 38.725537,2.50743 a 1.5901082,1.5901082 0 0 0 -1.5901,1.5901 v 16.53726 a 1.5901082,1.5901082 0 0 0 1.5901,1.59011 h 8.78418 a 1.5934558,1.5934558 0 0 0 1.59337,-1.59011 v -16.53726 a 1.5934558,1.5934558 0 0 0 -1.59337,-1.5901 z m 0,0.63617 h 8.78418 a 0.95406492,0.95406492 0 0 1 0.95393,0.95393 v 16.53726 a 0.95406492,0.95406492 0 0 1 -0.95393,0.95393 h -8.78418 a 0.95741252,0.95741252 0 0 1 -0.95458,-0.95393 v -16.53726 a 0.95741252,0.95741252 0 0 1 0.95458,-0.95393 z"
     id="path66" />
</svg>
