<?xml version="1.0" encoding="UTF-8" standalone="no"?>
<svg
   xmlns:dc="http://purl.org/dc/elements/1.1/"
   xmlns:cc="http://creativecommons.org/ns#"
   xmlns:rdf="http://www.w3.org/1999/02/22-rdf-syntax-ns#"
   xmlns:svg="http://www.w3.org/2000/svg"
   xmlns="http://www.w3.org/2000/svg"
   xmlns:sodipodi="http://sodipodi.sourceforge.net/DTD/sodipodi-0.dtd"
   xmlns:inkscape="http://www.inkscape.org/namespaces/inkscape"
   inkscape:version="1.0 (6e3e5246a0, 2020-05-07)"
   height="87.757256"
   width="100.00003"
   sodipodi:docname="47.svg"
   id="svg159"
   version="1.1"
   viewBox="0 0 100.00003 87.757256">
  <metadata
     id="metadata163">
    <rdf:RDF>
      <cc:Work
         rdf:about="">
        <dc:format>image/svg+xml</dc:format>
        <dc:type
           rdf:resource="http://purl.org/dc/dcmitype/StillImage" />
        <dc:title></dc:title>
      </cc:Work>
    </rdf:RDF>
  </metadata>
  <sodipodi:namedview
     inkscape:current-layer="svg159"
     inkscape:window-maximized="1"
     inkscape:window-y="27"
     inkscape:window-x="0"
     inkscape:cy="109.51732"
     inkscape:cx="127.44529"
     inkscape:zoom="1.3775352"
     fit-margin-bottom="5"
     fit-margin-right="5"
     fit-margin-left="5"
     lock-margins="true"
     fit-margin-top="5"
     showgrid="false"
     id="namedview161"
     inkscape:window-height="1025"
     inkscape:window-width="1920"
     inkscape:pageshadow="2"
     inkscape:pageopacity="0"
     guidetolerance="10"
     gridtolerance="10"
     objecttolerance="10"
     borderopacity="1"
     bordercolor="#666666"
     pagecolor="#ffffff" />
  <defs
     id="defs152">
    <style
       id="style150">.cls-1{fill:#143642;}</style>
  </defs>
  <path
     style="fill:#000000;stroke-width:0.371988"
     d="m 7.6351209,5.0001365 a 2.5711685,2.5711685 0 0 0 -1.843229,4.390473 L 49.02385,52.637829 a 2.5704358,2.5704358 0 0 0 1.815618,0.74397 2.5778755,2.5778755 0 0 0 1.82289,-0.75197 L 94.224728,11.064554 A 2.5704358,2.5704358 0 1 0 90.589858,7.4296815 L 50.839468,47.177159 9.4260379,5.7521035 a 2.5711685,2.5711685 0 0 0 -1.790917,-0.751967 z m -0.09154,29.3325425 a 2.5704358,2.5704358 0 0 0 -1.751685,4.42608 l 43.2319581,43.25448 a 2.5555563,2.5555563 0 0 0 1.815614,0.74398 2.562996,2.562996 0 0 0 1.82289,-0.75125 l 41.56237,-41.56237 a 2.5712709,2.5712709 0 1 0 -3.63487,-3.63778 L 50.839468,76.552569 9.4260419,35.124609 a 2.5704358,2.5704358 0 0 0 -1.882461,-0.79193 z"
     id="path154" />
</svg>
