<?xml version="1.0" encoding="utf-8"?>
<!-- Generator: Adobe Illustrator 16.0.3, SVG Export Plug-In . SVG Version: 6.00 Build 0)  -->
<!DOCTYPE svg PUBLIC "-//W3C//DTD SVG 1.1//EN" "http://www.w3.org/Graphics/SVG/1.1/DTD/svg11.dtd">
<svg version="1.1" id="Layer_1" xmlns="http://www.w3.org/2000/svg" xmlns:xlink="http://www.w3.org/1999/xlink" x="0px" y="0px"
	 width="612px" height="792px" viewBox="0 0 612 792" enable-background="new 0 0 612 792" xml:space="preserve">
<title>24</title>
<g id="_1">
	<path fill="#FFFFFF" d="M549.576,357.622c2.744,4.431,8.56,5.8,12.992,3.06c0.628-0.385,1.207-0.843,1.727-1.365
		c3.091-3.094,3.65-7.907,1.354-11.628c-9.423-15.265-20.59-29.38-33.274-42.063c-89.598-89.591-235.382-89.591-324.972,0
		c-26.907,26.933-46.703,60.128-57.608,96.604H91.188c-3.605-0.013-7.064,1.424-9.602,3.982c-4.666,4.733-5.466,12.052-1.934,17.682
		l66.096,104.34c3.961,6.364,12.332,8.313,18.697,4.354c0.884-0.55,1.701-1.199,2.436-1.936c0.733-0.741,1.382-1.563,1.934-2.448
		L234.91,423.87c2.783-4.396,2.952-9.959,0.44-14.518c-2.389-4.386-6.976-7.125-11.971-7.146h-53.733
		c10.313-31.363,27.836-59.87,51.163-83.232c82.234-82.234,216.036-82.234,298.271,0
		C530.715,330.625,540.949,343.596,549.576,357.622z M214.292,421.135l-57.008,90.044l-57.039-90.044H214.292z"/>
</g>
</svg>
