<?xml version="1.0" encoding="utf-8"?>
<!-- Generator: Adobe Illustrator 16.0.3, SVG Export Plug-In . SVG Version: 6.00 Build 0)  -->
<!DOCTYPE svg PUBLIC "-//W3C//DTD SVG 1.1//EN" "http://www.w3.org/Graphics/SVG/1.1/DTD/svg11.dtd">
<svg version="1.1" id="Layer_1" xmlns="http://www.w3.org/2000/svg" xmlns:xlink="http://www.w3.org/1999/xlink" x="0px" y="0px"
	 width="612px" height="792px" viewBox="0 0 612 792" enable-background="new 0 0 612 792" xml:space="preserve">
<title>2</title>
<g id="_1">
	<path fill="#FFFFFF" d="M125.503,319.004c82.234-82.234,216.036-82.234,298.271,0c23.33,23.361,40.855,51.868,51.169,83.232
		h-53.733c-4.996,0.023-9.585,2.762-11.977,7.148c-2.508,4.558-2.339,10.119,0.44,14.517l66.096,104.333
		c0.55,0.888,1.198,1.709,1.935,2.448c5.296,5.307,13.891,5.314,19.196,0.019c0.736-0.735,1.386-1.553,1.936-2.436l66.041-104.346
		c3.539-5.628,2.738-12.952-1.934-17.682c-2.537-2.558-5.993-3.993-9.597-3.983h-58.611c-10.909-36.474-30.704-69.668-57.607-96.604
		c-89.597-89.591-235.375-89.591-324.972,0c-12.688,12.682-23.857,26.798-33.281,42.063c-2.294,3.723-1.732,8.534,1.359,11.628
		c0.517,0.523,1.097,0.982,1.726,1.365c4.432,2.739,10.245,1.37,12.987-3.06C103.596,343.622,113.851,330.654,125.503,319.004z
		 M544.301,421.135l-57.021,90.044l-57.044-90.044H544.301z"/>
</g>
</svg>
