<?xml version="1.0" encoding="utf-8"?>
<!-- Generator: Adobe Illustrator 16.0.3, SVG Export Plug-In . SVG Version: 6.00 Build 0)  -->
<!DOCTYPE svg PUBLIC "-//W3C//DTD SVG 1.1//EN" "http://www.w3.org/Graphics/SVG/1.1/DTD/svg11.dtd">
<svg version="1.1" id="Capa_1" xmlns="http://www.w3.org/2000/svg" xmlns:xlink="http://www.w3.org/1999/xlink" x="0px" y="0px"
	 width="561px" height="382.5px" viewBox="25.5 217.5 561 382.5" enable-background="new 25.5 217.5 561 382.5"
	 xml:space="preserve">
<g>
	<path fill="#FFFFFF" d="M195.585,285.075H574.26c6.885,0,12.24-5.1,12.24-11.22s-5.61-11.22-12.24-11.22H195.585
		c-6.885,0-12.24,5.1-12.24,11.22S188.7,285.075,195.585,285.075z"/>
	<path fill="#FFFFFF" d="M574.26,399.06H195.585c-6.885,0-12.24,5.101-12.24,11.221s5.355,11.22,12.24,11.22H574.26
		c6.885,0,12.24-5.1,12.24-11.22S580.89,399.06,574.26,399.06z"/>
	<path fill="#FFFFFF" d="M574.26,532.425H195.585c-6.885,0-12.24,5.101-12.24,11.22c0,6.12,5.61,11.221,12.24,11.221H574.26
		c6.885,0,12.24-5.101,12.24-11.221C586.5,537.525,580.89,532.425,574.26,532.425z"/>
	<path fill="#FFFFFF" d="M87.975,217.5c-34.425,0-62.475,25.245-62.475,56.355s28.05,56.355,62.475,56.355
		c34.425,0,62.475-25.245,62.475-56.355C150.195,242.745,122.4,217.5,87.975,217.5z M87.975,308.025
		c-20.91,0-37.74-15.3-37.74-34.17s16.83-34.17,37.74-34.17c20.91,0,37.74,15.3,37.74,34.17S108.63,308.025,87.975,308.025z"/>
	<path fill="#FFFFFF" d="M87.975,353.925c-34.425,0-62.475,25.245-62.475,56.355c0,31.109,28.05,56.354,62.475,56.354
		c34.425,0,62.475-25.245,62.475-56.354C150.195,379.17,122.4,353.925,87.975,353.925z M87.975,444.45
		c-20.91,0-37.74-15.3-37.74-34.17s16.83-34.17,37.74-34.17c20.91,0,37.74,15.3,37.74,34.17S108.63,444.45,87.975,444.45z"/>
	<path fill="#FFFFFF" d="M87.975,487.035c-34.425,0-62.475,25.5-62.475,56.609C25.5,574.755,53.55,600,87.975,600
		c34.425,0,62.475-25.245,62.475-56.355C150.195,512.535,122.4,487.035,87.975,487.035z M87.975,577.56
		c-20.91,0-37.74-15.3-37.74-34.17s16.83-34.17,37.74-34.17c20.91,0,37.74,15.3,37.74,34.17S108.63,577.56,87.975,577.56z"/>
</g>
</svg>
