<?xml version="1.0" encoding="UTF-8" standalone="no"?>
<svg
   xmlns:dc="http://purl.org/dc/elements/1.1/"
   xmlns:cc="http://creativecommons.org/ns#"
   xmlns:rdf="http://www.w3.org/1999/02/22-rdf-syntax-ns#"
   xmlns:svg="http://www.w3.org/2000/svg"
   xmlns="http://www.w3.org/2000/svg"
   xmlns:sodipodi="http://sodipodi.sourceforge.net/DTD/sodipodi-0.dtd"
   xmlns:inkscape="http://www.inkscape.org/namespaces/inkscape"
   inkscape:version="1.0 (6e3e5246a0, 2020-05-07)"
   height="100"
   width="100"
   sodipodi:docname="41.svg"
   id="svg35"
   version="1.1"
   viewBox="0 0 100 100">
  <metadata
     id="metadata39">
    <rdf:RDF>
      <cc:Work
         rdf:about="">
        <dc:format>image/svg+xml</dc:format>
        <dc:type
           rdf:resource="http://purl.org/dc/dcmitype/StillImage" />
        <dc:title></dc:title>
      </cc:Work>
    </rdf:RDF>
  </metadata>
  <sodipodi:namedview
     inkscape:current-layer="svg35"
     inkscape:window-maximized="1"
     inkscape:window-y="27"
     inkscape:window-x="0"
     inkscape:cy="144.99547"
     inkscape:cx="146.44734"
     inkscape:zoom="1.3775352"
     fit-margin-bottom="5"
     fit-margin-right="5"
     fit-margin-left="5"
     lock-margins="true"
     fit-margin-top="5"
     showgrid="false"
     id="namedview37"
     inkscape:window-height="1025"
     inkscape:window-width="1920"
     inkscape:pageshadow="2"
     inkscape:pageopacity="0"
     guidetolerance="10"
     gridtolerance="10"
     objecttolerance="10"
     borderopacity="1"
     bordercolor="#666666"
     pagecolor="#ffffff" />
  <defs
     id="defs28">
    <style
       id="style26">.cls-1{fill:#143642;}</style>
  </defs>
  <path
     style="stroke-width:0.321429"
     d="M 50,5 C 25.185714,5 5,25.185714 5,50 5,74.814289 25.185714,94.999999 50,94.999999 74.814289,94.999999 94.999999,74.811069 94.999999,50 94.999999,25.188929 74.823929,5 50,5 Z M 49.94978,8.535714 A 41.464295,41.464295 0 1 1 50,91.464289 C 27.14,91.464289 8.535714,72.866429 8.535714,50 A 41.464286,41.464286 0 0 1 49.949777,8.535714 Z M 49.402975,23.5625 a 1.7742857,1.7742857 0 0 0 -1.736466,1.623465 v 24.457452 a 1.7646429,1.7646429 0 0 0 0.138111,0.678011 1.7839286,1.7839286 0 0 0 0.382953,0.575685 l 21.249436,21.252586 a 1.7742857,1.7742857 0 1 0 2.50677,-2.50677 L 51.20222,48.910784 V 25.185965 A 1.7742857,1.7742857 0 0 0 49.402972,23.5625 Z"
     id="path30" />
</svg>
