<?xml version="1.0" encoding="utf-8"?>
<!-- Generator: Adobe Illustrator 16.0.3, SVG Export Plug-In . SVG Version: 6.00 Build 0)  -->
<!DOCTYPE svg PUBLIC "-//W3C//DTD SVG 1.1//EN" "http://www.w3.org/Graphics/SVG/1.1/DTD/svg11.dtd">
<svg version="1.1" id="Capa_1" xmlns="http://www.w3.org/2000/svg" xmlns:xlink="http://www.w3.org/1999/xlink" x="0px" y="0px"
	 width="511.378px" height="470.475px" viewBox="49.695 166.5 511.378 470.475"
	 enable-background="new 49.695 166.5 511.378 470.475" xml:space="preserve">
<path fill="#FFFFFF" stroke="#FFFFFF" stroke-miterlimit="10" d="M553.605,558.18L340.935,188.685
	c-7.904-13.77-21.42-22.185-35.7-22.185s-27.54,8.415-35.7,22.185L57.12,558.18c-8.925,15.556-9.945,35.445-2.295,52.021
	c7.65,16.575,21.93,26.774,37.995,26.774h425.34c16.064,0,30.6-10.199,37.995-26.774C563.55,593.625,562.53,573.735,553.605,558.18z
	 M534.225,596.685c-3.314,7.141-9.435,11.476-16.319,11.476H92.565c-6.885,0-13.005-4.335-16.32-11.476
	c-3.315-7.14-2.805-15.555,1.02-22.185l212.67-369.495c3.57-6.12,8.925-9.435,15.3-9.435c6.375,0,11.73,3.57,15.3,9.435
	L533.205,574.5C537.03,581.13,537.54,589.29,534.225,596.685z"/>
</svg>
